%TF.GenerationSoftware,KiCad,Pcbnew,7.0.2*%
%TF.CreationDate,2023-08-02T15:39:13+02:00*%
%TF.ProjectId,ATV,4154562e-6b69-4636-9164-5f7063625858,1*%
%TF.SameCoordinates,Original*%
%TF.FileFunction,Legend,Bot*%
%TF.FilePolarity,Positive*%
%FSLAX46Y46*%
G04 Gerber Fmt 4.6, Leading zero omitted, Abs format (unit mm)*
G04 Created by KiCad (PCBNEW 7.0.2) date 2023-08-02 15:39:13*
%MOMM*%
%LPD*%
G01*
G04 APERTURE LIST*
G04 Aperture macros list*
%AMRoundRect*
0 Rectangle with rounded corners*
0 $1 Rounding radius*
0 $2 $3 $4 $5 $6 $7 $8 $9 X,Y pos of 4 corners*
0 Add a 4 corners polygon primitive as box body*
4,1,4,$2,$3,$4,$5,$6,$7,$8,$9,$2,$3,0*
0 Add four circle primitives for the rounded corners*
1,1,$1+$1,$2,$3*
1,1,$1+$1,$4,$5*
1,1,$1+$1,$6,$7*
1,1,$1+$1,$8,$9*
0 Add four rect primitives between the rounded corners*
20,1,$1+$1,$2,$3,$4,$5,0*
20,1,$1+$1,$4,$5,$6,$7,0*
20,1,$1+$1,$6,$7,$8,$9,0*
20,1,$1+$1,$8,$9,$2,$3,0*%
G04 Aperture macros list end*
%ADD10C,0.100000*%
%ADD11O,2.000000X1.905000*%
%ADD12R,2.000000X1.905000*%
%ADD13C,1.740000*%
%ADD14RoundRect,0.249999X0.620001X-0.620001X0.620001X0.620001X-0.620001X0.620001X-0.620001X-0.620001X0*%
%ADD15O,1.700000X1.700000*%
%ADD16R,1.700000X1.700000*%
%ADD17RoundRect,0.249999X-0.620001X-0.620001X0.620001X-0.620001X0.620001X0.620001X-0.620001X0.620001X0*%
%ADD18RoundRect,0.249999X-0.620001X0.620001X-0.620001X-0.620001X0.620001X-0.620001X0.620001X0.620001X0*%
%ADD19C,2.000000*%
%ADD20C,2.250000*%
%ADD21C,1.440000*%
G04 APERTURE END LIST*
%LPC*%
D10*
X61468000Y-162306000D02*
X60452000Y-162306000D01*
X60452000Y-108966000D01*
X61468000Y-108966000D01*
X61468000Y-162306000D01*
G36*
X61468000Y-162306000D02*
G01*
X60452000Y-162306000D01*
X60452000Y-108966000D01*
X61468000Y-108966000D01*
X61468000Y-162306000D01*
G37*
X132842000Y-162306000D02*
X60452000Y-162306000D01*
X60452000Y-161290000D01*
X132842000Y-161290000D01*
X132842000Y-162306000D01*
G36*
X132842000Y-162306000D02*
G01*
X60452000Y-162306000D01*
X60452000Y-161290000D01*
X132842000Y-161290000D01*
X132842000Y-162306000D01*
G37*
X132842000Y-162306000D02*
X131826000Y-162306000D01*
X131826000Y-108966000D01*
X132842000Y-108966000D01*
X132842000Y-162306000D01*
G36*
X132842000Y-162306000D02*
G01*
X131826000Y-162306000D01*
X131826000Y-108966000D01*
X132842000Y-108966000D01*
X132842000Y-162306000D01*
G37*
X132842000Y-109474000D02*
X60452000Y-109474000D01*
X60452000Y-108458000D01*
X132842000Y-108458000D01*
X132842000Y-109474000D01*
G36*
X132842000Y-109474000D02*
G01*
X60452000Y-109474000D01*
X60452000Y-108458000D01*
X132842000Y-108458000D01*
X132842000Y-109474000D01*
G37*
D11*
%TO.C,U5*%
X129755900Y-125564900D03*
X129755900Y-123024900D03*
D12*
X129755900Y-120484900D03*
%TD*%
D13*
%TO.C,J1*%
X88138000Y-133223000D03*
D14*
X88138000Y-135763000D03*
%TD*%
D15*
%TO.C,J4*%
X113030000Y-136144000D03*
X110490000Y-136144000D03*
D16*
X107950000Y-136144000D03*
%TD*%
D15*
%TO.C,J7*%
X103759000Y-134747000D03*
X103759000Y-137287000D03*
X101219000Y-134747000D03*
X101219000Y-137287000D03*
X98679000Y-134747000D03*
D16*
X98679000Y-137287000D03*
%TD*%
D13*
%TO.C,J5*%
X104190800Y-112318800D03*
X101650800Y-112318800D03*
X99110800Y-112318800D03*
X96570800Y-112318800D03*
D17*
X94030800Y-112318800D03*
%TD*%
D13*
%TO.C,J6*%
X112344200Y-130784600D03*
X112344200Y-128244600D03*
X112344200Y-125704600D03*
D18*
X112344200Y-123164600D03*
%TD*%
D13*
%TO.C,J3*%
X112953800Y-112318800D03*
D17*
X110413800Y-112318800D03*
%TD*%
D19*
%TO.C,J2*%
X80010000Y-116814600D03*
%TD*%
D20*
%TO.C,J9*%
X126492000Y-156972000D03*
X126492000Y-151892000D03*
X131572000Y-151892000D03*
X131572000Y-156972000D03*
D21*
X129032000Y-154432000D03*
%TD*%
D19*
%TO.C,J8*%
X125882400Y-116814600D03*
%TD*%
%LPD*%
M02*
