%TF.GenerationSoftware,KiCad,Pcbnew,7.0.2*%
%TF.CreationDate,2023-08-02T15:39:13+02:00*%
%TF.ProjectId,ATV,4154562e-6b69-4636-9164-5f7063625858,1*%
%TF.SameCoordinates,Original*%
%TF.FileFunction,Soldermask,Top*%
%TF.FilePolarity,Negative*%
%FSLAX46Y46*%
G04 Gerber Fmt 4.6, Leading zero omitted, Abs format (unit mm)*
G04 Created by KiCad (PCBNEW 7.0.2) date 2023-08-02 15:39:13*
%MOMM*%
%LPD*%
G01*
G04 APERTURE LIST*
G04 Aperture macros list*
%AMRoundRect*
0 Rectangle with rounded corners*
0 $1 Rounding radius*
0 $2 $3 $4 $5 $6 $7 $8 $9 X,Y pos of 4 corners*
0 Add a 4 corners polygon primitive as box body*
4,1,4,$2,$3,$4,$5,$6,$7,$8,$9,$2,$3,0*
0 Add four circle primitives for the rounded corners*
1,1,$1+$1,$2,$3*
1,1,$1+$1,$4,$5*
1,1,$1+$1,$6,$7*
1,1,$1+$1,$8,$9*
0 Add four rect primitives between the rounded corners*
20,1,$1+$1,$2,$3,$4,$5,0*
20,1,$1+$1,$4,$5,$6,$7,0*
20,1,$1+$1,$6,$7,$8,$9,0*
20,1,$1+$1,$8,$9,$2,$3,0*%
%AMFreePoly0*
4,1,9,3.862500,-0.866500,0.737500,-0.866500,0.737500,-0.450000,-0.737500,-0.450000,-0.737500,0.450000,0.737500,0.450000,0.737500,0.866500,3.862500,0.866500,3.862500,-0.866500,3.862500,-0.866500,$1*%
G04 Aperture macros list end*
%ADD10C,0.100000*%
%ADD11RoundRect,0.237500X-0.237500X0.250000X-0.237500X-0.250000X0.237500X-0.250000X0.237500X0.250000X0*%
%ADD12RoundRect,0.237500X-0.250000X-0.237500X0.250000X-0.237500X0.250000X0.237500X-0.250000X0.237500X0*%
%ADD13O,2.000000X1.905000*%
%ADD14R,2.000000X1.905000*%
%ADD15R,1.000000X1.500000*%
%ADD16R,1.200000X1.600000*%
%ADD17R,3.000000X1.600000*%
%ADD18RoundRect,0.237500X-0.237500X0.300000X-0.237500X-0.300000X0.237500X-0.300000X0.237500X0.300000X0*%
%ADD19C,1.740000*%
%ADD20RoundRect,0.249999X0.620001X-0.620001X0.620001X0.620001X-0.620001X0.620001X-0.620001X-0.620001X0*%
%ADD21RoundRect,0.250000X0.550000X-1.050000X0.550000X1.050000X-0.550000X1.050000X-0.550000X-1.050000X0*%
%ADD22RoundRect,0.250000X-1.050000X-0.550000X1.050000X-0.550000X1.050000X0.550000X-1.050000X0.550000X0*%
%ADD23R,0.900000X0.800000*%
%ADD24R,1.300000X1.600000*%
%ADD25R,2.000000X1.600000*%
%ADD26RoundRect,0.237500X0.237500X-0.250000X0.237500X0.250000X-0.237500X0.250000X-0.237500X-0.250000X0*%
%ADD27RoundRect,0.250000X0.337500X0.475000X-0.337500X0.475000X-0.337500X-0.475000X0.337500X-0.475000X0*%
%ADD28RoundRect,0.249999X-0.400001X-0.625001X0.400001X-0.625001X0.400001X0.625001X-0.400001X0.625001X0*%
%ADD29R,2.000000X4.500000*%
%ADD30RoundRect,0.237500X0.300000X0.237500X-0.300000X0.237500X-0.300000X-0.237500X0.300000X-0.237500X0*%
%ADD31RoundRect,0.150000X-0.150000X0.825000X-0.150000X-0.825000X0.150000X-0.825000X0.150000X0.825000X0*%
%ADD32O,1.700000X1.700000*%
%ADD33R,1.700000X1.700000*%
%ADD34RoundRect,0.249999X-0.620001X-0.620001X0.620001X-0.620001X0.620001X0.620001X-0.620001X0.620001X0*%
%ADD35RoundRect,0.249999X0.400001X0.625001X-0.400001X0.625001X-0.400001X-0.625001X0.400001X-0.625001X0*%
%ADD36RoundRect,0.249999X-0.625001X0.400001X-0.625001X-0.400001X0.625001X-0.400001X0.625001X0.400001X0*%
%ADD37RoundRect,0.249999X-0.620001X0.620001X-0.620001X-0.620001X0.620001X-0.620001X0.620001X0.620001X0*%
%ADD38C,2.000000*%
%ADD39FreePoly0,90.000000*%
%ADD40R,0.900000X1.300000*%
%ADD41R,2.000000X1.500000*%
%ADD42R,2.000000X3.800000*%
%ADD43RoundRect,0.100000X-0.637500X-0.100000X0.637500X-0.100000X0.637500X0.100000X-0.637500X0.100000X0*%
%ADD44R,0.550000X1.600000*%
%ADD45R,1.600000X0.550000*%
%ADD46RoundRect,0.237500X0.250000X0.237500X-0.250000X0.237500X-0.250000X-0.237500X0.250000X-0.237500X0*%
%ADD47RoundRect,0.237500X-0.237500X0.287500X-0.237500X-0.287500X0.237500X-0.287500X0.237500X0.287500X0*%
%ADD48RoundRect,0.237500X0.237500X-0.287500X0.237500X0.287500X-0.237500X0.287500X-0.237500X-0.287500X0*%
%ADD49C,2.250000*%
%ADD50C,1.440000*%
%ADD51RoundRect,0.250000X0.625000X-0.462500X0.625000X0.462500X-0.625000X0.462500X-0.625000X-0.462500X0*%
%ADD52RoundRect,0.237500X0.237500X-0.300000X0.237500X0.300000X-0.237500X0.300000X-0.237500X-0.300000X0*%
%ADD53RoundRect,0.250000X-0.550000X1.250000X-0.550000X-1.250000X0.550000X-1.250000X0.550000X1.250000X0*%
%ADD54RoundRect,0.237500X-0.300000X-0.237500X0.300000X-0.237500X0.300000X0.237500X-0.300000X0.237500X0*%
%ADD55RoundRect,0.250000X-0.550000X1.050000X-0.550000X-1.050000X0.550000X-1.050000X0.550000X1.050000X0*%
%ADD56RoundRect,0.249997X0.412503X0.650003X-0.412503X0.650003X-0.412503X-0.650003X0.412503X-0.650003X0*%
%ADD57RoundRect,0.250000X1.000000X-1.500000X1.000000X1.500000X-1.000000X1.500000X-1.000000X-1.500000X0*%
G04 APERTURE END LIST*
D10*
X100584000Y-157353000D02*
X94234000Y-157353000D01*
X94234000Y-151638000D01*
X100584000Y-151638000D01*
X100584000Y-157353000D01*
G36*
X100584000Y-157353000D02*
G01*
X94234000Y-157353000D01*
X94234000Y-151638000D01*
X100584000Y-151638000D01*
X100584000Y-157353000D01*
G37*
X118745000Y-153162000D02*
X112395000Y-153162000D01*
X112395000Y-147447000D01*
X118745000Y-147447000D01*
X118745000Y-153162000D01*
G36*
X118745000Y-153162000D02*
G01*
X112395000Y-153162000D01*
X112395000Y-147447000D01*
X118745000Y-147447000D01*
X118745000Y-153162000D01*
G37*
X78359000Y-141097000D02*
X69850000Y-141097000D01*
X69850000Y-139700000D01*
X78359000Y-139700000D01*
X78359000Y-141097000D01*
G36*
X78359000Y-141097000D02*
G01*
X69850000Y-141097000D01*
X69850000Y-139700000D01*
X78359000Y-139700000D01*
X78359000Y-141097000D01*
G37*
X108077000Y-141097000D02*
X104775000Y-141097000D01*
X104775000Y-139700000D01*
X108077000Y-139700000D01*
X108077000Y-141097000D01*
G36*
X108077000Y-141097000D02*
G01*
X104775000Y-141097000D01*
X104775000Y-139700000D01*
X108077000Y-139700000D01*
X108077000Y-141097000D01*
G37*
X84637880Y-129413000D02*
X83367880Y-129413000D01*
X83367880Y-108966000D01*
X84637880Y-108966000D01*
X84637880Y-129413000D01*
G36*
X84637880Y-129413000D02*
G01*
X83367880Y-129413000D01*
X83367880Y-108966000D01*
X84637880Y-108966000D01*
X84637880Y-129413000D01*
G37*
X84637880Y-139760960D02*
X83367880Y-139760960D01*
X83367880Y-130175000D01*
X84637880Y-130175000D01*
X84637880Y-139760960D01*
G36*
X84637880Y-139760960D02*
G01*
X83367880Y-139760960D01*
X83367880Y-130175000D01*
X84637880Y-130175000D01*
X84637880Y-139760960D01*
G37*
X69088000Y-141097000D02*
X60452000Y-141097000D01*
X60452000Y-139700000D01*
X69088000Y-139700000D01*
X69088000Y-141097000D01*
G36*
X69088000Y-141097000D02*
G01*
X60452000Y-141097000D01*
X60452000Y-139700000D01*
X69088000Y-139700000D01*
X69088000Y-141097000D01*
G37*
X104013000Y-141097000D02*
X79121000Y-141097000D01*
X79121000Y-139700000D01*
X104013000Y-139700000D01*
X104013000Y-141097000D01*
G36*
X104013000Y-141097000D02*
G01*
X79121000Y-141097000D01*
X79121000Y-139700000D01*
X104013000Y-139700000D01*
X104013000Y-141097000D01*
G37*
X116840000Y-141097000D02*
X108839000Y-141097000D01*
X108839000Y-139700000D01*
X116840000Y-139700000D01*
X116840000Y-141097000D01*
G36*
X116840000Y-141097000D02*
G01*
X108839000Y-141097000D01*
X108839000Y-139700000D01*
X116840000Y-139700000D01*
X116840000Y-141097000D01*
G37*
X128397000Y-141097000D02*
X117983000Y-141097000D01*
X117983000Y-139700000D01*
X128397000Y-139700000D01*
X128397000Y-141097000D01*
G36*
X128397000Y-141097000D02*
G01*
X117983000Y-141097000D01*
X117983000Y-139700000D01*
X128397000Y-139700000D01*
X128397000Y-141097000D01*
G37*
X132842000Y-141097000D02*
X130540760Y-141104620D01*
X130540760Y-139707620D01*
X132842000Y-139700000D01*
X132842000Y-141097000D01*
G36*
X132842000Y-141097000D02*
G01*
X130540760Y-141104620D01*
X130540760Y-139707620D01*
X132842000Y-139700000D01*
X132842000Y-141097000D01*
G37*
D11*
%TO.C,R3*%
X91998800Y-149907000D03*
X91998800Y-148082000D03*
%TD*%
D12*
%TO.C,R22*%
X91463500Y-152704800D03*
X89638500Y-152704800D03*
%TD*%
D13*
%TO.C,U5*%
X129755900Y-125564900D03*
X129755900Y-123024900D03*
D14*
X129755900Y-120484900D03*
%TD*%
D11*
%TO.C,R21*%
X83705700Y-149907000D03*
X83705700Y-148082000D03*
%TD*%
D15*
%TO.C,X1*%
X88992000Y-144780000D03*
X88992000Y-148580000D03*
X86392000Y-148580000D03*
X86392000Y-144780000D03*
%TD*%
D16*
%TO.C,X2*%
X84031000Y-160225000D03*
X78031000Y-160225000D03*
D17*
X81031000Y-160225000D03*
X81031000Y-152625000D03*
D16*
X78031000Y-152625000D03*
X84031000Y-152625000D03*
%TD*%
D18*
%TO.C,C6*%
X94183200Y-149857000D03*
X94183200Y-148132000D03*
%TD*%
D12*
%TO.C,R8*%
X95654500Y-137541000D03*
X93829500Y-137541000D03*
%TD*%
D19*
%TO.C,J1*%
X88138000Y-133223000D03*
D20*
X88138000Y-135763000D03*
%TD*%
D21*
%TO.C,C14*%
X74295000Y-145774000D03*
X74295000Y-149374000D03*
%TD*%
%TO.C,C18*%
X65595500Y-154029000D03*
X65595500Y-157629000D03*
%TD*%
D22*
%TO.C,C11*%
X72285000Y-116713000D03*
X68685000Y-116713000D03*
%TD*%
D23*
%TO.C,Q1*%
X121237500Y-143256000D03*
X123237500Y-142306000D03*
X123237500Y-144206000D03*
%TD*%
D24*
%TO.C,RV1*%
X64282000Y-145743000D03*
D25*
X65532000Y-148643000D03*
D24*
X66782000Y-145743000D03*
%TD*%
D26*
%TO.C,R18*%
X81661000Y-148082000D03*
X81661000Y-149907000D03*
%TD*%
D27*
%TO.C,C28*%
X109452500Y-154686000D03*
X111527500Y-154686000D03*
%TD*%
D28*
%TO.C,R7*%
X103658000Y-131572000D03*
X100558000Y-131572000D03*
%TD*%
D29*
%TO.C,Y1*%
X87757000Y-123249000D03*
X87757000Y-114749000D03*
%TD*%
D26*
%TO.C,R34*%
X117729000Y-142216500D03*
X117729000Y-144041500D03*
%TD*%
D12*
%TO.C,R33*%
X111402500Y-150368000D03*
X109577500Y-150368000D03*
%TD*%
%TO.C,R32*%
X115720500Y-146304000D03*
X113895500Y-146304000D03*
%TD*%
%TO.C,R31*%
X107592500Y-146304000D03*
X105767500Y-146304000D03*
%TD*%
%TO.C,R30*%
X111402500Y-152273000D03*
X109577500Y-152273000D03*
%TD*%
%TO.C,R29*%
X111402500Y-148463000D03*
X109577500Y-148463000D03*
%TD*%
%TO.C,R28*%
X107592500Y-152273000D03*
X105767500Y-152273000D03*
%TD*%
%TO.C,R27*%
X111656500Y-146304000D03*
X109831500Y-146304000D03*
%TD*%
D11*
%TO.C,R20*%
X86741000Y-160424500D03*
X86741000Y-158599500D03*
%TD*%
%TO.C,R19*%
X71374000Y-156360500D03*
X71374000Y-154535500D03*
%TD*%
%TO.C,R12*%
X72009000Y-128928500D03*
X72009000Y-127103500D03*
%TD*%
D26*
%TO.C,R6*%
X80010000Y-111228500D03*
X80010000Y-113053500D03*
%TD*%
D23*
%TO.C,Q5*%
X115681000Y-143256000D03*
X113681000Y-144206000D03*
X113681000Y-142306000D03*
%TD*%
%TO.C,Q4*%
X107553000Y-143256000D03*
X105553000Y-144206000D03*
X105553000Y-142306000D03*
%TD*%
%TO.C,Q3*%
X107553000Y-149352000D03*
X105553000Y-150302000D03*
X105553000Y-148402000D03*
%TD*%
%TO.C,Q2*%
X111617000Y-143256000D03*
X109617000Y-144206000D03*
X109617000Y-142306000D03*
%TD*%
D18*
%TO.C,C20*%
X74168000Y-156310500D03*
X74168000Y-154585500D03*
%TD*%
D30*
%TO.C,C12*%
X70257500Y-124714000D03*
X71982500Y-124714000D03*
%TD*%
D31*
%TO.C,U3*%
X70104000Y-132396000D03*
X68834000Y-132396000D03*
X67564000Y-132396000D03*
X66294000Y-132396000D03*
X66294000Y-127446000D03*
X67564000Y-127446000D03*
X68834000Y-127446000D03*
X70104000Y-127446000D03*
%TD*%
D32*
%TO.C,J4*%
X113030000Y-136144000D03*
X110490000Y-136144000D03*
D33*
X107950000Y-136144000D03*
%TD*%
D32*
%TO.C,J7*%
X103759000Y-134747000D03*
X103759000Y-137287000D03*
X101219000Y-134747000D03*
X101219000Y-137287000D03*
X98679000Y-134747000D03*
D33*
X98679000Y-137287000D03*
%TD*%
D19*
%TO.C,J5*%
X104190800Y-112318800D03*
X101650800Y-112318800D03*
X99110800Y-112318800D03*
X96570800Y-112318800D03*
D34*
X94030800Y-112318800D03*
%TD*%
D35*
%TO.C,R23*%
X111962600Y-118186200D03*
X115062600Y-118186200D03*
%TD*%
D36*
%TO.C,R5*%
X92506800Y-127203800D03*
X92506800Y-124103800D03*
%TD*%
D19*
%TO.C,J6*%
X112344200Y-130784600D03*
X112344200Y-128244600D03*
X112344200Y-125704600D03*
D37*
X112344200Y-123164600D03*
%TD*%
D19*
%TO.C,J3*%
X112953800Y-112318800D03*
D34*
X110413800Y-112318800D03*
%TD*%
D30*
%TO.C,C16*%
X117806300Y-110490000D03*
X119531300Y-110490000D03*
%TD*%
%TO.C,C15*%
X117831700Y-112395000D03*
X119556700Y-112395000D03*
%TD*%
D38*
%TO.C,J2*%
X80010000Y-116814600D03*
%TD*%
D39*
%TO.C,U6*%
X115570000Y-154724500D03*
D40*
X117070000Y-154812000D03*
X114070000Y-154812000D03*
%TD*%
D41*
%TO.C,U7*%
X129540400Y-135040400D03*
X129540400Y-130440400D03*
X129540400Y-132740400D03*
D42*
X123240400Y-132740400D03*
%TD*%
D39*
%TO.C,U4*%
X97409000Y-158915500D03*
D40*
X98909000Y-159003000D03*
X95909000Y-159003000D03*
%TD*%
D43*
%TO.C,U2*%
X102938500Y-144029000D03*
X102938500Y-144679000D03*
X102938500Y-145329000D03*
X102938500Y-145979000D03*
X102938500Y-146629000D03*
X102938500Y-147279000D03*
X102938500Y-147929000D03*
X102938500Y-148579000D03*
X97213500Y-148579000D03*
X97213500Y-147929000D03*
X97213500Y-147279000D03*
X97213500Y-146629000D03*
X97213500Y-145979000D03*
X97213500Y-145329000D03*
X97213500Y-144679000D03*
X97213500Y-144029000D03*
%TD*%
D44*
%TO.C,U1*%
X96996600Y-119041600D03*
X97796600Y-119041600D03*
X98596600Y-119041600D03*
X99396600Y-119041600D03*
X100196600Y-119041600D03*
X100996600Y-119041600D03*
X101796600Y-119041600D03*
X102596600Y-119041600D03*
D45*
X104046600Y-120491600D03*
X104046600Y-121291600D03*
X104046600Y-122091600D03*
X104046600Y-122891600D03*
X104046600Y-123691600D03*
X104046600Y-124491600D03*
X104046600Y-125291600D03*
X104046600Y-126091600D03*
D44*
X102596600Y-127541600D03*
X101796600Y-127541600D03*
X100996600Y-127541600D03*
X100196600Y-127541600D03*
X99396600Y-127541600D03*
X98596600Y-127541600D03*
X97796600Y-127541600D03*
X96996600Y-127541600D03*
D45*
X95546600Y-126091600D03*
X95546600Y-125291600D03*
X95546600Y-124491600D03*
X95546600Y-123691600D03*
X95546600Y-122891600D03*
X95546600Y-122091600D03*
X95546600Y-121291600D03*
X95546600Y-120491600D03*
%TD*%
D11*
%TO.C,R26*%
X109728000Y-158392500D03*
X109728000Y-156567500D03*
%TD*%
D46*
%TO.C,R25*%
X105767500Y-154432000D03*
X107592500Y-154432000D03*
%TD*%
D26*
%TO.C,R24*%
X106680000Y-156567500D03*
X106680000Y-158392500D03*
%TD*%
%TO.C,R16*%
X79629000Y-144248500D03*
X79629000Y-146073500D03*
%TD*%
D11*
%TO.C,R15*%
X72009000Y-132611500D03*
X72009000Y-130786500D03*
%TD*%
%TO.C,R17*%
X126365000Y-146835500D03*
X126365000Y-145010500D03*
%TD*%
D12*
%TO.C,R13*%
X98702500Y-142240000D03*
X96877500Y-142240000D03*
%TD*%
D46*
%TO.C,R11*%
X63730500Y-124714000D03*
X65555500Y-124714000D03*
%TD*%
D26*
%TO.C,R10*%
X63754000Y-130786500D03*
X63754000Y-132611500D03*
%TD*%
%TO.C,R14*%
X128778000Y-145010500D03*
X128778000Y-146835500D03*
%TD*%
D11*
%TO.C,R9*%
X63754000Y-128801500D03*
X63754000Y-126976500D03*
%TD*%
D12*
%TO.C,R4*%
X95654500Y-135382000D03*
X93829500Y-135382000D03*
%TD*%
D11*
%TO.C,R2*%
X81661000Y-146073500D03*
X81661000Y-144248500D03*
%TD*%
D26*
%TO.C,R1*%
X83693000Y-144248500D03*
X83693000Y-146073500D03*
%TD*%
D47*
%TO.C,L2*%
X120650000Y-152386000D03*
X120650000Y-150636000D03*
%TD*%
D48*
%TO.C,L1*%
X103505000Y-156605000D03*
X103505000Y-158355000D03*
%TD*%
D49*
%TO.C,J9*%
X126492000Y-156972000D03*
X126492000Y-151892000D03*
X131572000Y-151892000D03*
X131572000Y-156972000D03*
D50*
X129032000Y-154432000D03*
%TD*%
D38*
%TO.C,J8*%
X125882400Y-116814600D03*
%TD*%
D51*
%TO.C,D1*%
X95504000Y-130084500D03*
X95504000Y-133059500D03*
%TD*%
D30*
%TO.C,C32*%
X120650000Y-154432000D03*
X122375000Y-154432000D03*
%TD*%
D52*
%TO.C,C30*%
X122809000Y-150675000D03*
X122809000Y-152400000D03*
%TD*%
D53*
%TO.C,C33*%
X118745000Y-137505800D03*
X118745000Y-133105800D03*
%TD*%
D30*
%TO.C,C31*%
X125299300Y-125984000D03*
X127024300Y-125984000D03*
%TD*%
D53*
%TO.C,C29*%
X118770400Y-128971400D03*
X118770400Y-124571400D03*
%TD*%
D30*
%TO.C,C26*%
X102007500Y-154432000D03*
X103732500Y-154432000D03*
%TD*%
D52*
%TO.C,C27*%
X124129800Y-110619200D03*
X124129800Y-112344200D03*
%TD*%
D54*
%TO.C,C24*%
X105256500Y-160528000D03*
X103531500Y-160528000D03*
%TD*%
D55*
%TO.C,C25*%
X118745000Y-120621200D03*
X118745000Y-117021200D03*
%TD*%
D54*
%TO.C,C22*%
X91413500Y-154686000D03*
X89688500Y-154686000D03*
%TD*%
D30*
%TO.C,C23*%
X89688500Y-156591000D03*
X91413500Y-156591000D03*
%TD*%
D56*
%TO.C,C21*%
X89750500Y-160020000D03*
X92875500Y-160020000D03*
%TD*%
D52*
%TO.C,C19*%
X74168000Y-158522500D03*
X74168000Y-160247500D03*
%TD*%
D57*
%TO.C,C17*%
X78486000Y-126036000D03*
X78486000Y-132536000D03*
%TD*%
D54*
%TO.C,C13*%
X64616500Y-134874000D03*
X62891500Y-134874000D03*
%TD*%
D30*
%TO.C,C10*%
X86513500Y-127000000D03*
X88238500Y-127000000D03*
%TD*%
%TO.C,C9*%
X86513500Y-111252000D03*
X88238500Y-111252000D03*
%TD*%
%TO.C,C8*%
X96927500Y-150368000D03*
X98652500Y-150368000D03*
%TD*%
D52*
%TO.C,C4*%
X106553000Y-125375500D03*
X106553000Y-127100500D03*
%TD*%
D30*
%TO.C,C7*%
X91847500Y-145923000D03*
X93572500Y-145923000D03*
%TD*%
D54*
%TO.C,C5*%
X103478500Y-150368000D03*
X101753500Y-150368000D03*
%TD*%
D52*
%TO.C,C2*%
X92837000Y-119941000D03*
X92837000Y-121666000D03*
%TD*%
D30*
%TO.C,C3*%
X100610500Y-142240000D03*
X102335500Y-142240000D03*
%TD*%
%TO.C,C1*%
X91847500Y-143891000D03*
X93572500Y-143891000D03*
%TD*%
M02*
