M48
INCH
T1C0.0157
T2C0.0236
T3C0.0350
T4C0.0394
T5C0.0429
T6C0.0433
T7C0.0669
%
G90
G05
T1
X2.925Y-5.6525
X3.567Y-5.745
X3.57Y-5.69
X3.735Y-5.675
X3.885Y-5.8762
X3.945Y-5.715
X3.97Y-5.08
X4.015Y-5.865
X4.08Y-5.59
X4.11Y-5.695
X4.115Y-5.94
X4.115Y-6.005
X4.2Y-5.88
X4.24Y-5.685
X4.24Y-5.94
X4.2504Y-5.5897
X4.28Y-5.78
X4.405Y-5.675
X4.435Y-5.76
X4.605Y-5.76
T2
X2.42Y-5.526
X2.43Y-5.31
X2.44Y-5.735
X2.46Y-5.07
X2.47Y-5.526
X2.52Y-5.526
X2.545Y-5.37
X2.57Y-5.526
X2.61Y-5.08
X2.62Y-5.526
X2.67Y-5.526
X2.71Y-4.91
X2.8Y-5.526
X2.85Y-5.526
X2.9Y-5.526
X2.95Y-5.526
X2.97Y-6.195
X3.0Y-5.526
X3.04Y-6.1
X3.04Y-6.15
X3.04Y-6.2
X3.05Y-5.526
X3.09Y-4.87
X3.09Y-6.1
X3.09Y-6.15
X3.09Y-6.2
X3.14Y-6.05
X3.14Y-6.1
X3.14Y-6.15
X3.14Y-6.2
X3.14Y-6.25
X3.15Y-5.526
X3.19Y-6.05
X3.19Y-6.1
X3.19Y-6.15
X3.19Y-6.2
X3.19Y-6.25
X3.2Y-5.526
X3.204Y-4.38
X3.24Y-6.05
X3.24Y-6.1
X3.24Y-6.15
X3.24Y-6.2
X3.24Y-6.25
X3.25Y-5.526
X3.2525Y-5.79
X3.29Y-6.1
X3.29Y-6.15
X3.29Y-6.2
X3.3Y-5.526
X3.3071Y-4.35
X3.3071Y-4.4
X3.3071Y-4.45
X3.3071Y-4.5
X3.3071Y-4.55
X3.3071Y-4.6
X3.3071Y-4.65
X3.3071Y-4.7
X3.3071Y-4.75
X3.3071Y-4.8
X3.3071Y-4.85
X3.3071Y-4.9
X3.3071Y-5.0
X3.3071Y-5.05
X3.3071Y-5.17
X3.3071Y-5.22
X3.3071Y-5.27
X3.3071Y-5.32
X3.3071Y-5.37
X3.3071Y-5.42
X3.3071Y-5.47
X3.34Y-6.1
X3.34Y-6.15
X3.34Y-6.2
X3.35Y-5.526
X3.4Y-5.526
X3.405Y-5.925
X3.45Y-5.526
X3.5Y-5.526
X3.53Y-4.38
X3.53Y-5.0
X3.55Y-5.526
X3.6Y-5.526
X3.635Y-6.23
X3.65Y-5.526
X3.655Y-4.67
X3.7Y-5.526
X3.73Y-5.375
X3.735Y-5.995
X3.735Y-6.045
X3.735Y-6.095
X3.735Y-6.145
X3.75Y-5.526
X3.78Y-5.92
X3.785Y-5.995
X3.785Y-6.045
X3.785Y-6.095
X3.785Y-6.145
X3.83Y-4.805
X3.83Y-4.87
X3.835Y-5.995
X3.835Y-6.045
X3.835Y-6.095
X3.835Y-6.145
X3.835Y-6.195
X3.85Y-5.526
X3.87Y-5.74
X3.885Y-5.995
X3.885Y-6.045
X3.885Y-6.095
X3.885Y-6.145
X3.9Y-5.526
X3.935Y-5.995
X3.935Y-6.045
X3.935Y-6.045
X3.935Y-6.095
X3.935Y-6.095
X3.935Y-6.145
X3.935Y-6.145
X3.95Y-5.526
X3.96Y-5.65
X3.976Y-5.824
X4.036Y-4.839
X4.065Y-5.526
X4.145Y-5.526
X4.15Y-6.27
X4.18Y-4.745
X4.195Y-5.05
X4.2Y-5.526
X4.305Y-5.528
X4.355Y-5.528
X4.37Y-6.24
X4.405Y-5.528
X4.45Y-5.83
X4.45Y-5.88
X4.45Y-5.93
X4.45Y-5.98
X4.455Y-5.528
X4.5Y-5.83
X4.5Y-5.88
X4.5Y-5.93
X4.5Y-5.98
X4.505Y-5.528
X4.55Y-5.83
X4.55Y-5.88
X4.55Y-5.93
X4.55Y-5.98
X4.55Y-6.03
X4.555Y-5.528
X4.6Y-5.035
X4.6Y-5.83
X4.6Y-5.88
X4.6Y-5.93
X4.6Y-5.98
X4.65Y-5.83
X4.65Y-5.88
X4.65Y-5.88
X4.65Y-5.93
X4.65Y-5.93
X4.65Y-5.98
X4.65Y-5.98
X4.67Y-5.528
X4.72Y-5.528
X4.735Y-4.75
X4.735Y-5.115
X4.756Y-4.387
X4.7634Y-5.2404
X4.77Y-5.528
X4.82Y-5.528
X4.87Y-5.528
X4.88Y-5.895
X4.92Y-5.528
X4.932Y-5.013
X4.938Y-4.355
X4.97Y-5.315
X4.97Y-5.528
X5.02Y-5.528
X5.1586Y-5.316
X5.174Y-5.528
T3
X5.08Y-6.08
T4
X3.15Y-4.599
X3.885Y-5.305
X3.885Y-5.405
X3.985Y-5.305
X3.985Y-5.405
X4.085Y-5.305
X4.085Y-5.405
X4.25Y-5.36
X4.35Y-5.36
X4.45Y-5.36
X4.956Y-4.599
T5
X3.47Y-5.245
X3.47Y-5.345
X3.702Y-4.422
X3.802Y-4.422
X3.902Y-4.422
X4.002Y-4.422
X4.102Y-4.422
X4.347Y-4.422
X4.423Y-4.849
X4.423Y-4.949
X4.423Y-5.049
X4.423Y-5.149
X4.447Y-4.422
T6
X5.1085Y-4.7435
X5.1085Y-4.8435
X5.1085Y-4.9435
T7
X4.98Y-5.98
X4.98Y-6.18
X5.18Y-5.98
X5.18Y-6.18
T0
M30
