%TF.GenerationSoftware,KiCad,Pcbnew,7.0.2*%
%TF.CreationDate,2023-08-02T15:39:13+02:00*%
%TF.ProjectId,ATV,4154562e-6b69-4636-9164-5f7063625858,1*%
%TF.SameCoordinates,Original*%
%TF.FileFunction,Copper,L1,Top*%
%TF.FilePolarity,Positive*%
%FSLAX46Y46*%
G04 Gerber Fmt 4.6, Leading zero omitted, Abs format (unit mm)*
G04 Created by KiCad (PCBNEW 7.0.2) date 2023-08-02 15:39:13*
%MOMM*%
%LPD*%
G01*
G04 APERTURE LIST*
G04 Aperture macros list*
%AMRoundRect*
0 Rectangle with rounded corners*
0 $1 Rounding radius*
0 $2 $3 $4 $5 $6 $7 $8 $9 X,Y pos of 4 corners*
0 Add a 4 corners polygon primitive as box body*
4,1,4,$2,$3,$4,$5,$6,$7,$8,$9,$2,$3,0*
0 Add four circle primitives for the rounded corners*
1,1,$1+$1,$2,$3*
1,1,$1+$1,$4,$5*
1,1,$1+$1,$6,$7*
1,1,$1+$1,$8,$9*
0 Add four rect primitives between the rounded corners*
20,1,$1+$1,$2,$3,$4,$5,0*
20,1,$1+$1,$4,$5,$6,$7,0*
20,1,$1+$1,$6,$7,$8,$9,0*
20,1,$1+$1,$8,$9,$2,$3,0*%
%AMFreePoly0*
4,1,9,3.862500,-0.866500,0.737500,-0.866500,0.737500,-0.450000,-0.737500,-0.450000,-0.737500,0.450000,0.737500,0.450000,0.737500,0.866500,3.862500,0.866500,3.862500,-0.866500,3.862500,-0.866500,$1*%
G04 Aperture macros list end*
%TA.AperFunction,SMDPad,CuDef*%
%ADD10RoundRect,0.237500X-0.237500X0.250000X-0.237500X-0.250000X0.237500X-0.250000X0.237500X0.250000X0*%
%TD*%
%TA.AperFunction,SMDPad,CuDef*%
%ADD11RoundRect,0.237500X-0.250000X-0.237500X0.250000X-0.237500X0.250000X0.237500X-0.250000X0.237500X0*%
%TD*%
%TA.AperFunction,ComponentPad*%
%ADD12O,2.000000X1.905000*%
%TD*%
%TA.AperFunction,ComponentPad*%
%ADD13R,2.000000X1.905000*%
%TD*%
%TA.AperFunction,SMDPad,CuDef*%
%ADD14R,1.000000X1.500000*%
%TD*%
%TA.AperFunction,SMDPad,CuDef*%
%ADD15R,1.200000X1.600000*%
%TD*%
%TA.AperFunction,SMDPad,CuDef*%
%ADD16R,3.000000X1.600000*%
%TD*%
%TA.AperFunction,SMDPad,CuDef*%
%ADD17RoundRect,0.237500X-0.237500X0.300000X-0.237500X-0.300000X0.237500X-0.300000X0.237500X0.300000X0*%
%TD*%
%TA.AperFunction,ComponentPad*%
%ADD18C,1.740000*%
%TD*%
%TA.AperFunction,ComponentPad*%
%ADD19RoundRect,0.249999X0.620001X-0.620001X0.620001X0.620001X-0.620001X0.620001X-0.620001X-0.620001X0*%
%TD*%
%TA.AperFunction,SMDPad,CuDef*%
%ADD20RoundRect,0.250000X0.550000X-1.050000X0.550000X1.050000X-0.550000X1.050000X-0.550000X-1.050000X0*%
%TD*%
%TA.AperFunction,SMDPad,CuDef*%
%ADD21RoundRect,0.250000X-1.050000X-0.550000X1.050000X-0.550000X1.050000X0.550000X-1.050000X0.550000X0*%
%TD*%
%TA.AperFunction,SMDPad,CuDef*%
%ADD22R,0.900000X0.800000*%
%TD*%
%TA.AperFunction,SMDPad,CuDef*%
%ADD23R,1.300000X1.600000*%
%TD*%
%TA.AperFunction,SMDPad,CuDef*%
%ADD24R,2.000000X1.600000*%
%TD*%
%TA.AperFunction,SMDPad,CuDef*%
%ADD25RoundRect,0.237500X0.237500X-0.250000X0.237500X0.250000X-0.237500X0.250000X-0.237500X-0.250000X0*%
%TD*%
%TA.AperFunction,SMDPad,CuDef*%
%ADD26RoundRect,0.250000X0.337500X0.475000X-0.337500X0.475000X-0.337500X-0.475000X0.337500X-0.475000X0*%
%TD*%
%TA.AperFunction,SMDPad,CuDef*%
%ADD27RoundRect,0.249999X-0.400001X-0.625001X0.400001X-0.625001X0.400001X0.625001X-0.400001X0.625001X0*%
%TD*%
%TA.AperFunction,SMDPad,CuDef*%
%ADD28R,2.000000X4.500000*%
%TD*%
%TA.AperFunction,SMDPad,CuDef*%
%ADD29RoundRect,0.237500X0.300000X0.237500X-0.300000X0.237500X-0.300000X-0.237500X0.300000X-0.237500X0*%
%TD*%
%TA.AperFunction,SMDPad,CuDef*%
%ADD30RoundRect,0.150000X-0.150000X0.825000X-0.150000X-0.825000X0.150000X-0.825000X0.150000X0.825000X0*%
%TD*%
%TA.AperFunction,ComponentPad*%
%ADD31O,1.700000X1.700000*%
%TD*%
%TA.AperFunction,ComponentPad*%
%ADD32R,1.700000X1.700000*%
%TD*%
%TA.AperFunction,ComponentPad*%
%ADD33RoundRect,0.249999X-0.620001X-0.620001X0.620001X-0.620001X0.620001X0.620001X-0.620001X0.620001X0*%
%TD*%
%TA.AperFunction,SMDPad,CuDef*%
%ADD34RoundRect,0.249999X0.400001X0.625001X-0.400001X0.625001X-0.400001X-0.625001X0.400001X-0.625001X0*%
%TD*%
%TA.AperFunction,SMDPad,CuDef*%
%ADD35RoundRect,0.249999X-0.625001X0.400001X-0.625001X-0.400001X0.625001X-0.400001X0.625001X0.400001X0*%
%TD*%
%TA.AperFunction,ComponentPad*%
%ADD36RoundRect,0.249999X-0.620001X0.620001X-0.620001X-0.620001X0.620001X-0.620001X0.620001X0.620001X0*%
%TD*%
%TA.AperFunction,ComponentPad*%
%ADD37C,2.000000*%
%TD*%
%TA.AperFunction,SMDPad,CuDef*%
%ADD38FreePoly0,90.000000*%
%TD*%
%TA.AperFunction,SMDPad,CuDef*%
%ADD39R,0.900000X1.300000*%
%TD*%
%TA.AperFunction,SMDPad,CuDef*%
%ADD40R,2.000000X1.500000*%
%TD*%
%TA.AperFunction,SMDPad,CuDef*%
%ADD41R,2.000000X3.800000*%
%TD*%
%TA.AperFunction,SMDPad,CuDef*%
%ADD42RoundRect,0.100000X-0.637500X-0.100000X0.637500X-0.100000X0.637500X0.100000X-0.637500X0.100000X0*%
%TD*%
%TA.AperFunction,SMDPad,CuDef*%
%ADD43R,0.550000X1.600000*%
%TD*%
%TA.AperFunction,SMDPad,CuDef*%
%ADD44R,1.600000X0.550000*%
%TD*%
%TA.AperFunction,SMDPad,CuDef*%
%ADD45RoundRect,0.237500X0.250000X0.237500X-0.250000X0.237500X-0.250000X-0.237500X0.250000X-0.237500X0*%
%TD*%
%TA.AperFunction,SMDPad,CuDef*%
%ADD46RoundRect,0.237500X-0.237500X0.287500X-0.237500X-0.287500X0.237500X-0.287500X0.237500X0.287500X0*%
%TD*%
%TA.AperFunction,SMDPad,CuDef*%
%ADD47RoundRect,0.237500X0.237500X-0.287500X0.237500X0.287500X-0.237500X0.287500X-0.237500X-0.287500X0*%
%TD*%
%TA.AperFunction,ComponentPad*%
%ADD48C,2.250000*%
%TD*%
%TA.AperFunction,ComponentPad*%
%ADD49C,1.440000*%
%TD*%
%TA.AperFunction,SMDPad,CuDef*%
%ADD50RoundRect,0.250000X0.625000X-0.462500X0.625000X0.462500X-0.625000X0.462500X-0.625000X-0.462500X0*%
%TD*%
%TA.AperFunction,SMDPad,CuDef*%
%ADD51RoundRect,0.237500X0.237500X-0.300000X0.237500X0.300000X-0.237500X0.300000X-0.237500X-0.300000X0*%
%TD*%
%TA.AperFunction,SMDPad,CuDef*%
%ADD52RoundRect,0.250000X-0.550000X1.250000X-0.550000X-1.250000X0.550000X-1.250000X0.550000X1.250000X0*%
%TD*%
%TA.AperFunction,SMDPad,CuDef*%
%ADD53RoundRect,0.237500X-0.300000X-0.237500X0.300000X-0.237500X0.300000X0.237500X-0.300000X0.237500X0*%
%TD*%
%TA.AperFunction,SMDPad,CuDef*%
%ADD54RoundRect,0.250000X-0.550000X1.050000X-0.550000X-1.050000X0.550000X-1.050000X0.550000X1.050000X0*%
%TD*%
%TA.AperFunction,SMDPad,CuDef*%
%ADD55RoundRect,0.249997X0.412503X0.650003X-0.412503X0.650003X-0.412503X-0.650003X0.412503X-0.650003X0*%
%TD*%
%TA.AperFunction,SMDPad,CuDef*%
%ADD56RoundRect,0.250000X1.000000X-1.500000X1.000000X1.500000X-1.000000X1.500000X-1.000000X-1.500000X0*%
%TD*%
%TA.AperFunction,ViaPad*%
%ADD57C,0.800000*%
%TD*%
%TA.AperFunction,ViaPad*%
%ADD58C,1.000000*%
%TD*%
%TA.AperFunction,Conductor*%
%ADD59C,0.400000*%
%TD*%
%TA.AperFunction,Conductor*%
%ADD60C,0.700000*%
%TD*%
%TA.AperFunction,Conductor*%
%ADD61C,0.300000*%
%TD*%
G04 APERTURE END LIST*
D10*
%TO.P,R3,2*%
%TO.N,Net-(C6-Pad2)*%
X91998800Y-149907000D03*
%TO.P,R3,1*%
%TO.N,Net-(R3-Pad1)*%
X91998800Y-148082000D03*
%TD*%
D11*
%TO.P,R22,2*%
%TO.N,Net-(C22-Pad2)*%
X91463500Y-152704800D03*
%TO.P,R22,1*%
%TO.N,RF*%
X89638500Y-152704800D03*
%TD*%
D12*
%TO.P,U5,3*%
%TO.N,+5V*%
X129755900Y-125564900D03*
%TO.P,U5,2*%
%TO.N,GND*%
X129755900Y-123024900D03*
D13*
%TO.P,U5,1*%
%TO.N,Net-(C25-Pad1)*%
X129755900Y-120484900D03*
%TD*%
D10*
%TO.P,R21,2*%
%TO.N,Net-(C19-Pad1)*%
X83705700Y-149907000D03*
%TO.P,R21,1*%
%TO.N,+3V3*%
X83705700Y-148082000D03*
%TD*%
D14*
%TO.P,X1,4*%
%TO.N,+3V3*%
X88992000Y-144780000D03*
%TO.P,X1,3*%
%TO.N,Net-(R3-Pad1)*%
X88992000Y-148580000D03*
%TO.P,X1,2*%
%TO.N,GND*%
X86392000Y-148580000D03*
%TO.P,X1,1*%
%TO.N,Net-(R1-Pad2)*%
X86392000Y-144780000D03*
%TD*%
D15*
%TO.P,X2,1*%
%TO.N,Net-(R20-Pad1)*%
X84031000Y-160225000D03*
%TO.P,X2,3*%
%TO.N,Net-(C19-Pad1)*%
X78031000Y-160225000D03*
D16*
%TO.P,X2,5*%
%TO.N,GND*%
X81031000Y-160225000D03*
X81031000Y-152625000D03*
D15*
%TO.P,X2,*%
%TO.N,*%
X78031000Y-152625000D03*
%TO.P,X2,6*%
%TO.N,Net-(C22-Pad1)*%
X84031000Y-152625000D03*
%TD*%
D17*
%TO.P,C6,2*%
%TO.N,Net-(C6-Pad2)*%
X94183200Y-149857000D03*
%TO.P,C6,1*%
%TO.N,Net-(C6-Pad1)*%
X94183200Y-148132000D03*
%TD*%
D11*
%TO.P,R8,2*%
%TO.N,GND*%
X95654500Y-137541000D03*
%TO.P,R8,1*%
%TO.N,Net-(J1-Pad1)*%
X93829500Y-137541000D03*
%TD*%
D18*
%TO.P,J1,2*%
%TO.N,Net-(D1-Pad2)*%
X88138000Y-133223000D03*
D19*
%TO.P,J1,1*%
%TO.N,Net-(J1-Pad1)*%
X88138000Y-135763000D03*
%TD*%
D20*
%TO.P,C14,2*%
%TO.N,GND*%
X74295000Y-145774000D03*
%TO.P,C14,1*%
%TO.N,Net-(C14-Pad1)*%
X74295000Y-149374000D03*
%TD*%
%TO.P,C18,2*%
%TO.N,Net-(C18-Pad2)*%
X65595500Y-154029000D03*
%TO.P,C18,1*%
%TO.N,Net-(C18-Pad1)*%
X65595500Y-157629000D03*
%TD*%
D21*
%TO.P,C11,2*%
%TO.N,Net-(C11-Pad2)*%
X72285000Y-116713000D03*
%TO.P,C11,1*%
%TO.N,Net-(C11-Pad1)*%
X68685000Y-116713000D03*
%TD*%
D22*
%TO.P,Q1,3*%
%TO.N,+5VL*%
X121237500Y-143256000D03*
%TO.P,Q1,2*%
%TO.N,+5V*%
X123237500Y-142306000D03*
%TO.P,Q1,1*%
%TO.N,Net-(Q1-Pad1)*%
X123237500Y-144206000D03*
%TD*%
D23*
%TO.P,RV1,3*%
%TO.N,GND*%
X64282000Y-145743000D03*
D24*
%TO.P,RV1,2*%
%TO.N,Net-(C18-Pad2)*%
X65532000Y-148643000D03*
D23*
%TO.P,RV1,1*%
%TO.N,Net-(R15-Pad2)*%
X66782000Y-145743000D03*
%TD*%
D25*
%TO.P,R18,2*%
%TO.N,Net-(C14-Pad1)*%
X81661000Y-148082000D03*
%TO.P,R18,1*%
%TO.N,Net-(C19-Pad1)*%
X81661000Y-149907000D03*
%TD*%
D26*
%TO.P,C28,2*%
%TO.N,Net-(C28-Pad2)*%
X109452500Y-154686000D03*
%TO.P,C28,1*%
%TO.N,Net-(C28-Pad1)*%
X111527500Y-154686000D03*
%TD*%
D27*
%TO.P,R7,2*%
%TO.N,Net-(R7-Pad2)*%
X103658000Y-131572000D03*
%TO.P,R7,1*%
%TO.N,MOSI*%
X100558000Y-131572000D03*
%TD*%
D28*
%TO.P,Y1,2*%
%TO.N,Net-(C10-Pad2)*%
X87757000Y-123249000D03*
%TO.P,Y1,1*%
%TO.N,Net-(C9-Pad2)*%
X87757000Y-114749000D03*
%TD*%
D25*
%TO.P,R34,2*%
%TO.N,+5V*%
X117729000Y-142216500D03*
%TO.P,R34,1*%
%TO.N,MOSI*%
X117729000Y-144041500D03*
%TD*%
D11*
%TO.P,R33,2*%
%TO.N,+5V*%
X111402500Y-150368000D03*
%TO.P,R33,1*%
%TO.N,LD*%
X109577500Y-150368000D03*
%TD*%
%TO.P,R32,2*%
%TO.N,+3V3*%
X115720500Y-146304000D03*
%TO.P,R32,1*%
%TO.N,LMOSI*%
X113895500Y-146304000D03*
%TD*%
%TO.P,R31,2*%
%TO.N,+3V3*%
X107592500Y-146304000D03*
%TO.P,R31,1*%
%TO.N,LLD*%
X105767500Y-146304000D03*
%TD*%
%TO.P,R30,2*%
%TO.N,+5V*%
X111402500Y-152273000D03*
%TO.P,R30,1*%
%TO.N,SCK*%
X109577500Y-152273000D03*
%TD*%
%TO.P,R29,2*%
%TO.N,+5V*%
X111402500Y-148463000D03*
%TO.P,R29,1*%
%TO.N,SS*%
X109577500Y-148463000D03*
%TD*%
%TO.P,R28,2*%
%TO.N,+3V3*%
X107592500Y-152273000D03*
%TO.P,R28,1*%
%TO.N,LSCK*%
X105767500Y-152273000D03*
%TD*%
%TO.P,R27,2*%
%TO.N,+3V3*%
X111656500Y-146304000D03*
%TO.P,R27,1*%
%TO.N,LSS*%
X109831500Y-146304000D03*
%TD*%
D10*
%TO.P,R20,2*%
%TO.N,+5V*%
X86741000Y-160424500D03*
%TO.P,R20,1*%
%TO.N,Net-(R20-Pad1)*%
X86741000Y-158599500D03*
%TD*%
%TO.P,R19,2*%
%TO.N,Net-(C19-Pad1)*%
X71374000Y-156360500D03*
%TO.P,R19,1*%
%TO.N,Net-(C18-Pad1)*%
X71374000Y-154535500D03*
%TD*%
%TO.P,R12,2*%
%TO.N,Net-(R12-Pad2)*%
X72009000Y-128928500D03*
%TO.P,R12,1*%
%TO.N,Net-(C12-Pad1)*%
X72009000Y-127103500D03*
%TD*%
D25*
%TO.P,R6,2*%
%TO.N,GND*%
X80010000Y-111228500D03*
%TO.P,R6,1*%
%TO.N,Net-(C11-Pad2)*%
X80010000Y-113053500D03*
%TD*%
D22*
%TO.P,Q5,3*%
%TO.N,MOSI*%
X115681000Y-143256000D03*
%TO.P,Q5,2*%
%TO.N,LMOSI*%
X113681000Y-144206000D03*
%TO.P,Q5,1*%
%TO.N,+3V3*%
X113681000Y-142306000D03*
%TD*%
%TO.P,Q4,3*%
%TO.N,LD*%
X107553000Y-143256000D03*
%TO.P,Q4,2*%
%TO.N,LLD*%
X105553000Y-144206000D03*
%TO.P,Q4,1*%
%TO.N,+3V3*%
X105553000Y-142306000D03*
%TD*%
%TO.P,Q3,3*%
%TO.N,SCK*%
X107553000Y-149352000D03*
%TO.P,Q3,2*%
%TO.N,LSCK*%
X105553000Y-150302000D03*
%TO.P,Q3,1*%
%TO.N,+3V3*%
X105553000Y-148402000D03*
%TD*%
%TO.P,Q2,3*%
%TO.N,SS*%
X111617000Y-143256000D03*
%TO.P,Q2,2*%
%TO.N,LSS*%
X109617000Y-144206000D03*
%TO.P,Q2,1*%
%TO.N,+3V3*%
X109617000Y-142306000D03*
%TD*%
D17*
%TO.P,C20,2*%
%TO.N,Net-(C19-Pad1)*%
X74168000Y-156310500D03*
%TO.P,C20,1*%
%TO.N,Net-(C18-Pad1)*%
X74168000Y-154585500D03*
%TD*%
D29*
%TO.P,C12,2*%
%TO.N,GND*%
X70257500Y-124714000D03*
%TO.P,C12,1*%
%TO.N,Net-(C12-Pad1)*%
X71982500Y-124714000D03*
%TD*%
D30*
%TO.P,U3,8*%
%TO.N,ENABLE*%
X70104000Y-132396000D03*
%TO.P,U3,7*%
%TO.N,+5V*%
X68834000Y-132396000D03*
%TO.P,U3,6*%
%TO.N,Net-(R15-Pad2)*%
X67564000Y-132396000D03*
%TO.P,U3,5*%
%TO.N,N/C*%
X66294000Y-132396000D03*
%TO.P,U3,4*%
%TO.N,GND*%
X66294000Y-127446000D03*
%TO.P,U3,3*%
%TO.N,Net-(C11-Pad1)*%
X67564000Y-127446000D03*
%TO.P,U3,2*%
%TO.N,Net-(R12-Pad2)*%
X68834000Y-127446000D03*
%TO.P,U3,1*%
%TO.N,N/C*%
X70104000Y-127446000D03*
%TD*%
D31*
%TO.P,J4,3*%
%TO.N,Net-(J4-Pad3)*%
X113030000Y-136144000D03*
%TO.P,J4,2*%
%TO.N,Net-(J4-Pad2)*%
X110490000Y-136144000D03*
D32*
%TO.P,J4,1*%
%TO.N,GND*%
X107950000Y-136144000D03*
%TD*%
D31*
%TO.P,J7,6*%
%TO.N,GND*%
X103759000Y-134747000D03*
%TO.P,J7,5*%
%TO.N,RST*%
X103759000Y-137287000D03*
%TO.P,J7,4*%
%TO.N,MOSI*%
X101219000Y-134747000D03*
%TO.P,J7,3*%
%TO.N,SCK*%
X101219000Y-137287000D03*
%TO.P,J7,2*%
%TO.N,N/C*%
X98679000Y-134747000D03*
D32*
%TO.P,J7,1*%
%TO.N,MISO*%
X98679000Y-137287000D03*
%TD*%
D18*
%TO.P,J5,5*%
%TO.N,GND*%
X104190800Y-112318800D03*
%TO.P,J5,4*%
%TO.N,Net-(C15-Pad2)*%
X101650800Y-112318800D03*
%TO.P,J5,3*%
%TO.N,Net-(C16-Pad2)*%
X99110800Y-112318800D03*
%TO.P,J5,2*%
%TO.N,GND*%
X96570800Y-112318800D03*
D33*
%TO.P,J5,1*%
%TO.N,Net-(J5-Pad1)*%
X94030800Y-112318800D03*
%TD*%
D34*
%TO.P,R23,2*%
%TO.N,RST*%
X111962600Y-118186200D03*
%TO.P,R23,1*%
%TO.N,+5V*%
X115062600Y-118186200D03*
%TD*%
D35*
%TO.P,R5,2*%
%TO.N,Net-(R5-Pad2)*%
X92506800Y-127203800D03*
%TO.P,R5,1*%
%TO.N,Net-(J3-Pad2)*%
X92506800Y-124103800D03*
%TD*%
D18*
%TO.P,J6,4*%
%TO.N,Net-(J6-Pad4)*%
X112344200Y-130784600D03*
%TO.P,J6,3*%
%TO.N,Net-(J6-Pad3)*%
X112344200Y-128244600D03*
%TO.P,J6,2*%
%TO.N,+5V*%
X112344200Y-125704600D03*
D36*
%TO.P,J6,1*%
%TO.N,GND*%
X112344200Y-123164600D03*
%TD*%
D18*
%TO.P,J3,2*%
%TO.N,Net-(J3-Pad2)*%
X112953800Y-112318800D03*
D33*
%TO.P,J3,1*%
%TO.N,GND*%
X110413800Y-112318800D03*
%TD*%
D29*
%TO.P,C16,2*%
%TO.N,Net-(C16-Pad2)*%
X117806300Y-110490000D03*
%TO.P,C16,1*%
%TO.N,GND*%
X119531300Y-110490000D03*
%TD*%
%TO.P,C15,2*%
%TO.N,Net-(C15-Pad2)*%
X117831700Y-112395000D03*
%TO.P,C15,1*%
%TO.N,GND*%
X119556700Y-112395000D03*
%TD*%
D37*
%TO.P,J2,1*%
%TO.N,Net-(C11-Pad2)*%
X80010000Y-116814600D03*
%TD*%
D38*
%TO.P,U6,2*%
%TO.N,GND*%
X115570000Y-154724500D03*
D39*
%TO.P,U6,3*%
%TO.N,Net-(C32-Pad2)*%
X117070000Y-154812000D03*
%TO.P,U6,1*%
%TO.N,Net-(C28-Pad1)*%
X114070000Y-154812000D03*
%TD*%
D40*
%TO.P,U7,1*%
%TO.N,GND*%
X129540400Y-135040400D03*
%TO.P,U7,3*%
%TO.N,+5V*%
X129540400Y-130440400D03*
%TO.P,U7,2*%
%TO.N,+3V3*%
X129540400Y-132740400D03*
D41*
X123240400Y-132740400D03*
%TD*%
D38*
%TO.P,U4,2*%
%TO.N,GND*%
X97409000Y-158915500D03*
D39*
%TO.P,U4,3*%
%TO.N,Net-(C26-Pad2)*%
X98909000Y-159003000D03*
%TO.P,U4,1*%
%TO.N,Net-(C23-Pad1)*%
X95909000Y-159003000D03*
%TD*%
D42*
%TO.P,U2,16*%
%TO.N,+5V*%
X102938500Y-144029000D03*
%TO.P,U2,15*%
%TO.N,+3V3*%
X102938500Y-144679000D03*
%TO.P,U2,14*%
%TO.N,LLD*%
X102938500Y-145329000D03*
%TO.P,U2,13*%
%TO.N,LSS*%
X102938500Y-145979000D03*
%TO.P,U2,12*%
%TO.N,LMOSI*%
X102938500Y-146629000D03*
%TO.P,U2,11*%
%TO.N,LSCK*%
X102938500Y-147279000D03*
%TO.P,U2,10*%
%TO.N,+3V3*%
X102938500Y-147929000D03*
%TO.P,U2,9*%
%TO.N,GND*%
X102938500Y-148579000D03*
%TO.P,U2,8*%
%TO.N,Net-(C6-Pad1)*%
X97213500Y-148579000D03*
%TO.P,U2,7*%
%TO.N,+3V3*%
X97213500Y-147929000D03*
%TO.P,U2,6*%
%TO.N,RF*%
X97213500Y-147279000D03*
%TO.P,U2,5*%
%TO.N,Net-(C7-Pad1)*%
X97213500Y-146629000D03*
%TO.P,U2,4*%
%TO.N,GND*%
X97213500Y-145979000D03*
%TO.P,U2,3*%
X97213500Y-145329000D03*
%TO.P,U2,2*%
%TO.N,Net-(C14-Pad1)*%
X97213500Y-144679000D03*
%TO.P,U2,1*%
%TO.N,Net-(R13-Pad2)*%
X97213500Y-144029000D03*
%TD*%
D43*
%TO.P,U1,32*%
%TO.N,Net-(C15-Pad2)*%
X96996600Y-119041600D03*
%TO.P,U1,31*%
%TO.N,Net-(J4-Pad3)*%
X97796600Y-119041600D03*
%TO.P,U1,30*%
%TO.N,Net-(J4-Pad2)*%
X98596600Y-119041600D03*
%TO.P,U1,29*%
%TO.N,RST*%
X99396600Y-119041600D03*
%TO.P,U1,28*%
%TO.N,Net-(J6-Pad3)*%
X100196600Y-119041600D03*
%TO.P,U1,27*%
%TO.N,Net-(J6-Pad4)*%
X100996600Y-119041600D03*
%TO.P,U1,26*%
%TO.N,N/C*%
X101796600Y-119041600D03*
%TO.P,U1,25*%
X102596600Y-119041600D03*
D44*
%TO.P,U1,24*%
%TO.N,Net-(R14-Pad2)*%
X104046600Y-120491600D03*
%TO.P,U1,23*%
%TO.N,N/C*%
X104046600Y-121291600D03*
%TO.P,U1,22*%
X104046600Y-122091600D03*
%TO.P,U1,21*%
%TO.N,GND*%
X104046600Y-122891600D03*
%TO.P,U1,20*%
%TO.N,N/C*%
X104046600Y-123691600D03*
%TO.P,U1,19*%
X104046600Y-124491600D03*
%TO.P,U1,18*%
%TO.N,+5V*%
X104046600Y-125291600D03*
%TO.P,U1,17*%
%TO.N,SCK*%
X104046600Y-126091600D03*
D43*
%TO.P,U1,16*%
%TO.N,MISO*%
X102596600Y-127541600D03*
%TO.P,U1,15*%
%TO.N,Net-(R7-Pad2)*%
X101796600Y-127541600D03*
%TO.P,U1,14*%
%TO.N,SS*%
X100996600Y-127541600D03*
%TO.P,U1,13*%
%TO.N,LD*%
X100196600Y-127541600D03*
%TO.P,U1,12*%
%TO.N,Net-(D1-Pad2)*%
X99396600Y-127541600D03*
%TO.P,U1,11*%
%TO.N,N/C*%
X98596600Y-127541600D03*
%TO.P,U1,10*%
%TO.N,ENABLE*%
X97796600Y-127541600D03*
%TO.P,U1,9*%
%TO.N,Net-(R5-Pad2)*%
X96996600Y-127541600D03*
D44*
%TO.P,U1,8*%
%TO.N,Net-(C10-Pad2)*%
X95546600Y-126091600D03*
%TO.P,U1,7*%
%TO.N,Net-(C9-Pad2)*%
X95546600Y-125291600D03*
%TO.P,U1,6*%
%TO.N,+5V*%
X95546600Y-124491600D03*
%TO.P,U1,5*%
%TO.N,GND*%
X95546600Y-123691600D03*
%TO.P,U1,4*%
%TO.N,+5V*%
X95546600Y-122891600D03*
%TO.P,U1,3*%
%TO.N,GND*%
X95546600Y-122091600D03*
%TO.P,U1,2*%
%TO.N,Net-(J5-Pad1)*%
X95546600Y-121291600D03*
%TO.P,U1,1*%
%TO.N,Net-(C16-Pad2)*%
X95546600Y-120491600D03*
%TD*%
D10*
%TO.P,R26,2*%
%TO.N,GND*%
X109728000Y-158392500D03*
%TO.P,R26,1*%
%TO.N,Net-(C28-Pad2)*%
X109728000Y-156567500D03*
%TD*%
D45*
%TO.P,R25,2*%
%TO.N,Net-(C26-Pad1)*%
X105767500Y-154432000D03*
%TO.P,R25,1*%
%TO.N,Net-(C28-Pad2)*%
X107592500Y-154432000D03*
%TD*%
D25*
%TO.P,R24,2*%
%TO.N,Net-(C26-Pad1)*%
X106680000Y-156567500D03*
%TO.P,R24,1*%
%TO.N,GND*%
X106680000Y-158392500D03*
%TD*%
%TO.P,R16,2*%
%TO.N,Net-(C17-Pad1)*%
X79629000Y-144248500D03*
%TO.P,R16,1*%
%TO.N,Net-(C14-Pad1)*%
X79629000Y-146073500D03*
%TD*%
D10*
%TO.P,R15,2*%
%TO.N,Net-(R15-Pad2)*%
X72009000Y-132611500D03*
%TO.P,R15,1*%
%TO.N,Net-(R12-Pad2)*%
X72009000Y-130786500D03*
%TD*%
%TO.P,R17,2*%
%TO.N,Net-(Q1-Pad1)*%
X126365000Y-146835500D03*
%TO.P,R17,1*%
%TO.N,+5V*%
X126365000Y-145010500D03*
%TD*%
D11*
%TO.P,R13,2*%
%TO.N,Net-(R13-Pad2)*%
X98702500Y-142240000D03*
%TO.P,R13,1*%
%TO.N,GND*%
X96877500Y-142240000D03*
%TD*%
D45*
%TO.P,R11,2*%
%TO.N,Net-(R10-Pad2)*%
X63730500Y-124714000D03*
%TO.P,R11,1*%
%TO.N,Net-(C11-Pad1)*%
X65555500Y-124714000D03*
%TD*%
D25*
%TO.P,R10,2*%
%TO.N,Net-(R10-Pad2)*%
X63754000Y-130786500D03*
%TO.P,R10,1*%
%TO.N,+5V*%
X63754000Y-132611500D03*
%TD*%
%TO.P,R14,2*%
%TO.N,Net-(R14-Pad2)*%
X128778000Y-145010500D03*
%TO.P,R14,1*%
%TO.N,Net-(Q1-Pad1)*%
X128778000Y-146835500D03*
%TD*%
D10*
%TO.P,R9,2*%
%TO.N,GND*%
X63754000Y-128801500D03*
%TO.P,R9,1*%
%TO.N,Net-(R10-Pad2)*%
X63754000Y-126976500D03*
%TD*%
D11*
%TO.P,R4,2*%
%TO.N,Net-(D1-Pad1)*%
X95654500Y-135382000D03*
%TO.P,R4,1*%
%TO.N,GND*%
X93829500Y-135382000D03*
%TD*%
D10*
%TO.P,R2,2*%
%TO.N,GND*%
X81661000Y-146073500D03*
%TO.P,R2,1*%
%TO.N,Net-(R1-Pad2)*%
X81661000Y-144248500D03*
%TD*%
D25*
%TO.P,R1,2*%
%TO.N,Net-(R1-Pad2)*%
X83693000Y-144248500D03*
%TO.P,R1,1*%
%TO.N,+3V3*%
X83693000Y-146073500D03*
%TD*%
D46*
%TO.P,L2,2*%
%TO.N,Net-(C32-Pad2)*%
X120650000Y-152386000D03*
%TO.P,L2,1*%
%TO.N,+5VL*%
X120650000Y-150636000D03*
%TD*%
D47*
%TO.P,L1,2*%
%TO.N,Net-(C26-Pad2)*%
X103505000Y-156605000D03*
%TO.P,L1,1*%
%TO.N,+5V*%
X103505000Y-158355000D03*
%TD*%
D48*
%TO.P,J9,2*%
%TO.N,GND*%
X126492000Y-156972000D03*
X126492000Y-151892000D03*
X131572000Y-151892000D03*
X131572000Y-156972000D03*
D49*
%TO.P,J9,1*%
%TO.N,Net-(C32-Pad1)*%
X129032000Y-154432000D03*
%TD*%
D37*
%TO.P,J8,1*%
%TO.N,Net-(C25-Pad1)*%
X125882400Y-116814600D03*
%TD*%
D50*
%TO.P,D1,2*%
%TO.N,Net-(D1-Pad2)*%
X95504000Y-130084500D03*
%TO.P,D1,1*%
%TO.N,Net-(D1-Pad1)*%
X95504000Y-133059500D03*
%TD*%
D29*
%TO.P,C32,2*%
%TO.N,Net-(C32-Pad2)*%
X120650000Y-154432000D03*
%TO.P,C32,1*%
%TO.N,Net-(C32-Pad1)*%
X122375000Y-154432000D03*
%TD*%
D51*
%TO.P,C30,2*%
%TO.N,GND*%
X122809000Y-150675000D03*
%TO.P,C30,1*%
%TO.N,+5VL*%
X122809000Y-152400000D03*
%TD*%
D52*
%TO.P,C33,2*%
%TO.N,GND*%
X118745000Y-137505800D03*
%TO.P,C33,1*%
%TO.N,+3V3*%
X118745000Y-133105800D03*
%TD*%
D29*
%TO.P,C31,2*%
%TO.N,GND*%
X125299300Y-125984000D03*
%TO.P,C31,1*%
%TO.N,+5V*%
X127024300Y-125984000D03*
%TD*%
D52*
%TO.P,C29,2*%
%TO.N,GND*%
X118770400Y-128971400D03*
%TO.P,C29,1*%
%TO.N,+5V*%
X118770400Y-124571400D03*
%TD*%
D29*
%TO.P,C26,2*%
%TO.N,Net-(C26-Pad2)*%
X102007500Y-154432000D03*
%TO.P,C26,1*%
%TO.N,Net-(C26-Pad1)*%
X103732500Y-154432000D03*
%TD*%
D51*
%TO.P,C27,2*%
%TO.N,GND*%
X124129800Y-110619200D03*
%TO.P,C27,1*%
%TO.N,Net-(C25-Pad1)*%
X124129800Y-112344200D03*
%TD*%
D53*
%TO.P,C24,2*%
%TO.N,GND*%
X105256500Y-160528000D03*
%TO.P,C24,1*%
%TO.N,+5V*%
X103531500Y-160528000D03*
%TD*%
D54*
%TO.P,C25,2*%
%TO.N,GND*%
X118745000Y-120621200D03*
%TO.P,C25,1*%
%TO.N,Net-(C25-Pad1)*%
X118745000Y-117021200D03*
%TD*%
D53*
%TO.P,C22,2*%
%TO.N,Net-(C22-Pad2)*%
X91413500Y-154686000D03*
%TO.P,C22,1*%
%TO.N,Net-(C22-Pad1)*%
X89688500Y-154686000D03*
%TD*%
D29*
%TO.P,C23,2*%
%TO.N,Net-(C22-Pad1)*%
X89688500Y-156591000D03*
%TO.P,C23,1*%
%TO.N,Net-(C23-Pad1)*%
X91413500Y-156591000D03*
%TD*%
D55*
%TO.P,C21,2*%
%TO.N,+5V*%
X89750500Y-160020000D03*
%TO.P,C21,1*%
%TO.N,GND*%
X92875500Y-160020000D03*
%TD*%
D51*
%TO.P,C19,2*%
%TO.N,GND*%
X74168000Y-158522500D03*
%TO.P,C19,1*%
%TO.N,Net-(C19-Pad1)*%
X74168000Y-160247500D03*
%TD*%
D56*
%TO.P,C17,2*%
%TO.N,GND*%
X78486000Y-126036000D03*
%TO.P,C17,1*%
%TO.N,Net-(C17-Pad1)*%
X78486000Y-132536000D03*
%TD*%
D53*
%TO.P,C13,2*%
%TO.N,+5V*%
X64616500Y-134874000D03*
%TO.P,C13,1*%
%TO.N,GND*%
X62891500Y-134874000D03*
%TD*%
D29*
%TO.P,C10,2*%
%TO.N,Net-(C10-Pad2)*%
X86513500Y-127000000D03*
%TO.P,C10,1*%
%TO.N,GND*%
X88238500Y-127000000D03*
%TD*%
%TO.P,C9,2*%
%TO.N,Net-(C9-Pad2)*%
X86513500Y-111252000D03*
%TO.P,C9,1*%
%TO.N,GND*%
X88238500Y-111252000D03*
%TD*%
%TO.P,C8,2*%
%TO.N,GND*%
X96927500Y-150368000D03*
%TO.P,C8,1*%
%TO.N,+3V3*%
X98652500Y-150368000D03*
%TD*%
D51*
%TO.P,C4,2*%
%TO.N,+5V*%
X106553000Y-125375500D03*
%TO.P,C4,1*%
%TO.N,GND*%
X106553000Y-127100500D03*
%TD*%
D29*
%TO.P,C7,2*%
%TO.N,GND*%
X91847500Y-145923000D03*
%TO.P,C7,1*%
%TO.N,Net-(C7-Pad1)*%
X93572500Y-145923000D03*
%TD*%
D53*
%TO.P,C5,2*%
%TO.N,GND*%
X103478500Y-150368000D03*
%TO.P,C5,1*%
%TO.N,+3V3*%
X101753500Y-150368000D03*
%TD*%
D51*
%TO.P,C2,2*%
%TO.N,GND*%
X92837000Y-119941000D03*
%TO.P,C2,1*%
%TO.N,+5V*%
X92837000Y-121666000D03*
%TD*%
D29*
%TO.P,C3,2*%
%TO.N,GND*%
X100610500Y-142240000D03*
%TO.P,C3,1*%
%TO.N,+5V*%
X102335500Y-142240000D03*
%TD*%
%TO.P,C1,2*%
%TO.N,+3V3*%
X91847500Y-143891000D03*
%TO.P,C1,1*%
%TO.N,GND*%
X93572500Y-143891000D03*
%TD*%
D57*
%TO.N,GND*%
X90601800Y-145923000D03*
X104394000Y-144653000D03*
D58*
X115570000Y-153162000D03*
X123952000Y-149733000D03*
X105410000Y-159258000D03*
X110998000Y-158496000D03*
X81026000Y-153670000D03*
X81026000Y-154940000D03*
X81026000Y-156210000D03*
X81026000Y-157480000D03*
X81026000Y-158750000D03*
X79756000Y-157480000D03*
X79756000Y-154940000D03*
X79756000Y-156210000D03*
X79756000Y-158750000D03*
X79756000Y-153670000D03*
X82296000Y-157480000D03*
X82296000Y-156210000D03*
X82296000Y-158750000D03*
X82296000Y-154940000D03*
X82296000Y-153670000D03*
X83566000Y-154940000D03*
X83566000Y-156210000D03*
X83566000Y-157480000D03*
X84836000Y-156210000D03*
X84836000Y-154940000D03*
X84836000Y-157480000D03*
X78486000Y-154940000D03*
X78486000Y-156210000D03*
X78486000Y-157480000D03*
X77216000Y-154940000D03*
X77216000Y-156210000D03*
X77216000Y-157480000D03*
X97409000Y-156083000D03*
X97409000Y-157353000D03*
X97409000Y-154813000D03*
X97409000Y-153543000D03*
X96139000Y-153543000D03*
X96139000Y-154813000D03*
X98679000Y-153543000D03*
X98679000Y-154813000D03*
X98679000Y-156083000D03*
X96139000Y-156083000D03*
X94869000Y-156083000D03*
X99949000Y-156083000D03*
X99949000Y-156083000D03*
X99949000Y-153543000D03*
X99949000Y-154813000D03*
X99949000Y-153543000D03*
X99949000Y-154813000D03*
X94869000Y-153543000D03*
X94869000Y-154813000D03*
X97409000Y-152273000D03*
X96139000Y-152273000D03*
X94869000Y-152273000D03*
X98679000Y-152273000D03*
X99949000Y-152273000D03*
X116840000Y-151892000D03*
X118110000Y-151892000D03*
X115570000Y-149352000D03*
X118110000Y-149352000D03*
X113030000Y-148082000D03*
X114300000Y-149352000D03*
X114300000Y-151892000D03*
X118110000Y-149352000D03*
X118110000Y-150622000D03*
X115570000Y-148082000D03*
X118110000Y-151892000D03*
X116840000Y-148082000D03*
X116840000Y-150622000D03*
X113030000Y-149352000D03*
X118110000Y-148082000D03*
X118110000Y-150622000D03*
X114300000Y-150622000D03*
X113030000Y-150622000D03*
X116840000Y-149352000D03*
X115570000Y-150622000D03*
X114300000Y-148082000D03*
X115570000Y-151892000D03*
X75438000Y-157353000D03*
X61722000Y-134874000D03*
X62484000Y-128778000D03*
X78486000Y-123698000D03*
X98298000Y-145796000D03*
X96012000Y-150368000D03*
X97282000Y-123698000D03*
X102514400Y-122910600D03*
X131419600Y-140411200D03*
X131028440Y-135026400D03*
X94742000Y-136525000D03*
X89662000Y-127000000D03*
X89662000Y-111252000D03*
X120802400Y-111429800D03*
X125425200Y-110617000D03*
X127508000Y-140411200D03*
X126238000Y-140411200D03*
X124968000Y-140411200D03*
X123698000Y-140411200D03*
X122428000Y-140411200D03*
X121158000Y-140411200D03*
X119888000Y-140411200D03*
X118618000Y-140411200D03*
X97790000Y-140360400D03*
X93980000Y-140360400D03*
X92710000Y-140360400D03*
X91440000Y-140360400D03*
X90170000Y-140360400D03*
X88900000Y-140360400D03*
X87630000Y-140360400D03*
X86360000Y-140360400D03*
X85090000Y-140360400D03*
X83820000Y-140360400D03*
X82550000Y-140360400D03*
X81280000Y-140360400D03*
X80010000Y-140360400D03*
X77470000Y-140360400D03*
X76200000Y-140360400D03*
X74930000Y-140360400D03*
X73660000Y-140360400D03*
X72390000Y-140360400D03*
X71120000Y-140360400D03*
X65278000Y-140360400D03*
X64008000Y-140360400D03*
X66548000Y-140360400D03*
X62738000Y-140360400D03*
X61468000Y-140360400D03*
X115697000Y-140411200D03*
X114427000Y-140411200D03*
X113157000Y-140411200D03*
X111887000Y-140411200D03*
X110617000Y-140411200D03*
X106553000Y-128270000D03*
X97282000Y-122047000D03*
X125272800Y-127330200D03*
X92837000Y-118618000D03*
X120269000Y-120650000D03*
X120269000Y-129921000D03*
X67818000Y-140360400D03*
X99060000Y-140360400D03*
X105283000Y-140360400D03*
X109347000Y-140411200D03*
X84000000Y-138938000D03*
X84000000Y-137668000D03*
X84000000Y-136398000D03*
X84000000Y-135128000D03*
X84000000Y-133858000D03*
X84000000Y-128270000D03*
X84000000Y-127000000D03*
X84000000Y-124460000D03*
X84000000Y-123190000D03*
X84000000Y-121920000D03*
X84000000Y-120650000D03*
X84000000Y-119380000D03*
X84000000Y-118110000D03*
X84000000Y-116840000D03*
X84000000Y-115570000D03*
X84000000Y-114300000D03*
X84000000Y-113030000D03*
X84000000Y-111760000D03*
X84000000Y-110490000D03*
X66294000Y-129032000D03*
X81381600Y-111252000D03*
X68834000Y-124714000D03*
X86487000Y-150495000D03*
D57*
X94869000Y-144145000D03*
D58*
X92329000Y-158242000D03*
D57*
X100203000Y-145161000D03*
X103632000Y-141986000D03*
X104521000Y-150876000D03*
X104521000Y-152527000D03*
X101981000Y-148971000D03*
D58*
X82613500Y-147066000D03*
X95250000Y-140360400D03*
X100330000Y-140360400D03*
X103251000Y-140360400D03*
X106680000Y-140360400D03*
X84000000Y-132588000D03*
X84000000Y-131318000D03*
X61976000Y-145669000D03*
D57*
X74295000Y-143573500D03*
D58*
X113030000Y-151892000D03*
%TO.N,+5V*%
X116840000Y-127889000D03*
X100584000Y-143510000D03*
X64643000Y-136398000D03*
%TO.N,+3V3*%
X100991000Y-147929000D03*
D57*
X107961009Y-141977797D03*
X112649000Y-146304000D03*
X116967000Y-146304000D03*
X108712000Y-146812000D03*
X90678000Y-144526000D03*
X98679000Y-149255473D03*
D58*
X120990000Y-133105800D03*
D57*
%TO.N,SCK*%
X106680000Y-149352000D03*
%TO.N,SS*%
X100838000Y-129032000D03*
X111887000Y-144145000D03*
%TO.N,LD*%
X107696000Y-150876000D03*
X107696000Y-144399000D03*
D58*
%TO.N,Net-(R14-Pad2)*%
X126238000Y-135001000D03*
X106172000Y-120523000D03*
%TD*%
D59*
%TO.N,GND*%
X81031000Y-158755000D02*
X81026000Y-158750000D01*
X81031000Y-160225000D02*
X81031000Y-158755000D01*
X82296000Y-158960000D02*
X81031000Y-160225000D01*
X82296000Y-158750000D02*
X82296000Y-158960000D01*
X79756000Y-158950000D02*
X81031000Y-160225000D01*
X79756000Y-158750000D02*
X79756000Y-158950000D01*
X82296000Y-153670000D02*
X82076000Y-153670000D01*
X79756000Y-153670000D02*
X79986000Y-153670000D01*
X63754000Y-128801500D02*
X64031500Y-128801500D01*
X63730500Y-128778000D02*
X63754000Y-128801500D01*
X62484000Y-128778000D02*
X63730500Y-128778000D01*
X61722000Y-134874000D02*
X62891500Y-134874000D01*
X97282000Y-145796000D02*
X97213500Y-145727500D01*
X97213500Y-145727500D02*
X97213500Y-145979000D01*
X97213500Y-145329000D02*
X97213500Y-145727500D01*
X96012000Y-150368000D02*
X96927500Y-150368000D01*
X104027600Y-122910600D02*
X104046600Y-122891600D01*
X102514400Y-122910600D02*
X104027600Y-122910600D01*
X131278600Y-135040400D02*
X131292600Y-135026400D01*
X129540400Y-135040400D02*
X131278600Y-135040400D01*
X119862600Y-110490000D02*
X120802400Y-111429800D01*
X119531300Y-110490000D02*
X119862600Y-110490000D01*
X119837200Y-112395000D02*
X120802400Y-111429800D01*
X119556700Y-112395000D02*
X119837200Y-112395000D01*
X125423000Y-110619200D02*
X125425200Y-110617000D01*
X124129800Y-110619200D02*
X125423000Y-110619200D01*
X118745000Y-140284200D02*
X118618000Y-140411200D01*
X118745000Y-137505800D02*
X118745000Y-140284200D01*
X115011200Y-140462000D02*
X115062000Y-140411200D01*
X96877500Y-140717900D02*
X96520000Y-140360400D01*
X96877500Y-142240000D02*
X96877500Y-140717900D01*
X97213500Y-145727500D02*
X98610500Y-145727500D01*
X106553000Y-128270000D02*
X106553000Y-127100500D01*
X95540200Y-123698000D02*
X95546600Y-123691600D01*
X97110400Y-122091600D02*
X97155000Y-122047000D01*
X97148600Y-123691600D02*
X97155000Y-123698000D01*
X97275600Y-123691600D02*
X97282000Y-123698000D01*
X95546600Y-123691600D02*
X97275600Y-123691600D01*
X97237400Y-122091600D02*
X97282000Y-122047000D01*
X95546600Y-122091600D02*
X97237400Y-122091600D01*
X92837000Y-119941000D02*
X92837000Y-118618000D01*
X118773800Y-120650000D02*
X118745000Y-120621200D01*
X120269000Y-120650000D02*
X118773800Y-120650000D01*
X119720000Y-129921000D02*
X118770400Y-128971400D01*
X120269000Y-129921000D02*
X119720000Y-129921000D01*
X123010000Y-150675000D02*
X123952000Y-149733000D01*
X122809000Y-150675000D02*
X123010000Y-150675000D01*
X98211976Y-140360400D02*
X97790000Y-140360400D01*
X78486000Y-123698000D02*
X78486000Y-126036000D01*
X110894500Y-158392500D02*
X110998000Y-158496000D01*
X109728000Y-158392500D02*
X110894500Y-158392500D01*
X66294000Y-129032000D02*
X66294000Y-127446000D01*
X80033500Y-111252000D02*
X80010000Y-111228500D01*
X81381600Y-111252000D02*
X80033500Y-111252000D01*
X68834000Y-124714000D02*
X70257500Y-124714000D01*
X74268500Y-158522500D02*
X75438000Y-157353000D01*
X74168000Y-158522500D02*
X74268500Y-158522500D01*
X88238500Y-111252000D02*
X89662000Y-111252000D01*
X88238500Y-127000000D02*
X89662000Y-127000000D01*
D60*
X105256500Y-159411500D02*
X105410000Y-159258000D01*
X105256500Y-160655000D02*
X105256500Y-159411500D01*
X106275500Y-158392500D02*
X105410000Y-159258000D01*
X106680000Y-158392500D02*
X106275500Y-158392500D01*
X80801000Y-152625000D02*
X79756000Y-153670000D01*
X81031000Y-152625000D02*
X80801000Y-152625000D01*
X81031000Y-153665000D02*
X81026000Y-153670000D01*
X81031000Y-152625000D02*
X81031000Y-153665000D01*
X81251000Y-152625000D02*
X82296000Y-153670000D01*
X81031000Y-152625000D02*
X81251000Y-152625000D01*
X86392000Y-150400000D02*
X86487000Y-150495000D01*
X86392000Y-148580000D02*
X86392000Y-150400000D01*
D61*
X94615000Y-143891000D02*
X94869000Y-144145000D01*
X93572500Y-143891000D02*
X94615000Y-143891000D01*
X93572500Y-144198000D02*
X91847500Y-145923000D01*
X93572500Y-143891000D02*
X93572500Y-144198000D01*
X92875500Y-158788500D02*
X92329000Y-158242000D01*
X92875500Y-160020000D02*
X92875500Y-158788500D01*
X99568000Y-145796000D02*
X100203000Y-145161000D01*
X98298000Y-145796000D02*
X99568000Y-145796000D01*
X103632000Y-142572122D02*
X103632000Y-141986000D01*
X104394000Y-143334122D02*
X103632000Y-142572122D01*
X104394000Y-144653000D02*
X104394000Y-143334122D01*
X104013000Y-150368000D02*
X104521000Y-150876000D01*
X103478500Y-150368000D02*
X104013000Y-150368000D01*
X104521000Y-150876000D02*
X104521000Y-152527000D01*
X103478500Y-149119000D02*
X102938500Y-148579000D01*
X103478500Y-150368000D02*
X103478500Y-149119000D01*
X102373000Y-148579000D02*
X101981000Y-148971000D01*
X102938500Y-148579000D02*
X102373000Y-148579000D01*
X81637500Y-146050000D02*
X81661000Y-146073500D01*
X81661000Y-146073500D02*
X81811500Y-146073500D01*
D59*
X100610500Y-140640900D02*
X100330000Y-140360400D01*
X100610500Y-142240000D02*
X100610500Y-140640900D01*
D61*
X74295000Y-145774000D02*
X74295000Y-143573500D01*
X74295000Y-143573500D02*
X74295000Y-143573500D01*
X94742000Y-136525000D02*
X95377000Y-136525000D01*
X95654500Y-136802500D02*
X95654500Y-137541000D01*
X95377000Y-136525000D02*
X95654500Y-136802500D01*
X94742000Y-136525000D02*
X94107000Y-136525000D01*
X93829500Y-136247500D02*
X93829500Y-135382000D01*
X94107000Y-136525000D02*
X93829500Y-136247500D01*
D59*
X64208000Y-145669000D02*
X64282000Y-145743000D01*
X61976000Y-145669000D02*
X64208000Y-145669000D01*
X129464200Y-123698000D02*
X129214200Y-123698000D01*
D60*
X125272800Y-126010500D02*
X125299300Y-125984000D01*
X125272800Y-127330200D02*
X125272800Y-126010500D01*
D61*
X81661000Y-146113500D02*
X82613500Y-147066000D01*
X81661000Y-146073500D02*
X81661000Y-146113500D01*
X91847500Y-145923000D02*
X90601800Y-145923000D01*
D60*
%TO.N,+5V*%
X64616500Y-133474000D02*
X63754000Y-132611500D01*
X64616500Y-134874000D02*
X64616500Y-133474000D01*
D59*
X96746600Y-124491600D02*
X95546600Y-124491600D01*
X97546600Y-125291600D02*
X96746600Y-124491600D01*
X104046600Y-125291600D02*
X97546600Y-125291600D01*
D60*
X118770400Y-124571400D02*
X117394990Y-125946810D01*
D59*
X102362000Y-143352490D02*
X102938500Y-143928990D01*
X102362000Y-142240000D02*
X102362000Y-143352490D01*
X93968999Y-122797999D02*
X92837000Y-121666000D01*
X95452999Y-122797999D02*
X93968999Y-122797999D01*
X95546600Y-122891600D02*
X95452999Y-122797999D01*
X94551598Y-124491600D02*
X95546600Y-124491600D01*
X94346599Y-124286601D02*
X94551598Y-124491600D01*
X94346599Y-123096599D02*
X94346599Y-124286601D01*
X94551598Y-122891600D02*
X94346599Y-123096599D01*
X95546600Y-122891600D02*
X94551598Y-122891600D01*
D60*
X117394990Y-125946810D02*
X117394990Y-127935990D01*
X117394990Y-127935990D02*
X117394990Y-141349090D01*
X64616500Y-136371500D02*
X64643000Y-136398000D01*
X64616500Y-134874000D02*
X64616500Y-136371500D01*
X117394990Y-121407590D02*
X115062600Y-119075200D01*
X117394990Y-123195990D02*
X117394990Y-121407590D01*
X118770400Y-124571400D02*
X117394990Y-123195990D01*
X115062600Y-119075200D02*
X115062600Y-118186200D01*
X111154127Y-132204601D02*
X108508800Y-129559274D01*
X113025801Y-132204601D02*
X111154127Y-132204601D01*
X113764201Y-131466201D02*
X113025801Y-132204601D01*
X113764201Y-127124601D02*
X113764201Y-131466201D01*
X112344200Y-125704600D02*
X113764201Y-127124601D01*
X108508800Y-129559274D02*
X108508800Y-126365000D01*
X107519300Y-125375500D02*
X106553000Y-125375500D01*
X108508800Y-126365000D02*
X107519300Y-125375500D01*
D59*
X104130500Y-125375500D02*
X104046600Y-125291600D01*
X106553000Y-125375500D02*
X104130500Y-125375500D01*
D60*
X116886990Y-127935990D02*
X116840000Y-127889000D01*
X117394990Y-127935990D02*
X116886990Y-127935990D01*
X102204490Y-143510000D02*
X102362000Y-143352490D01*
X100584000Y-143510000D02*
X102204490Y-143510000D01*
X117394990Y-141778990D02*
X117394990Y-141349090D01*
X68834000Y-132396000D02*
X68834000Y-131064000D01*
X68834000Y-131064000D02*
X68326000Y-130556000D01*
X65809500Y-130556000D02*
X63754000Y-132611500D01*
X68326000Y-130556000D02*
X65809500Y-130556000D01*
X103531500Y-158381500D02*
X103505000Y-158355000D01*
X103531500Y-160655000D02*
X103531500Y-158381500D01*
X89346000Y-160424500D02*
X89750500Y-160020000D01*
X86741000Y-160424500D02*
X89346000Y-160424500D01*
X91200510Y-161470010D02*
X89750500Y-160020000D01*
X102716490Y-161470010D02*
X91200510Y-161470010D01*
X103531500Y-160655000D02*
X102716490Y-161470010D01*
D61*
X111402500Y-148463000D02*
X111402500Y-150368000D01*
X111402500Y-150368000D02*
X111402500Y-152273000D01*
X104305010Y-157554990D02*
X103505000Y-158355000D01*
X110058876Y-157554990D02*
X104305010Y-157554990D01*
X110553010Y-157060856D02*
X110058876Y-157554990D01*
X110553010Y-153745444D02*
X110553010Y-157060856D01*
X111402500Y-152895954D02*
X110553010Y-153745444D01*
X111402500Y-152273000D02*
X111402500Y-152895954D01*
D60*
X130683000Y-153482002D02*
X128778000Y-151577002D01*
X130683000Y-155260002D02*
X130683000Y-153482002D01*
X124387992Y-161555010D02*
X130683000Y-155260002D01*
X104558510Y-161555010D02*
X124387992Y-161555010D01*
X103531500Y-160528000D02*
X104558510Y-161555010D01*
X117729000Y-142113000D02*
X117394990Y-141778990D01*
X117729000Y-142216500D02*
X117729000Y-142113000D01*
D59*
X126264000Y-144909500D02*
X126365000Y-145010500D01*
D60*
X128778000Y-151577002D02*
X128778000Y-149733000D01*
X128778000Y-149733000D02*
X130810000Y-147701000D01*
X130810000Y-147701000D02*
X130810000Y-142494000D01*
X126365000Y-145010500D02*
X126365000Y-142875000D01*
X125796000Y-142306000D02*
X123237500Y-142306000D01*
X126365000Y-142875000D02*
X125796000Y-142306000D01*
X129336800Y-125984000D02*
X129755900Y-125564900D01*
X127024300Y-125984000D02*
X129336800Y-125984000D01*
X129540400Y-125780400D02*
X129755900Y-125564900D01*
X129540400Y-130440400D02*
X129540400Y-125780400D01*
X126086700Y-124571400D02*
X118770400Y-124571400D01*
X127024300Y-125509000D02*
X126086700Y-124571400D01*
X127024300Y-125984000D02*
X127024300Y-125509000D01*
X130369599Y-142053599D02*
X130369599Y-142033279D01*
X130810000Y-142494000D02*
X130369599Y-142053599D01*
X130369599Y-142033279D02*
X129961640Y-141625320D01*
X129961640Y-141625320D02*
X129961640Y-138800840D01*
X131240400Y-130440400D02*
X129540400Y-130440400D01*
X132078441Y-131278441D02*
X131240400Y-130440400D01*
X132078441Y-136684039D02*
X132078441Y-131278441D01*
X129961640Y-138800840D02*
X132078441Y-136684039D01*
X117818500Y-142306000D02*
X117729000Y-142216500D01*
X123237500Y-142306000D02*
X117818500Y-142306000D01*
D61*
%TO.N,+3V3*%
X98008124Y-147929000D02*
X97213500Y-147929000D01*
D59*
X98652500Y-148573376D02*
X98008124Y-147929000D01*
X100939000Y-149553500D02*
X101753500Y-150368000D01*
X100991000Y-147929000D02*
X102938500Y-147929000D01*
X100939000Y-147981000D02*
X100939000Y-149553500D01*
D60*
X129540400Y-132740400D02*
X123240400Y-132740400D01*
X122875000Y-133105800D02*
X123240400Y-132740400D01*
X100939000Y-147981000D02*
X100991000Y-147929000D01*
X120990000Y-133105800D02*
X122875000Y-133105800D01*
X118745000Y-133105800D02*
X120990000Y-133105800D01*
D59*
X99314000Y-147828000D02*
X99415000Y-147929000D01*
X99415000Y-147929000D02*
X100939000Y-147929000D01*
X97213500Y-147929000D02*
X99415000Y-147929000D01*
X102938500Y-144673400D02*
X102907099Y-144641999D01*
X102938500Y-144679000D02*
X102938500Y-144673400D01*
X87698500Y-146073500D02*
X88992000Y-144780000D01*
X83693000Y-146073500D02*
X87698500Y-146073500D01*
D61*
X89881000Y-143891000D02*
X88992000Y-144780000D01*
X90424000Y-143891000D02*
X89881000Y-143891000D01*
X90424000Y-143891000D02*
X90424000Y-143891000D01*
X109617000Y-142306000D02*
X113681000Y-142306000D01*
X105553000Y-142306000D02*
X108011000Y-142306000D01*
X108011000Y-142306000D02*
X109617000Y-142306000D01*
X110070856Y-149542990D02*
X110415010Y-149887144D01*
X109223992Y-149542990D02*
X110070856Y-149542990D01*
X108083002Y-148402000D02*
X109223992Y-149542990D01*
X105553000Y-148402000D02*
X108083002Y-148402000D01*
X110403030Y-151447990D02*
X110415010Y-151436010D01*
X108417510Y-151447990D02*
X110403030Y-151447990D01*
X107592500Y-152273000D02*
X108417510Y-151447990D01*
X110415010Y-149887144D02*
X110415010Y-151436010D01*
X111656500Y-146304000D02*
X112649000Y-146304000D01*
X115720500Y-146304000D02*
X116967000Y-146304000D01*
X101753500Y-151283500D02*
X101753500Y-150368000D01*
X109561876Y-153606990D02*
X104076990Y-153606990D01*
X110415010Y-152753856D02*
X109561876Y-153606990D01*
X104076990Y-153606990D02*
X101753500Y-151283500D01*
X110415010Y-151436010D02*
X110415010Y-152753856D01*
X108204000Y-146304000D02*
X108712000Y-146812000D01*
X107592500Y-146304000D02*
X108204000Y-146304000D01*
X102214586Y-144679000D02*
X102938500Y-144679000D01*
X100991000Y-145902586D02*
X102214586Y-144679000D01*
X100991000Y-147929000D02*
X100991000Y-145902586D01*
X90678000Y-143891000D02*
X90678000Y-144526000D01*
X91847500Y-143891000D02*
X90678000Y-143891000D01*
X90678000Y-143891000D02*
X90424000Y-143891000D01*
X98783473Y-149255473D02*
X98652500Y-149124500D01*
D59*
X98652500Y-149124500D02*
X98652500Y-148573376D01*
X98652500Y-150368000D02*
X98652500Y-149124500D01*
D61*
X107961009Y-142256009D02*
X108011000Y-142306000D01*
X107961009Y-141977797D02*
X107961009Y-142256009D01*
X83705700Y-146086200D02*
X83693000Y-146073500D01*
X83705700Y-148069300D02*
X83705700Y-146086200D01*
D59*
%TO.N,Net-(C10-Pad2)*%
X86513500Y-124492500D02*
X87757000Y-123249000D01*
X86513500Y-127000000D02*
X86513500Y-124492500D01*
X91701802Y-126091600D02*
X89916000Y-124305798D01*
X95546600Y-126091600D02*
X91701802Y-126091600D01*
X89916000Y-124305798D02*
X89916000Y-123698000D01*
X89467000Y-123249000D02*
X87757000Y-123249000D01*
X89916000Y-123698000D02*
X89467000Y-123249000D01*
D61*
%TO.N,Net-(C11-Pad2)*%
X80010000Y-113053500D02*
X80010000Y-116814600D01*
X79908400Y-116713000D02*
X80010000Y-116814600D01*
X72285000Y-116713000D02*
X79908400Y-116713000D01*
%TO.N,Net-(C14-Pad1)*%
X81525144Y-143065990D02*
X94899992Y-143065990D01*
X80835990Y-143755144D02*
X81525144Y-143065990D01*
X94899992Y-143065990D02*
X95631000Y-143796998D01*
X81661000Y-148082000D02*
X80835990Y-147256990D01*
X95631000Y-143796998D02*
X95631000Y-144399000D01*
X95911000Y-144679000D02*
X97213500Y-144679000D01*
X95631000Y-144399000D02*
X95911000Y-144679000D01*
X80795500Y-146073500D02*
X80835990Y-146113990D01*
X79629000Y-146073500D02*
X80795500Y-146073500D01*
X80835990Y-146113990D02*
X80835990Y-143755144D01*
X80835990Y-147256990D02*
X80835990Y-146113990D01*
X75587000Y-148082000D02*
X74295000Y-149374000D01*
X81661000Y-148082000D02*
X75587000Y-148082000D01*
%TO.N,RF*%
X87757000Y-150823300D02*
X89638500Y-152704800D01*
X88074990Y-147129010D02*
X87757000Y-147447000D01*
X96339596Y-147129010D02*
X88074990Y-147129010D01*
X87757000Y-147447000D02*
X87757000Y-150823300D01*
X96489586Y-147279000D02*
X96339596Y-147129010D01*
X97213500Y-147279000D02*
X96489586Y-147279000D01*
D60*
%TO.N,+5VL*%
X122444130Y-152400000D02*
X122809000Y-152400000D01*
X120680130Y-150636000D02*
X122444130Y-152400000D01*
X120650000Y-150636000D02*
X120680130Y-150636000D01*
X120650000Y-143843500D02*
X121237500Y-143256000D01*
X120650000Y-150636000D02*
X120650000Y-143843500D01*
D59*
%TO.N,Net-(D1-Pad2)*%
X99396600Y-128536602D02*
X97848702Y-130084500D01*
X97848702Y-130084500D02*
X95504000Y-130084500D01*
X99396600Y-127541600D02*
X99396600Y-128536602D01*
D61*
X91276500Y-130084500D02*
X88138000Y-133223000D01*
X95504000Y-130084500D02*
X91276500Y-130084500D01*
D59*
%TO.N,Net-(D1-Pad1)*%
X95504000Y-133059500D02*
X95504000Y-133123300D01*
D61*
X95654500Y-133210000D02*
X95504000Y-133059500D01*
X95654500Y-135382000D02*
X95654500Y-133210000D01*
D59*
%TO.N,MOSI*%
X100558000Y-134797200D02*
X101219000Y-135458200D01*
X100558000Y-131572000D02*
X100558000Y-134797200D01*
D61*
X116943500Y-143256000D02*
X117729000Y-144041500D01*
X115681000Y-143256000D02*
X116943500Y-143256000D01*
X115681000Y-142556000D02*
X115681000Y-143256000D01*
X114680999Y-141555999D02*
X115681000Y-142556000D01*
X108789999Y-141555999D02*
X114680999Y-141555999D01*
X108458000Y-139573000D02*
X108458000Y-141224000D01*
X107372001Y-138487001D02*
X108458000Y-139573000D01*
X100642999Y-138487001D02*
X107372001Y-138487001D01*
X100018999Y-137863001D02*
X100642999Y-138487001D01*
X100018999Y-135947001D02*
X100018999Y-137863001D01*
X108458000Y-141224000D02*
X108789999Y-141555999D01*
X101219000Y-134747000D02*
X100018999Y-135947001D01*
D59*
%TO.N,RST*%
X113507133Y-133315009D02*
X115001610Y-131820532D01*
X109566010Y-133315010D02*
X113507133Y-133315009D01*
X109254990Y-133315010D02*
X109566010Y-133315010D01*
X110053484Y-118186200D02*
X111962600Y-118186200D01*
X108193066Y-116325782D02*
X110053484Y-118186200D01*
X100863876Y-116325782D02*
X108193066Y-116325782D01*
X99396600Y-117793058D02*
X100863876Y-116325782D01*
X99396600Y-119041600D02*
X99396600Y-117793058D01*
X111962600Y-119616538D02*
X111962600Y-118186200D01*
X114514211Y-122168149D02*
X114473531Y-122127469D01*
X114514211Y-128592297D02*
X114514211Y-122168149D01*
X115001610Y-129079696D02*
X114514211Y-128592297D01*
X115001610Y-131820532D02*
X115001610Y-129079696D01*
X114473531Y-122127469D02*
X111962600Y-119616538D01*
X107222990Y-133315010D02*
X106035410Y-134502590D01*
X109566010Y-133315010D02*
X107222990Y-133315010D01*
X104775000Y-137287000D02*
X106035410Y-136026590D01*
X103759000Y-137287000D02*
X104775000Y-137287000D01*
X106035410Y-134502590D02*
X106035410Y-136026590D01*
%TO.N,SCK*%
X104046600Y-126091600D02*
X105435400Y-127480400D01*
D61*
X106754990Y-150150010D02*
X107553000Y-149352000D01*
X106754990Y-152753856D02*
X106754990Y-150150010D01*
X107553000Y-149352000D02*
X106680000Y-149352000D01*
D59*
X105435400Y-127480400D02*
X105435400Y-129946400D01*
D61*
X108752490Y-153098010D02*
X109577500Y-152273000D01*
X107099144Y-153098010D02*
X108752490Y-153098010D01*
X106754990Y-152753856D02*
X107099144Y-153098010D01*
D59*
X105435400Y-129946400D02*
X105435400Y-135102600D01*
X101219000Y-137287000D02*
X102508999Y-135997001D01*
X104540999Y-135997001D02*
X105435400Y-135102600D01*
X102508999Y-135997001D02*
X104540999Y-135997001D01*
%TO.N,MISO*%
X104708010Y-128965010D02*
X103284600Y-127541600D01*
X101608010Y-131466266D02*
X102988754Y-132847010D01*
X101608010Y-130677754D02*
X101608010Y-131466266D01*
X104708010Y-132466246D02*
X104708010Y-128965010D01*
X104327246Y-132847010D02*
X104708010Y-132466246D01*
X101227246Y-130296990D02*
X101608010Y-130677754D01*
X99888754Y-130296990D02*
X101227246Y-130296990D01*
X97428999Y-132756745D02*
X99888754Y-130296990D01*
X102988754Y-132847010D02*
X104327246Y-132847010D01*
X97428999Y-136036999D02*
X97428999Y-132756745D01*
X103284600Y-127541600D02*
X102596600Y-127541600D01*
X98679000Y-137287000D02*
X97428999Y-136036999D01*
%TO.N,Net-(R1-Pad2)*%
X81661000Y-144248500D02*
X83693000Y-144248500D01*
X85860500Y-144248500D02*
X86392000Y-144780000D01*
X83693000Y-144248500D02*
X85860500Y-144248500D01*
%TO.N,ENABLE*%
X97796600Y-128536602D02*
X97796600Y-127541600D01*
X97361212Y-128971990D02*
X97796600Y-128536602D01*
X90510010Y-128971990D02*
X97361212Y-128971990D01*
X89688000Y-129794000D02*
X90510010Y-128971990D01*
X75565000Y-129794000D02*
X89688000Y-129794000D01*
X73684990Y-131674010D02*
X75565000Y-129794000D01*
X70825990Y-131674010D02*
X73684990Y-131674010D01*
X70104000Y-132396000D02*
X70825990Y-131674010D01*
%TO.N,SS*%
X100996600Y-128873400D02*
X100838000Y-129032000D01*
X100996600Y-127541600D02*
X100996600Y-128873400D01*
D61*
X114211002Y-143256000D02*
X111617000Y-143256000D01*
X114733010Y-146784856D02*
X114733010Y-143778008D01*
X114388856Y-147129010D02*
X114733010Y-146784856D01*
X111398990Y-147129010D02*
X114388856Y-147129010D01*
X114733010Y-143778008D02*
X114211002Y-143256000D01*
X110065000Y-148463000D02*
X111398990Y-147129010D01*
X109577500Y-148463000D02*
X110065000Y-148463000D01*
X111617000Y-143875000D02*
X111887000Y-144145000D01*
X111617000Y-143256000D02*
X111617000Y-143875000D01*
%TO.N,Net-(C19-Pad1)*%
X74190500Y-160225000D02*
X74168000Y-160247500D01*
X78031000Y-160225000D02*
X74190500Y-160225000D01*
X74168000Y-156310500D02*
X75083500Y-156310500D01*
X75083500Y-156310500D02*
X75946000Y-155448000D01*
X75946000Y-155448000D02*
X75946000Y-151511000D01*
X77550000Y-149907000D02*
X81661000Y-149907000D01*
X75946000Y-151511000D02*
X77550000Y-149907000D01*
X71424000Y-156310500D02*
X71374000Y-156360500D01*
X72670500Y-158750000D02*
X74168000Y-160247500D01*
X72670500Y-156310500D02*
X72670500Y-158750000D01*
X74168000Y-156310500D02*
X72670500Y-156310500D01*
X72670500Y-156310500D02*
X71424000Y-156310500D01*
X81673700Y-149894300D02*
X81661000Y-149907000D01*
X83705700Y-149894300D02*
X81673700Y-149894300D01*
D59*
%TO.N,Net-(C23-Pad1)*%
X95909000Y-159003000D02*
X94614000Y-159003000D01*
X92202000Y-156591000D02*
X91413500Y-156591000D01*
X94614000Y-159003000D02*
X92202000Y-156591000D01*
%TO.N,Net-(J3-Pad2)*%
X112953800Y-110871000D02*
X112953800Y-112318800D01*
X112496600Y-110413800D02*
X112953800Y-110871000D01*
X92887800Y-110413800D02*
X112496600Y-110413800D01*
X91936999Y-111364601D02*
X92887800Y-110413800D01*
X91936999Y-123533999D02*
X91936999Y-111364601D01*
X92506800Y-124103800D02*
X91936999Y-123533999D01*
%TO.N,Net-(R10-Pad2)*%
X63730500Y-126953000D02*
X63754000Y-126976500D01*
X63730500Y-124714000D02*
X63730500Y-126953000D01*
X64631510Y-129908990D02*
X63754000Y-130786500D01*
X64631510Y-127854010D02*
X64631510Y-129908990D01*
X63754000Y-126976500D02*
X64631510Y-127854010D01*
%TO.N,Net-(R13-Pad2)*%
X98702500Y-142240000D02*
X98702500Y-143613500D01*
X98287000Y-144029000D02*
X97213500Y-144029000D01*
X98702500Y-143613500D02*
X98287000Y-144029000D01*
D61*
%TO.N,Net-(C7-Pad1)*%
X94278500Y-146629000D02*
X93572500Y-145923000D01*
X97213500Y-146629000D02*
X94278500Y-146629000D01*
D59*
%TO.N,Net-(C9-Pad2)*%
X86513500Y-113505500D02*
X87757000Y-114749000D01*
X86513500Y-111252000D02*
X86513500Y-113505500D01*
X91750344Y-125291600D02*
X90805000Y-124346256D01*
X95546600Y-125291600D02*
X91750344Y-125291600D01*
X90805000Y-124346256D02*
X90805000Y-115697000D01*
X89857000Y-114749000D02*
X87757000Y-114749000D01*
X90805000Y-115697000D02*
X89857000Y-114749000D01*
%TO.N,Net-(C11-Pad1)*%
X67564000Y-126722500D02*
X65555500Y-124714000D01*
X67564000Y-127446000D02*
X67564000Y-126722500D01*
D61*
X65555500Y-119842500D02*
X68685000Y-116713000D01*
X65555500Y-124714000D02*
X65555500Y-119842500D01*
D59*
%TO.N,Net-(C12-Pad1)*%
X72009000Y-124740500D02*
X71982500Y-124714000D01*
X72009000Y-127103500D02*
X72009000Y-124740500D01*
%TO.N,Net-(C16-Pad2)*%
X95546600Y-120491600D02*
X95546600Y-117203800D01*
X99110800Y-112318800D02*
X99110800Y-113639600D01*
X99110800Y-113639600D02*
X98945700Y-113804700D01*
X98945700Y-113804700D02*
X99034600Y-113715800D01*
X95546600Y-117203800D02*
X98945700Y-113804700D01*
X100380801Y-111048799D02*
X104800401Y-111048799D01*
X104800401Y-111048799D02*
X105867200Y-112115598D01*
X99110800Y-112318800D02*
X100380801Y-111048799D01*
X105867200Y-113461800D02*
X106331143Y-113925743D01*
X105867200Y-112115598D02*
X105867200Y-113461800D01*
X106331143Y-113925743D02*
X109187196Y-113925744D01*
X109187196Y-113925744D02*
X110372612Y-115111160D01*
X110372612Y-115111160D02*
X115520840Y-115111160D01*
X115520840Y-115111160D02*
X116230400Y-114401600D01*
X116230400Y-114401600D02*
X116230400Y-111201200D01*
X116941600Y-110490000D02*
X117806300Y-110490000D01*
X116230400Y-111201200D02*
X116941600Y-110490000D01*
D61*
%TO.N,Net-(C18-Pad1)*%
X74118000Y-154535500D02*
X74168000Y-154585500D01*
X71374000Y-154535500D02*
X74118000Y-154535500D01*
D59*
X68689000Y-154535500D02*
X65595500Y-157629000D01*
X71374000Y-154535500D02*
X68689000Y-154535500D01*
D60*
%TO.N,Net-(C25-Pad1)*%
X125882400Y-115951000D02*
X125882400Y-116814600D01*
X125196600Y-115265200D02*
X125882400Y-115951000D01*
X118745000Y-117021200D02*
X120501000Y-115265200D01*
X124129800Y-115138200D02*
X124256800Y-115265200D01*
X124129800Y-112344200D02*
X124129800Y-115138200D01*
X124256800Y-115265200D02*
X125196600Y-115265200D01*
X120501000Y-115265200D02*
X124256800Y-115265200D01*
X129552700Y-120484900D02*
X125882400Y-116814600D01*
X129755900Y-120484900D02*
X129552700Y-120484900D01*
D61*
%TO.N,LSS*%
X109831500Y-144420500D02*
X109617000Y-144206000D01*
X106754990Y-146634876D02*
X106754990Y-145823144D01*
X106260856Y-147129010D02*
X106754990Y-146634876D01*
X106754990Y-145823144D02*
X107139634Y-145438500D01*
X104124134Y-145979000D02*
X105274144Y-147129010D01*
X102938500Y-145979000D02*
X104124134Y-145979000D01*
X109831500Y-145438500D02*
X109831500Y-144420500D01*
X107139634Y-145438500D02*
X109831500Y-145438500D01*
X105274144Y-147129010D02*
X106260856Y-147129010D01*
X109831500Y-146304000D02*
X109831500Y-145438500D01*
%TO.N,LSCK*%
X105767500Y-150516500D02*
X105553000Y-150302000D01*
X105767500Y-152273000D02*
X105767500Y-150516500D01*
X104752999Y-149501999D02*
X105553000Y-150302000D01*
X104752999Y-148369585D02*
X104752999Y-149501999D01*
X103662414Y-147279000D02*
X104752999Y-148369585D01*
X102938500Y-147279000D02*
X103662414Y-147279000D01*
%TO.N,LD*%
X108204000Y-150368000D02*
X107696000Y-150876000D01*
X109577500Y-150368000D02*
X108204000Y-150368000D01*
X107696000Y-143399000D02*
X107553000Y-143256000D01*
X107696000Y-144399000D02*
X107696000Y-143399000D01*
X104394000Y-139446000D02*
X103935011Y-138987011D01*
X96878989Y-131881009D02*
X100196600Y-128563398D01*
X103935011Y-138987011D02*
X98049009Y-138987011D01*
X96878989Y-137816991D02*
X96878989Y-131881009D01*
X100196600Y-128563398D02*
X100196600Y-127541600D01*
X104394000Y-142627002D02*
X104394000Y-139446000D01*
X105022998Y-143256000D02*
X104394000Y-142627002D01*
X107553000Y-143256000D02*
X105022998Y-143256000D01*
X98049009Y-138987011D02*
X96878989Y-137816991D01*
%TO.N,LLD*%
X105767500Y-144420500D02*
X105553000Y-144206000D01*
X105703000Y-145329000D02*
X105767500Y-145264500D01*
X105767500Y-145264500D02*
X105767500Y-144420500D01*
X105767500Y-146304000D02*
X105767500Y-145264500D01*
X105156254Y-146304000D02*
X105767500Y-146304000D01*
X104331244Y-145478990D02*
X105156254Y-146304000D01*
X103822990Y-145478990D02*
X104331244Y-145478990D01*
X103673000Y-145329000D02*
X103822990Y-145478990D01*
X102938500Y-145329000D02*
X103673000Y-145329000D01*
%TO.N,LMOSI*%
X113895500Y-144420500D02*
X113681000Y-144206000D01*
X111250634Y-145391500D02*
X113895500Y-145391500D01*
X110818990Y-145823144D02*
X111250634Y-145391500D01*
X110818990Y-146634876D02*
X110818990Y-145823144D01*
X109824848Y-147629018D02*
X110818990Y-146634876D01*
X104067014Y-146629000D02*
X105067032Y-147629018D01*
X102938500Y-146629000D02*
X104067014Y-146629000D01*
X113895500Y-145391500D02*
X113895500Y-144420500D01*
X105067032Y-147629018D02*
X109824848Y-147629018D01*
X113895500Y-146304000D02*
X113895500Y-145391500D01*
D59*
%TO.N,Net-(R12-Pad2)*%
X70207000Y-129794000D02*
X68834000Y-128421000D01*
X68834000Y-128421000D02*
X68834000Y-127446000D01*
X72009000Y-129794000D02*
X70207000Y-129794000D01*
X72009000Y-128928500D02*
X72009000Y-129794000D01*
X72009000Y-129794000D02*
X72009000Y-130786500D01*
D60*
%TO.N,Net-(Q1-Pad1)*%
X126339000Y-146809500D02*
X126365000Y-146835500D01*
D61*
X126365000Y-146835500D02*
X128778000Y-146835500D01*
X123237500Y-144206000D02*
X123237500Y-145589500D01*
X124483500Y-146835500D02*
X126365000Y-146835500D01*
X123237500Y-145589500D02*
X124483500Y-146835500D01*
D59*
%TO.N,Net-(C15-Pad2)*%
X117831700Y-112887098D02*
X117831700Y-112395000D01*
X101650800Y-112993231D02*
X101650800Y-112318800D01*
X96996600Y-117647431D02*
X101650800Y-112993231D01*
X96996600Y-119041600D02*
X96996600Y-117647431D01*
X103857753Y-114525753D02*
X108938663Y-114525753D01*
X108938663Y-114525753D02*
X110124080Y-115711170D01*
X101650800Y-112318800D02*
X103857753Y-114525753D01*
X110124080Y-115711170D02*
X117130630Y-115711170D01*
X117831700Y-115010100D02*
X117831700Y-112395000D01*
X117130630Y-115711170D02*
X117831700Y-115010100D01*
%TO.N,Net-(C17-Pad1)*%
X79629000Y-144248500D02*
X79605500Y-144248500D01*
X79605500Y-144248500D02*
X78740000Y-143383000D01*
X78740000Y-132790000D02*
X78486000Y-132536000D01*
X78740000Y-143383000D02*
X78740000Y-132790000D01*
%TO.N,Net-(C18-Pad2)*%
X65532000Y-153965500D02*
X65595500Y-154029000D01*
X65532000Y-148643000D02*
X65532000Y-153965500D01*
D61*
%TO.N,Net-(C22-Pad1)*%
X89688500Y-154686000D02*
X87782400Y-154686000D01*
X85721400Y-152625000D02*
X84031000Y-152625000D01*
X87782400Y-154686000D02*
X85721400Y-152625000D01*
X89688500Y-154686000D02*
X89688500Y-156591000D01*
D59*
%TO.N,Net-(C26-Pad2)*%
X98909000Y-159003000D02*
X100458000Y-159003000D01*
X100458000Y-159003000D02*
X102007500Y-157453500D01*
X102122000Y-156605000D02*
X102007500Y-156490500D01*
X103505000Y-156605000D02*
X102122000Y-156605000D01*
X102007500Y-156490500D02*
X102007500Y-154432000D01*
X102007500Y-157453500D02*
X102007500Y-156490500D01*
%TO.N,Net-(C26-Pad1)*%
X105767500Y-155782000D02*
X106680000Y-156694500D01*
X105767500Y-154432000D02*
X105767500Y-155782000D01*
D61*
X105767500Y-154432000D02*
X103732500Y-154432000D01*
D59*
%TO.N,Net-(C28-Pad2)*%
X109627500Y-156467000D02*
X109855000Y-156694500D01*
X109627500Y-154432000D02*
X109627500Y-156467000D01*
D61*
X109198500Y-154432000D02*
X109452500Y-154686000D01*
X107592500Y-154432000D02*
X109198500Y-154432000D01*
%TO.N,Net-(C28-Pad1)*%
X113944000Y-154686000D02*
X114070000Y-154812000D01*
X111527500Y-154686000D02*
X113944000Y-154686000D01*
D59*
%TO.N,Net-(C32-Pad2)*%
X117450000Y-154432000D02*
X117070000Y-154812000D01*
X120650000Y-154432000D02*
X117450000Y-154432000D01*
X120650000Y-154432000D02*
X120650000Y-152386000D01*
%TO.N,Net-(C32-Pad1)*%
X129032000Y-154432000D02*
X122375000Y-154432000D01*
D61*
%TO.N,Net-(J1-Pad1)*%
X89916000Y-137541000D02*
X88138000Y-135763000D01*
X93829500Y-137541000D02*
X89916000Y-137541000D01*
D59*
%TO.N,Net-(J4-Pad3)*%
X97796600Y-117695973D02*
X97796600Y-119041600D01*
X100366813Y-115125763D02*
X97796600Y-117695973D01*
X109875548Y-116311180D02*
X108690130Y-115125762D01*
X112880378Y-116311180D02*
X109875548Y-116311180D01*
X114012590Y-119969446D02*
X114012591Y-117443393D01*
X114718544Y-120675400D02*
X114012590Y-119969446D01*
X114012591Y-117443393D02*
X112880378Y-116311180D01*
X108690130Y-115125762D02*
X100366813Y-115125763D01*
X115939999Y-126341127D02*
X116644980Y-125636146D01*
X116644980Y-129025982D02*
X115939999Y-128321001D01*
X116644980Y-125636146D02*
X116644980Y-121953580D01*
X116644980Y-135170620D02*
X116644980Y-129025982D01*
X115939999Y-128321001D02*
X115939999Y-126341127D01*
X116644980Y-121953580D02*
X115366800Y-120675400D01*
X115366800Y-120675400D02*
X114718544Y-120675400D01*
X115671600Y-136144000D02*
X116644980Y-135170620D01*
X113030000Y-136144000D02*
X115671600Y-136144000D01*
%TO.N,Net-(J4-Pad2)*%
X98596600Y-117744516D02*
X100615344Y-115725772D01*
X114470011Y-121275409D02*
X115118268Y-121275410D01*
X113412581Y-120217979D02*
X114470011Y-121275409D01*
X115118268Y-121275410D02*
X115897189Y-122054331D01*
X98596600Y-119041600D02*
X98596600Y-117744516D01*
X113412581Y-117691925D02*
X112631846Y-116911190D01*
X113412581Y-120217979D02*
X113412581Y-117691925D01*
X112631846Y-116911190D02*
X109627016Y-116911190D01*
X108441598Y-115725772D02*
X100615344Y-115725772D01*
X109627016Y-116911190D02*
X108441598Y-115725772D01*
X115339989Y-128569533D02*
X116044970Y-129274514D01*
X115339989Y-126092595D02*
X115339989Y-128569533D01*
X115897189Y-125535395D02*
X115339989Y-126092595D01*
X115897189Y-122054331D02*
X115897189Y-125535395D01*
X116044970Y-133383030D02*
X116044970Y-129274514D01*
X114534001Y-134893999D02*
X116044970Y-133383030D01*
X111740001Y-134893999D02*
X114534001Y-134893999D01*
X110490000Y-136144000D02*
X111740001Y-134893999D01*
%TO.N,Net-(J5-Pad1)*%
X93980000Y-112369600D02*
X94030800Y-112318800D01*
X93980000Y-120720002D02*
X93980000Y-112369600D01*
X94551598Y-121291600D02*
X93980000Y-120720002D01*
X95546600Y-121291600D02*
X94551598Y-121291600D01*
%TO.N,Net-(J6-Pad4)*%
X100996600Y-119041600D02*
X100996600Y-118053000D01*
X100996600Y-118053000D02*
X101523800Y-117525800D01*
X101523800Y-117525800D02*
X107696000Y-117525800D01*
X107696000Y-117525800D02*
X109829600Y-119659400D01*
X109829600Y-119659400D02*
X109829600Y-129819400D01*
X110794800Y-130784600D02*
X112344200Y-130784600D01*
X109829600Y-129819400D02*
X110794800Y-130784600D01*
%TO.N,Net-(J6-Pad3)*%
X107944533Y-116925791D02*
X110429610Y-119410868D01*
X101112409Y-116925791D02*
X107944533Y-116925791D01*
X100196600Y-117841600D02*
X101112409Y-116925791D01*
X100196600Y-119041600D02*
X100196600Y-117841600D01*
X110429610Y-119410868D02*
X110429610Y-127752410D01*
X110921800Y-128244600D02*
X112344200Y-128244600D01*
X110429610Y-127752410D02*
X110921800Y-128244600D01*
%TO.N,Net-(R14-Pad2)*%
X104078000Y-120523000D02*
X104046600Y-120491600D01*
X106172000Y-120523000D02*
X104078000Y-120523000D01*
X128778000Y-137541000D02*
X126238000Y-135001000D01*
X128778000Y-145010500D02*
X128778000Y-137541000D01*
D61*
%TO.N,Net-(C22-Pad2)*%
X91413500Y-152754800D02*
X91463500Y-152704800D01*
X91413500Y-154686000D02*
X91413500Y-152754800D01*
%TO.N,Net-(C6-Pad2)*%
X92048800Y-149909700D02*
X91998800Y-149959700D01*
X94183200Y-149909700D02*
X92048800Y-149909700D01*
%TO.N,Net-(C6-Pad1)*%
X94577500Y-148579000D02*
X97213500Y-148579000D01*
X94183200Y-148184700D02*
X94577500Y-148579000D01*
D59*
%TO.N,Net-(R3-Pad1)*%
X89002000Y-148590000D02*
X88992000Y-148580000D01*
D61*
X89437300Y-148134700D02*
X88992000Y-148580000D01*
X91998800Y-148134700D02*
X89437300Y-148134700D01*
D59*
%TO.N,Net-(R5-Pad2)*%
X92844600Y-127541600D02*
X92506800Y-127203800D01*
X96996600Y-127541600D02*
X92844600Y-127541600D01*
%TO.N,Net-(R7-Pad2)*%
X101796600Y-127541600D02*
X101796600Y-128085600D01*
X103658000Y-131572000D02*
X103658000Y-131090000D01*
X101796600Y-129228600D02*
X101796600Y-127541600D01*
X103658000Y-131090000D02*
X101796600Y-129228600D01*
%TO.N,Net-(R15-Pad2)*%
X67564000Y-133146800D02*
X67564000Y-132269000D01*
X72009000Y-133096000D02*
X72009000Y-132611500D01*
X70866000Y-134239000D02*
X72009000Y-133096000D01*
X67564000Y-133146800D02*
X68656200Y-134239000D01*
X67564000Y-132396000D02*
X67564000Y-133146800D01*
X68656200Y-134239000D02*
X69469000Y-134239000D01*
X69469000Y-134239000D02*
X70866000Y-134239000D01*
X66782000Y-142514000D02*
X66782000Y-143838000D01*
X68961000Y-141986000D02*
X67310000Y-141986000D01*
X67310000Y-141986000D02*
X66782000Y-142514000D01*
X69469000Y-141478000D02*
X68961000Y-141986000D01*
X69469000Y-134239000D02*
X69469000Y-141478000D01*
X66782000Y-143838000D02*
X66782000Y-145743000D01*
D60*
%TO.N,Net-(R20-Pad1)*%
X85656500Y-158599500D02*
X84031000Y-160225000D01*
X86741000Y-158599500D02*
X85656500Y-158599500D01*
%TD*%
%TA.AperFunction,Conductor*%
%TO.N,GND*%
G36*
X118618000Y-153035000D02*
G01*
X112522000Y-153035000D01*
X112522000Y-147606010D01*
X114365441Y-147606010D01*
X114388856Y-147608316D01*
X114412271Y-147606010D01*
X114412279Y-147606010D01*
X114482364Y-147599107D01*
X114565132Y-147574000D01*
X118618000Y-147574000D01*
X118618000Y-153035000D01*
G37*
%TD.AperFunction*%
%TD*%
%TA.AperFunction,Conductor*%
%TO.N,GND*%
G36*
X100457000Y-157226000D02*
G01*
X94361000Y-157226000D01*
X94361000Y-151765000D01*
X100457000Y-151765000D01*
X100457000Y-157226000D01*
G37*
%TD.AperFunction*%
%TD*%
%TA.AperFunction,Conductor*%
%TO.N,GND*%
G36*
X84582000Y-140970000D02*
G01*
X83439000Y-140970000D01*
X83439000Y-130321000D01*
X84582000Y-130321000D01*
X84582000Y-140970000D01*
G37*
%TD.AperFunction*%
%TA.AperFunction,Conductor*%
G36*
X84582000Y-129267000D02*
G01*
X83439000Y-129267000D01*
X83439000Y-108786000D01*
X84582000Y-108786000D01*
X84582000Y-129267000D01*
G37*
%TD.AperFunction*%
%TD*%
%TA.AperFunction,Conductor*%
%TO.N,GND*%
G36*
X68942001Y-139830506D02*
G01*
X68942001Y-140970000D01*
X60816000Y-140970000D01*
X60816000Y-139827798D01*
X68942001Y-139830506D01*
G37*
%TD.AperFunction*%
%TA.AperFunction,Conductor*%
G36*
X78213000Y-139833595D02*
G01*
X78213000Y-140970000D01*
X69996000Y-140970000D01*
X69996000Y-139830857D01*
X78213000Y-139833595D01*
G37*
%TD.AperFunction*%
%TA.AperFunction,Conductor*%
G36*
X103917001Y-139842161D02*
G01*
X103917001Y-140970000D01*
X79267000Y-140970000D01*
X79267000Y-139833947D01*
X103917001Y-139842161D01*
G37*
%TD.AperFunction*%
%TA.AperFunction,Conductor*%
G36*
X107981000Y-139843515D02*
G01*
X107981001Y-140970000D01*
X104871000Y-140970000D01*
X104871000Y-139842479D01*
X107981000Y-139843515D01*
G37*
%TD.AperFunction*%
%TA.AperFunction,Conductor*%
G36*
X116717991Y-139846426D02*
G01*
X116717991Y-140970000D01*
X108935000Y-140970000D01*
X108935000Y-139843833D01*
X116717991Y-139846426D01*
G37*
%TD.AperFunction*%
%TA.AperFunction,Conductor*%
G36*
X128251001Y-139850270D02*
G01*
X128251001Y-140970000D01*
X118071990Y-140970000D01*
X118071990Y-139846878D01*
X128251001Y-139850270D01*
G37*
%TD.AperFunction*%
%TA.AperFunction,Conductor*%
G36*
X132512000Y-139851689D02*
G01*
X132512000Y-140970000D01*
X130638640Y-140970000D01*
X130638640Y-139851065D01*
X132512000Y-139851689D01*
G37*
%TD.AperFunction*%
%TD*%
M02*
