%TF.GenerationSoftware,KiCad,Pcbnew,7.0.2*%
%TF.CreationDate,2023-08-02T15:39:13+02:00*%
%TF.ProjectId,ATV,4154562e-6b69-4636-9164-5f7063625858,1*%
%TF.SameCoordinates,Original*%
%TF.FileFunction,Copper,L2,Bot*%
%TF.FilePolarity,Positive*%
%FSLAX46Y46*%
G04 Gerber Fmt 4.6, Leading zero omitted, Abs format (unit mm)*
G04 Created by KiCad (PCBNEW 7.0.2) date 2023-08-02 15:39:13*
%MOMM*%
%LPD*%
G01*
G04 APERTURE LIST*
G04 Aperture macros list*
%AMRoundRect*
0 Rectangle with rounded corners*
0 $1 Rounding radius*
0 $2 $3 $4 $5 $6 $7 $8 $9 X,Y pos of 4 corners*
0 Add a 4 corners polygon primitive as box body*
4,1,4,$2,$3,$4,$5,$6,$7,$8,$9,$2,$3,0*
0 Add four circle primitives for the rounded corners*
1,1,$1+$1,$2,$3*
1,1,$1+$1,$4,$5*
1,1,$1+$1,$6,$7*
1,1,$1+$1,$8,$9*
0 Add four rect primitives between the rounded corners*
20,1,$1+$1,$2,$3,$4,$5,0*
20,1,$1+$1,$4,$5,$6,$7,0*
20,1,$1+$1,$6,$7,$8,$9,0*
20,1,$1+$1,$8,$9,$2,$3,0*%
G04 Aperture macros list end*
%TA.AperFunction,ComponentPad*%
%ADD10O,2.000000X1.905000*%
%TD*%
%TA.AperFunction,ComponentPad*%
%ADD11R,2.000000X1.905000*%
%TD*%
%TA.AperFunction,ComponentPad*%
%ADD12C,1.740000*%
%TD*%
%TA.AperFunction,ComponentPad*%
%ADD13RoundRect,0.249999X0.620001X-0.620001X0.620001X0.620001X-0.620001X0.620001X-0.620001X-0.620001X0*%
%TD*%
%TA.AperFunction,ComponentPad*%
%ADD14O,1.700000X1.700000*%
%TD*%
%TA.AperFunction,ComponentPad*%
%ADD15R,1.700000X1.700000*%
%TD*%
%TA.AperFunction,ComponentPad*%
%ADD16RoundRect,0.249999X-0.620001X-0.620001X0.620001X-0.620001X0.620001X0.620001X-0.620001X0.620001X0*%
%TD*%
%TA.AperFunction,ComponentPad*%
%ADD17RoundRect,0.249999X-0.620001X0.620001X-0.620001X-0.620001X0.620001X-0.620001X0.620001X0.620001X0*%
%TD*%
%TA.AperFunction,ComponentPad*%
%ADD18C,2.000000*%
%TD*%
%TA.AperFunction,ComponentPad*%
%ADD19C,2.250000*%
%TD*%
%TA.AperFunction,ComponentPad*%
%ADD20C,1.440000*%
%TD*%
%TA.AperFunction,ViaPad*%
%ADD21C,0.800000*%
%TD*%
%TA.AperFunction,ViaPad*%
%ADD22C,1.000000*%
%TD*%
%TA.AperFunction,Conductor*%
%ADD23C,0.700000*%
%TD*%
%TA.AperFunction,Conductor*%
%ADD24C,0.300000*%
%TD*%
%TA.AperFunction,Conductor*%
%ADD25C,0.400000*%
%TD*%
G04 APERTURE END LIST*
D10*
%TO.P,U5,3*%
%TO.N,+5V*%
X129755900Y-125564900D03*
%TO.P,U5,2*%
%TO.N,GND*%
X129755900Y-123024900D03*
D11*
%TO.P,U5,1*%
%TO.N,Net-(C25-Pad1)*%
X129755900Y-120484900D03*
%TD*%
D12*
%TO.P,J1,2*%
%TO.N,Net-(D1-Pad2)*%
X88138000Y-133223000D03*
D13*
%TO.P,J1,1*%
%TO.N,Net-(J1-Pad1)*%
X88138000Y-135763000D03*
%TD*%
D14*
%TO.P,J4,3*%
%TO.N,Net-(J4-Pad3)*%
X113030000Y-136144000D03*
%TO.P,J4,2*%
%TO.N,Net-(J4-Pad2)*%
X110490000Y-136144000D03*
D15*
%TO.P,J4,1*%
%TO.N,GND*%
X107950000Y-136144000D03*
%TD*%
D14*
%TO.P,J7,6*%
%TO.N,GND*%
X103759000Y-134747000D03*
%TO.P,J7,5*%
%TO.N,RST*%
X103759000Y-137287000D03*
%TO.P,J7,4*%
%TO.N,MOSI*%
X101219000Y-134747000D03*
%TO.P,J7,3*%
%TO.N,SCK*%
X101219000Y-137287000D03*
%TO.P,J7,2*%
%TO.N,N/C*%
X98679000Y-134747000D03*
D15*
%TO.P,J7,1*%
%TO.N,MISO*%
X98679000Y-137287000D03*
%TD*%
D12*
%TO.P,J5,5*%
%TO.N,GND*%
X104190800Y-112318800D03*
%TO.P,J5,4*%
%TO.N,Net-(C15-Pad2)*%
X101650800Y-112318800D03*
%TO.P,J5,3*%
%TO.N,Net-(C16-Pad2)*%
X99110800Y-112318800D03*
%TO.P,J5,2*%
%TO.N,GND*%
X96570800Y-112318800D03*
D16*
%TO.P,J5,1*%
%TO.N,Net-(J5-Pad1)*%
X94030800Y-112318800D03*
%TD*%
D12*
%TO.P,J6,4*%
%TO.N,Net-(J6-Pad4)*%
X112344200Y-130784600D03*
%TO.P,J6,3*%
%TO.N,Net-(J6-Pad3)*%
X112344200Y-128244600D03*
%TO.P,J6,2*%
%TO.N,+5V*%
X112344200Y-125704600D03*
D17*
%TO.P,J6,1*%
%TO.N,GND*%
X112344200Y-123164600D03*
%TD*%
D12*
%TO.P,J3,2*%
%TO.N,Net-(J3-Pad2)*%
X112953800Y-112318800D03*
D16*
%TO.P,J3,1*%
%TO.N,GND*%
X110413800Y-112318800D03*
%TD*%
D18*
%TO.P,J2,1*%
%TO.N,Net-(C11-Pad2)*%
X80010000Y-116814600D03*
%TD*%
D19*
%TO.P,J9,2*%
%TO.N,GND*%
X126492000Y-156972000D03*
X126492000Y-151892000D03*
X131572000Y-151892000D03*
X131572000Y-156972000D03*
D20*
%TO.P,J9,1*%
%TO.N,Net-(C32-Pad1)*%
X129032000Y-154432000D03*
%TD*%
D18*
%TO.P,J8,1*%
%TO.N,Net-(C25-Pad1)*%
X125882400Y-116814600D03*
%TD*%
D21*
%TO.N,GND*%
X90601800Y-145923000D03*
X104394000Y-144653000D03*
D22*
X115570000Y-153162000D03*
X123952000Y-149733000D03*
X105410000Y-159258000D03*
X110998000Y-158496000D03*
X81026000Y-153670000D03*
X81026000Y-154940000D03*
X81026000Y-156210000D03*
X81026000Y-157480000D03*
X81026000Y-158750000D03*
X79756000Y-157480000D03*
X79756000Y-154940000D03*
X79756000Y-156210000D03*
X79756000Y-158750000D03*
X79756000Y-153670000D03*
X82296000Y-157480000D03*
X82296000Y-156210000D03*
X82296000Y-158750000D03*
X82296000Y-154940000D03*
X82296000Y-153670000D03*
X83566000Y-154940000D03*
X83566000Y-156210000D03*
X83566000Y-157480000D03*
X84836000Y-156210000D03*
X84836000Y-154940000D03*
X84836000Y-157480000D03*
X78486000Y-154940000D03*
X78486000Y-156210000D03*
X78486000Y-157480000D03*
X77216000Y-154940000D03*
X77216000Y-156210000D03*
X77216000Y-157480000D03*
X97409000Y-156083000D03*
X97409000Y-157353000D03*
X97409000Y-154813000D03*
X97409000Y-153543000D03*
X96139000Y-153543000D03*
X96139000Y-154813000D03*
X98679000Y-153543000D03*
X98679000Y-154813000D03*
X98679000Y-156083000D03*
X96139000Y-156083000D03*
X94869000Y-156083000D03*
X99949000Y-156083000D03*
X99949000Y-156083000D03*
X99949000Y-153543000D03*
X99949000Y-154813000D03*
X99949000Y-153543000D03*
X99949000Y-154813000D03*
X94869000Y-153543000D03*
X94869000Y-154813000D03*
X97409000Y-152273000D03*
X96139000Y-152273000D03*
X94869000Y-152273000D03*
X98679000Y-152273000D03*
X99949000Y-152273000D03*
X116840000Y-151892000D03*
X118110000Y-151892000D03*
X115570000Y-149352000D03*
X118110000Y-149352000D03*
X113030000Y-148082000D03*
X114300000Y-149352000D03*
X114300000Y-151892000D03*
X118110000Y-149352000D03*
X118110000Y-150622000D03*
X115570000Y-148082000D03*
X118110000Y-151892000D03*
X116840000Y-148082000D03*
X116840000Y-150622000D03*
X113030000Y-149352000D03*
X118110000Y-148082000D03*
X118110000Y-150622000D03*
X114300000Y-150622000D03*
X113030000Y-150622000D03*
X116840000Y-149352000D03*
X115570000Y-150622000D03*
X114300000Y-148082000D03*
X115570000Y-151892000D03*
X75438000Y-157353000D03*
X61722000Y-134874000D03*
X62484000Y-128778000D03*
X78486000Y-123698000D03*
X98298000Y-145796000D03*
X96012000Y-150368000D03*
X97282000Y-123698000D03*
X102514400Y-122910600D03*
X131419600Y-140411200D03*
X131028440Y-135026400D03*
X94742000Y-136525000D03*
X89662000Y-127000000D03*
X89662000Y-111252000D03*
X120802400Y-111429800D03*
X125425200Y-110617000D03*
X127508000Y-140411200D03*
X126238000Y-140411200D03*
X124968000Y-140411200D03*
X123698000Y-140411200D03*
X122428000Y-140411200D03*
X121158000Y-140411200D03*
X119888000Y-140411200D03*
X118618000Y-140411200D03*
X97790000Y-140360400D03*
X93980000Y-140360400D03*
X92710000Y-140360400D03*
X91440000Y-140360400D03*
X90170000Y-140360400D03*
X88900000Y-140360400D03*
X87630000Y-140360400D03*
X86360000Y-140360400D03*
X85090000Y-140360400D03*
X83820000Y-140360400D03*
X82550000Y-140360400D03*
X81280000Y-140360400D03*
X80010000Y-140360400D03*
X77470000Y-140360400D03*
X76200000Y-140360400D03*
X74930000Y-140360400D03*
X73660000Y-140360400D03*
X72390000Y-140360400D03*
X71120000Y-140360400D03*
X65278000Y-140360400D03*
X64008000Y-140360400D03*
X66548000Y-140360400D03*
X62738000Y-140360400D03*
X61468000Y-140360400D03*
X115697000Y-140411200D03*
X114427000Y-140411200D03*
X113157000Y-140411200D03*
X111887000Y-140411200D03*
X110617000Y-140411200D03*
X106553000Y-128270000D03*
X97282000Y-122047000D03*
X125272800Y-127330200D03*
X92837000Y-118618000D03*
X120269000Y-120650000D03*
X120269000Y-129921000D03*
X67818000Y-140360400D03*
X99060000Y-140360400D03*
X105283000Y-140360400D03*
X109347000Y-140411200D03*
X84000000Y-138938000D03*
X84000000Y-137668000D03*
X84000000Y-136398000D03*
X84000000Y-135128000D03*
X84000000Y-133858000D03*
X84000000Y-128270000D03*
X84000000Y-127000000D03*
X84000000Y-124460000D03*
X84000000Y-123190000D03*
X84000000Y-121920000D03*
X84000000Y-120650000D03*
X84000000Y-119380000D03*
X84000000Y-118110000D03*
X84000000Y-116840000D03*
X84000000Y-115570000D03*
X84000000Y-114300000D03*
X84000000Y-113030000D03*
X84000000Y-111760000D03*
X84000000Y-110490000D03*
X66294000Y-129032000D03*
X81381600Y-111252000D03*
X68834000Y-124714000D03*
X86487000Y-150495000D03*
D21*
X94869000Y-144145000D03*
D22*
X92329000Y-158242000D03*
D21*
X100203000Y-145161000D03*
X103632000Y-141986000D03*
X104521000Y-150876000D03*
X104521000Y-152527000D03*
X101981000Y-148971000D03*
D22*
X82613500Y-147066000D03*
X95250000Y-140360400D03*
X100330000Y-140360400D03*
X103251000Y-140360400D03*
X106680000Y-140360400D03*
X84000000Y-132588000D03*
X84000000Y-131318000D03*
X61976000Y-145669000D03*
D21*
X74295000Y-143573500D03*
D22*
X113030000Y-151892000D03*
%TO.N,+5V*%
X116840000Y-127889000D03*
X100584000Y-143510000D03*
X64643000Y-136398000D03*
%TO.N,+3V3*%
X100991000Y-147929000D03*
D21*
X107961009Y-141977797D03*
X112649000Y-146304000D03*
X116967000Y-146304000D03*
X108712000Y-146812000D03*
X90678000Y-144526000D03*
X98679000Y-149255473D03*
D22*
X120990000Y-133105800D03*
D21*
%TO.N,SCK*%
X106680000Y-149352000D03*
%TO.N,SS*%
X100838000Y-129032000D03*
X111887000Y-144145000D03*
%TO.N,LD*%
X107696000Y-150876000D03*
X107696000Y-144399000D03*
D22*
%TO.N,Net-(R14-Pad2)*%
X126238000Y-135001000D03*
X106172000Y-120523000D03*
%TD*%
D23*
%TO.N,+5V*%
X65208685Y-136398000D02*
X75902085Y-125704600D01*
X64643000Y-136398000D02*
X65208685Y-136398000D01*
X102746999Y-139310399D02*
X102108000Y-139949398D01*
X102108000Y-139949398D02*
X102108000Y-142621000D01*
X101219000Y-143510000D02*
X100584000Y-143510000D01*
X102108000Y-142621000D02*
X101219000Y-143510000D01*
X105528399Y-128799401D02*
X105502999Y-128774001D01*
X105511600Y-125704600D02*
X112344200Y-125704600D01*
X105502999Y-128774001D02*
X105502999Y-125713201D01*
X75902085Y-125704600D02*
X105511600Y-125704600D01*
X105502999Y-125713201D02*
X105511600Y-125704600D01*
X114655600Y-125704600D02*
X116840000Y-127889000D01*
X112344200Y-125704600D02*
X114655600Y-125704600D01*
X105502999Y-137615003D02*
X105502999Y-128774001D01*
X103807603Y-139310399D02*
X105502999Y-137615003D01*
X102746999Y-139310399D02*
X103807603Y-139310399D01*
D24*
%TO.N,+3V3*%
X116967000Y-146304000D02*
X112649000Y-146304000D01*
X109220000Y-146304000D02*
X112649000Y-146304000D01*
X108712000Y-146812000D02*
X109220000Y-146304000D01*
D23*
X107961009Y-142727989D02*
X107961009Y-141977797D01*
X100991000Y-147929000D02*
X102759998Y-147929000D01*
D24*
X90678000Y-144526000D02*
X95407473Y-149255473D01*
X98679000Y-149255473D02*
X95407473Y-149255473D01*
X107595001Y-143187999D02*
X107500999Y-143187999D01*
X108712000Y-146812000D02*
X108712000Y-144304998D01*
X108712000Y-144304998D02*
X107595001Y-143187999D01*
D23*
X107500999Y-143187999D02*
X107961009Y-142727989D01*
X102759998Y-147929000D02*
X107500999Y-143187999D01*
X108296999Y-141641807D02*
X107961009Y-141977797D01*
X108296999Y-139907199D02*
X108296999Y-141641807D01*
X109506188Y-138698010D02*
X108296999Y-139907199D01*
X115397790Y-138698010D02*
X109506188Y-138698010D01*
X120990000Y-133105800D02*
X115397790Y-138698010D01*
D24*
%TO.N,SCK*%
X99148001Y-143687997D02*
X99827999Y-143007999D01*
X101445999Y-149948001D02*
X99148001Y-147650003D01*
X99148001Y-147650003D02*
X99148001Y-143687997D01*
X103555997Y-149948001D02*
X101445999Y-149948001D01*
X104151998Y-149352000D02*
X103555997Y-149948001D01*
X106680000Y-149352000D02*
X104151998Y-149352000D01*
X99827999Y-143007999D02*
X99694999Y-143140999D01*
X101219000Y-141616998D02*
X101219000Y-137287000D01*
X99827999Y-143007999D02*
X101219000Y-141616998D01*
%TO.N,SS*%
X96939999Y-132930001D02*
X100838000Y-129032000D01*
X108056001Y-151626001D02*
X102416879Y-151626001D01*
X112628001Y-147054001D02*
X108056001Y-151626001D01*
X117717001Y-145943999D02*
X117717001Y-146664001D01*
X96939999Y-146149121D02*
X96939999Y-132930001D01*
X117717001Y-146664001D02*
X117327001Y-147054001D01*
X115918002Y-144145000D02*
X117717001Y-145943999D01*
X102416879Y-151626001D02*
X96939999Y-146149121D01*
X117327001Y-147054001D02*
X112628001Y-147054001D01*
X111887000Y-144145000D02*
X115918002Y-144145000D01*
%TO.N,LD*%
X107696000Y-150876000D02*
X107696000Y-144399000D01*
D25*
%TO.N,Net-(R14-Pad2)*%
X112325685Y-120523000D02*
X106172000Y-120523000D01*
X126238000Y-135001000D02*
X126238000Y-134435315D01*
X126238000Y-134435315D02*
X112325685Y-120523000D01*
%TD*%
%TA.AperFunction,Conductor*%
%TO.N,GND*%
G36*
X128512000Y-109126538D02*
G01*
X128511265Y-109134000D01*
X128514200Y-109163797D01*
X128522891Y-109192449D01*
X128537005Y-109218855D01*
X128556000Y-109242000D01*
X128579145Y-109260995D01*
X128605551Y-109275109D01*
X128634203Y-109283800D01*
X128664000Y-109286735D01*
X128671462Y-109286000D01*
X132512001Y-109286000D01*
X132512000Y-150405093D01*
X132506079Y-150390286D01*
X132195160Y-150236911D01*
X131860295Y-150147140D01*
X131514350Y-150124424D01*
X131170620Y-150169634D01*
X130842315Y-150281034D01*
X130637921Y-150390286D01*
X130527074Y-150667469D01*
X131572000Y-151712395D01*
X131586143Y-151698253D01*
X131765748Y-151877858D01*
X131751605Y-151892000D01*
X131765748Y-151906143D01*
X131586143Y-152085748D01*
X131572000Y-152071605D01*
X130527074Y-153116531D01*
X130637921Y-153393714D01*
X130948840Y-153547089D01*
X131283705Y-153636860D01*
X131629650Y-153659576D01*
X131973380Y-153614366D01*
X132301685Y-153502966D01*
X132506079Y-153393714D01*
X132512000Y-153378908D01*
X132512000Y-155485092D01*
X132506079Y-155470286D01*
X132195160Y-155316911D01*
X131860295Y-155227140D01*
X131514350Y-155204424D01*
X131170620Y-155249634D01*
X130842315Y-155361034D01*
X130637921Y-155470286D01*
X130527074Y-155747469D01*
X131572000Y-156792395D01*
X131586143Y-156778253D01*
X131765748Y-156957858D01*
X131751605Y-156972000D01*
X131765748Y-156986143D01*
X131586143Y-157165748D01*
X131572000Y-157151605D01*
X130527074Y-158196531D01*
X130637921Y-158473714D01*
X130948840Y-158627089D01*
X131283705Y-158716860D01*
X131629650Y-158739576D01*
X131973380Y-158694366D01*
X132301685Y-158582966D01*
X132506079Y-158473714D01*
X132512000Y-158458908D01*
X132512000Y-161071040D01*
X131601041Y-161982000D01*
X64816000Y-161982000D01*
X64816000Y-161641461D01*
X64816735Y-161634000D01*
X64813800Y-161604203D01*
X64805109Y-161575551D01*
X64790995Y-161549145D01*
X64772000Y-161526000D01*
X64748855Y-161507005D01*
X64722449Y-161492891D01*
X64693797Y-161484200D01*
X64671462Y-161482000D01*
X64664000Y-161481265D01*
X64656538Y-161482000D01*
X60816000Y-161482000D01*
X60816000Y-158196531D01*
X125447074Y-158196531D01*
X125557921Y-158473714D01*
X125868840Y-158627089D01*
X126203705Y-158716860D01*
X126549650Y-158739576D01*
X126893380Y-158694366D01*
X127221685Y-158582966D01*
X127426079Y-158473714D01*
X127536926Y-158196531D01*
X126492000Y-157151605D01*
X125447074Y-158196531D01*
X60816000Y-158196531D01*
X60816000Y-157029650D01*
X124724424Y-157029650D01*
X124769634Y-157373380D01*
X124881034Y-157701685D01*
X124990286Y-157906079D01*
X125267469Y-158016926D01*
X126312395Y-156972000D01*
X126671605Y-156972000D01*
X127716531Y-158016926D01*
X127993714Y-157906079D01*
X128147089Y-157595160D01*
X128236860Y-157260295D01*
X128252004Y-157029650D01*
X129804424Y-157029650D01*
X129849634Y-157373380D01*
X129961034Y-157701685D01*
X130070286Y-157906079D01*
X130347469Y-158016926D01*
X131392395Y-156972000D01*
X130347469Y-155927074D01*
X130070286Y-156037921D01*
X129916911Y-156348840D01*
X129827140Y-156683705D01*
X129804424Y-157029650D01*
X128252004Y-157029650D01*
X128259576Y-156914350D01*
X128214366Y-156570620D01*
X128102966Y-156242315D01*
X127993714Y-156037921D01*
X127716531Y-155927074D01*
X126671605Y-156972000D01*
X126312395Y-156972000D01*
X125267469Y-155927074D01*
X124990286Y-156037921D01*
X124836911Y-156348840D01*
X124747140Y-156683705D01*
X124724424Y-157029650D01*
X60816000Y-157029650D01*
X60816000Y-155747469D01*
X125447074Y-155747469D01*
X126492000Y-156792395D01*
X127536926Y-155747469D01*
X127426079Y-155470286D01*
X127115160Y-155316911D01*
X126780295Y-155227140D01*
X126434350Y-155204424D01*
X126090620Y-155249634D01*
X125762315Y-155361034D01*
X125557921Y-155470286D01*
X125447074Y-155747469D01*
X60816000Y-155747469D01*
X60816000Y-154328879D01*
X127985000Y-154328879D01*
X127985000Y-154535121D01*
X128025236Y-154737399D01*
X128104161Y-154927940D01*
X128218742Y-155099424D01*
X128364576Y-155245258D01*
X128536060Y-155359839D01*
X128726601Y-155438764D01*
X128928879Y-155479000D01*
X129135121Y-155479000D01*
X129337399Y-155438764D01*
X129527940Y-155359839D01*
X129699424Y-155245258D01*
X129845258Y-155099424D01*
X129959839Y-154927940D01*
X130038764Y-154737399D01*
X130079000Y-154535121D01*
X130079000Y-154328879D01*
X130038764Y-154126601D01*
X129959839Y-153936060D01*
X129845258Y-153764576D01*
X129699424Y-153618742D01*
X129527940Y-153504161D01*
X129337399Y-153425236D01*
X129135121Y-153385000D01*
X128928879Y-153385000D01*
X128726601Y-153425236D01*
X128536060Y-153504161D01*
X128364576Y-153618742D01*
X128218742Y-153764576D01*
X128104161Y-153936060D01*
X128025236Y-154126601D01*
X127985000Y-154328879D01*
X60816000Y-154328879D01*
X60816000Y-153116531D01*
X125447074Y-153116531D01*
X125557921Y-153393714D01*
X125868840Y-153547089D01*
X126203705Y-153636860D01*
X126549650Y-153659576D01*
X126893380Y-153614366D01*
X127221685Y-153502966D01*
X127426079Y-153393714D01*
X127536926Y-153116531D01*
X126492000Y-152071605D01*
X125447074Y-153116531D01*
X60816000Y-153116531D01*
X60816000Y-136316548D01*
X63816000Y-136316548D01*
X63816000Y-136479452D01*
X63847782Y-136639227D01*
X63910123Y-136789731D01*
X64000628Y-136925181D01*
X64115819Y-137040372D01*
X64251269Y-137130877D01*
X64401773Y-137193218D01*
X64561548Y-137225000D01*
X64724452Y-137225000D01*
X64884227Y-137193218D01*
X65034731Y-137130877D01*
X65118357Y-137075000D01*
X65175440Y-137075000D01*
X65208685Y-137078274D01*
X65241930Y-137075000D01*
X65241937Y-137075000D01*
X65341400Y-137065204D01*
X65469015Y-137026492D01*
X65586626Y-136963628D01*
X65689712Y-136879027D01*
X65710911Y-136853196D01*
X67421108Y-135142999D01*
X86939418Y-135142999D01*
X86939418Y-136383001D01*
X86950535Y-136495877D01*
X86983460Y-136604414D01*
X87036926Y-136704443D01*
X87108880Y-136792120D01*
X87196557Y-136864074D01*
X87296586Y-136917540D01*
X87405123Y-136950465D01*
X87517999Y-136961582D01*
X88758001Y-136961582D01*
X88870877Y-136950465D01*
X88979414Y-136917540D01*
X89079443Y-136864074D01*
X89167120Y-136792120D01*
X89239074Y-136704443D01*
X89292540Y-136604414D01*
X89325465Y-136495877D01*
X89336582Y-136383001D01*
X89336582Y-135142999D01*
X89325465Y-135030123D01*
X89292540Y-134921586D01*
X89239074Y-134821557D01*
X89167120Y-134733880D01*
X89079443Y-134661926D01*
X88979414Y-134608460D01*
X88870877Y-134575535D01*
X88758001Y-134564418D01*
X87517999Y-134564418D01*
X87405123Y-134575535D01*
X87296586Y-134608460D01*
X87196557Y-134661926D01*
X87108880Y-134733880D01*
X87036926Y-134821557D01*
X86983460Y-134921586D01*
X86950535Y-135030123D01*
X86939418Y-135142999D01*
X67421108Y-135142999D01*
X69459001Y-133105106D01*
X86941000Y-133105106D01*
X86941000Y-133340894D01*
X86987000Y-133572152D01*
X87077232Y-133789992D01*
X87208229Y-133986043D01*
X87374957Y-134152771D01*
X87571008Y-134283768D01*
X87788848Y-134374000D01*
X88020106Y-134420000D01*
X88255894Y-134420000D01*
X88487152Y-134374000D01*
X88704992Y-134283768D01*
X88901043Y-134152771D01*
X89067771Y-133986043D01*
X89198768Y-133789992D01*
X89289000Y-133572152D01*
X89335000Y-133340894D01*
X89335000Y-133105106D01*
X89289000Y-132873848D01*
X89198768Y-132656008D01*
X89067771Y-132459957D01*
X88901043Y-132293229D01*
X88704992Y-132162232D01*
X88487152Y-132072000D01*
X88255894Y-132026000D01*
X88020106Y-132026000D01*
X87788848Y-132072000D01*
X87571008Y-132162232D01*
X87374957Y-132293229D01*
X87208229Y-132459957D01*
X87077232Y-132656008D01*
X86987000Y-132873848D01*
X86941000Y-133105106D01*
X69459001Y-133105106D01*
X76182507Y-126381600D01*
X104826000Y-126381600D01*
X104825999Y-128740756D01*
X104822725Y-128774001D01*
X104825999Y-128807246D01*
X104825999Y-128807252D01*
X104826000Y-128807262D01*
X104825999Y-133723443D01*
X104759269Y-133649412D01*
X104525920Y-133475359D01*
X104263099Y-133350175D01*
X104115890Y-133305524D01*
X103886000Y-133426845D01*
X103886000Y-134620000D01*
X103906000Y-134620000D01*
X103906000Y-134874000D01*
X103886000Y-134874000D01*
X103886000Y-134894000D01*
X103632000Y-134894000D01*
X103632000Y-134874000D01*
X103612000Y-134874000D01*
X103612000Y-134620000D01*
X103632000Y-134620000D01*
X103632000Y-133426845D01*
X103402110Y-133305524D01*
X103254901Y-133350175D01*
X102992080Y-133475359D01*
X102758731Y-133649412D01*
X102563822Y-133865645D01*
X102414843Y-134115748D01*
X102330264Y-134354179D01*
X102262044Y-134189481D01*
X102133236Y-133996706D01*
X101969294Y-133832764D01*
X101776519Y-133703956D01*
X101562318Y-133615231D01*
X101334924Y-133570000D01*
X101103076Y-133570000D01*
X100875682Y-133615231D01*
X100661481Y-133703956D01*
X100468706Y-133832764D01*
X100304764Y-133996706D01*
X100175956Y-134189481D01*
X100087231Y-134403682D01*
X100042000Y-134631076D01*
X100042000Y-134862924D01*
X100087231Y-135090318D01*
X100175956Y-135304519D01*
X100304764Y-135497294D01*
X100468706Y-135661236D01*
X100661481Y-135790044D01*
X100875682Y-135878769D01*
X101103076Y-135924000D01*
X101334924Y-135924000D01*
X101562318Y-135878769D01*
X101776519Y-135790044D01*
X101969294Y-135661236D01*
X102133236Y-135497294D01*
X102262044Y-135304519D01*
X102330264Y-135139821D01*
X102414843Y-135378252D01*
X102563822Y-135628355D01*
X102758731Y-135844588D01*
X102992080Y-136018641D01*
X103254901Y-136143825D01*
X103363612Y-136176799D01*
X103201481Y-136243956D01*
X103008706Y-136372764D01*
X102844764Y-136536706D01*
X102715956Y-136729481D01*
X102627231Y-136943682D01*
X102582000Y-137171076D01*
X102582000Y-137402924D01*
X102627231Y-137630318D01*
X102715956Y-137844519D01*
X102844764Y-138037294D01*
X103008706Y-138201236D01*
X103201481Y-138330044D01*
X103415682Y-138418769D01*
X103643076Y-138464000D01*
X103696580Y-138464000D01*
X103527181Y-138633399D01*
X102780243Y-138633399D01*
X102746998Y-138630125D01*
X102713753Y-138633399D01*
X102713747Y-138633399D01*
X102614284Y-138643195D01*
X102486669Y-138681907D01*
X102369058Y-138744771D01*
X102265972Y-138829372D01*
X102244775Y-138855201D01*
X101696000Y-139403976D01*
X101696000Y-138363396D01*
X101776519Y-138330044D01*
X101969294Y-138201236D01*
X102133236Y-138037294D01*
X102262044Y-137844519D01*
X102350769Y-137630318D01*
X102396000Y-137402924D01*
X102396000Y-137171076D01*
X102350769Y-136943682D01*
X102262044Y-136729481D01*
X102133236Y-136536706D01*
X101969294Y-136372764D01*
X101776519Y-136243956D01*
X101562318Y-136155231D01*
X101334924Y-136110000D01*
X101103076Y-136110000D01*
X100875682Y-136155231D01*
X100661481Y-136243956D01*
X100468706Y-136372764D01*
X100304764Y-136536706D01*
X100175956Y-136729481D01*
X100087231Y-136943682D01*
X100042000Y-137171076D01*
X100042000Y-137402924D01*
X100087231Y-137630318D01*
X100175956Y-137844519D01*
X100304764Y-138037294D01*
X100468706Y-138201236D01*
X100661481Y-138330044D01*
X100742001Y-138363396D01*
X100742000Y-141419418D01*
X99507276Y-142654143D01*
X99507271Y-142654147D01*
X98827272Y-143334147D01*
X98809081Y-143349076D01*
X98794152Y-143367267D01*
X98794149Y-143367270D01*
X98790742Y-143371422D01*
X98749473Y-143421708D01*
X98745817Y-143428548D01*
X98705179Y-143504575D01*
X98677904Y-143594490D01*
X98668695Y-143687997D01*
X98671002Y-143711422D01*
X98671001Y-147205544D01*
X97416999Y-145951542D01*
X97416999Y-136437000D01*
X97500418Y-136437000D01*
X97500418Y-138137000D01*
X97506732Y-138201103D01*
X97525430Y-138262743D01*
X97555794Y-138319550D01*
X97596657Y-138369343D01*
X97646450Y-138410206D01*
X97703257Y-138440570D01*
X97764897Y-138459268D01*
X97829000Y-138465582D01*
X99529000Y-138465582D01*
X99593103Y-138459268D01*
X99654743Y-138440570D01*
X99711550Y-138410206D01*
X99761343Y-138369343D01*
X99802206Y-138319550D01*
X99832570Y-138262743D01*
X99851268Y-138201103D01*
X99857582Y-138137000D01*
X99857582Y-136437000D01*
X99851268Y-136372897D01*
X99832570Y-136311257D01*
X99802206Y-136254450D01*
X99761343Y-136204657D01*
X99711550Y-136163794D01*
X99654743Y-136133430D01*
X99593103Y-136114732D01*
X99529000Y-136108418D01*
X97829000Y-136108418D01*
X97764897Y-136114732D01*
X97703257Y-136133430D01*
X97646450Y-136163794D01*
X97596657Y-136204657D01*
X97555794Y-136254450D01*
X97525430Y-136311257D01*
X97506732Y-136372897D01*
X97500418Y-136437000D01*
X97416999Y-136437000D01*
X97416999Y-134631076D01*
X97502000Y-134631076D01*
X97502000Y-134862924D01*
X97547231Y-135090318D01*
X97635956Y-135304519D01*
X97764764Y-135497294D01*
X97928706Y-135661236D01*
X98121481Y-135790044D01*
X98335682Y-135878769D01*
X98563076Y-135924000D01*
X98794924Y-135924000D01*
X99022318Y-135878769D01*
X99236519Y-135790044D01*
X99429294Y-135661236D01*
X99593236Y-135497294D01*
X99722044Y-135304519D01*
X99810769Y-135090318D01*
X99856000Y-134862924D01*
X99856000Y-134631076D01*
X99810769Y-134403682D01*
X99722044Y-134189481D01*
X99593236Y-133996706D01*
X99429294Y-133832764D01*
X99236519Y-133703956D01*
X99022318Y-133615231D01*
X98794924Y-133570000D01*
X98563076Y-133570000D01*
X98335682Y-133615231D01*
X98121481Y-133703956D01*
X97928706Y-133832764D01*
X97764764Y-133996706D01*
X97635956Y-134189481D01*
X97547231Y-134403682D01*
X97502000Y-134631076D01*
X97416999Y-134631076D01*
X97416999Y-133127580D01*
X100785580Y-129759000D01*
X100909603Y-129759000D01*
X101050058Y-129731062D01*
X101182364Y-129676259D01*
X101301436Y-129596698D01*
X101402698Y-129495436D01*
X101482259Y-129376364D01*
X101537062Y-129244058D01*
X101565000Y-129103603D01*
X101565000Y-128960397D01*
X101537062Y-128819942D01*
X101482259Y-128687636D01*
X101402698Y-128568564D01*
X101301436Y-128467302D01*
X101182364Y-128387741D01*
X101050058Y-128332938D01*
X100909603Y-128305000D01*
X100766397Y-128305000D01*
X100625942Y-128332938D01*
X100493636Y-128387741D01*
X100374564Y-128467302D01*
X100273302Y-128568564D01*
X100193741Y-128687636D01*
X100138938Y-128819942D01*
X100111000Y-128960397D01*
X100111000Y-129084420D01*
X96619270Y-132576151D01*
X96601079Y-132591080D01*
X96541471Y-132663712D01*
X96517795Y-132708006D01*
X96497177Y-132746579D01*
X96469902Y-132836494D01*
X96460693Y-132930001D01*
X96463000Y-132953426D01*
X96462999Y-146125706D01*
X96460693Y-146149121D01*
X96462999Y-146172536D01*
X96462999Y-146172543D01*
X96469902Y-146242628D01*
X96497177Y-146332543D01*
X96541470Y-146415410D01*
X96601078Y-146488042D01*
X96619275Y-146502976D01*
X98644772Y-148528473D01*
X98607397Y-148528473D01*
X98466942Y-148556411D01*
X98334636Y-148611214D01*
X98215564Y-148690775D01*
X98127866Y-148778473D01*
X95605053Y-148778473D01*
X91405000Y-144578421D01*
X91405000Y-144454397D01*
X91377062Y-144313942D01*
X91322259Y-144181636D01*
X91242698Y-144062564D01*
X91141436Y-143961302D01*
X91022364Y-143881741D01*
X90890058Y-143826938D01*
X90749603Y-143799000D01*
X90606397Y-143799000D01*
X90465942Y-143826938D01*
X90333636Y-143881741D01*
X90214564Y-143961302D01*
X90113302Y-144062564D01*
X90033741Y-144181636D01*
X89978938Y-144313942D01*
X89951000Y-144454397D01*
X89951000Y-144597603D01*
X89978938Y-144738058D01*
X90033741Y-144870364D01*
X90113302Y-144989436D01*
X90214564Y-145090698D01*
X90333636Y-145170259D01*
X90465942Y-145225062D01*
X90606397Y-145253000D01*
X90730421Y-145253000D01*
X95053623Y-149576203D01*
X95068552Y-149594394D01*
X95141184Y-149654002D01*
X95224050Y-149698295D01*
X95313965Y-149725570D01*
X95384050Y-149732473D01*
X95384058Y-149732473D01*
X95407473Y-149734779D01*
X95430888Y-149732473D01*
X98127866Y-149732473D01*
X98215564Y-149820171D01*
X98334636Y-149899732D01*
X98466942Y-149954535D01*
X98607397Y-149982473D01*
X98750603Y-149982473D01*
X98891058Y-149954535D01*
X99023364Y-149899732D01*
X99142436Y-149820171D01*
X99243698Y-149718909D01*
X99323259Y-149599837D01*
X99378062Y-149467531D01*
X99406000Y-149327076D01*
X99406000Y-149289702D01*
X102063029Y-151946731D01*
X102077958Y-151964922D01*
X102150590Y-152024530D01*
X102233456Y-152068823D01*
X102323371Y-152096098D01*
X102393456Y-152103001D01*
X102393464Y-152103001D01*
X102416879Y-152105307D01*
X102440294Y-152103001D01*
X108032586Y-152103001D01*
X108056001Y-152105307D01*
X108079416Y-152103001D01*
X108079424Y-152103001D01*
X108149509Y-152096098D01*
X108239424Y-152068823D01*
X108322290Y-152024530D01*
X108394922Y-151964922D01*
X108407455Y-151949650D01*
X124724424Y-151949650D01*
X124769634Y-152293380D01*
X124881034Y-152621685D01*
X124990286Y-152826079D01*
X125267469Y-152936926D01*
X126312395Y-151892000D01*
X126671605Y-151892000D01*
X127716531Y-152936926D01*
X127993714Y-152826079D01*
X128147089Y-152515160D01*
X128236860Y-152180295D01*
X128252004Y-151949650D01*
X129804424Y-151949650D01*
X129849634Y-152293380D01*
X129961034Y-152621685D01*
X130070286Y-152826079D01*
X130347469Y-152936926D01*
X131392395Y-151892000D01*
X130347469Y-150847074D01*
X130070286Y-150957921D01*
X129916911Y-151268840D01*
X129827140Y-151603705D01*
X129804424Y-151949650D01*
X128252004Y-151949650D01*
X128259576Y-151834350D01*
X128214366Y-151490620D01*
X128102966Y-151162315D01*
X127993714Y-150957921D01*
X127716531Y-150847074D01*
X126671605Y-151892000D01*
X126312395Y-151892000D01*
X125267469Y-150847074D01*
X124990286Y-150957921D01*
X124836911Y-151268840D01*
X124747140Y-151603705D01*
X124724424Y-151949650D01*
X108407455Y-151949650D01*
X108409856Y-151946725D01*
X109689112Y-150667469D01*
X125447074Y-150667469D01*
X126492000Y-151712395D01*
X127536926Y-150667469D01*
X127426079Y-150390286D01*
X127115160Y-150236911D01*
X126780295Y-150147140D01*
X126434350Y-150124424D01*
X126090620Y-150169634D01*
X125762315Y-150281034D01*
X125557921Y-150390286D01*
X125447074Y-150667469D01*
X109689112Y-150667469D01*
X112825581Y-147531001D01*
X117303586Y-147531001D01*
X117327001Y-147533307D01*
X117350416Y-147531001D01*
X117350424Y-147531001D01*
X117420509Y-147524098D01*
X117510424Y-147496823D01*
X117593290Y-147452530D01*
X117665922Y-147392922D01*
X117680856Y-147374725D01*
X118037730Y-147017852D01*
X118055922Y-147002922D01*
X118115530Y-146930290D01*
X118159823Y-146847424D01*
X118187098Y-146757509D01*
X118194001Y-146687424D01*
X118194001Y-146687417D01*
X118196307Y-146664002D01*
X118194001Y-146640587D01*
X118194001Y-145967414D01*
X118196307Y-145943999D01*
X118194001Y-145920584D01*
X118194001Y-145920576D01*
X118187098Y-145850491D01*
X118159823Y-145760576D01*
X118115530Y-145677710D01*
X118055922Y-145605078D01*
X118037730Y-145590148D01*
X116271857Y-143824276D01*
X116256923Y-143806079D01*
X116184291Y-143746471D01*
X116101425Y-143702178D01*
X116011510Y-143674903D01*
X115941425Y-143668000D01*
X115941417Y-143668000D01*
X115918002Y-143665694D01*
X115894587Y-143668000D01*
X112438134Y-143668000D01*
X112350436Y-143580302D01*
X112231364Y-143500741D01*
X112099058Y-143445938D01*
X111958603Y-143418000D01*
X111815397Y-143418000D01*
X111674942Y-143445938D01*
X111542636Y-143500741D01*
X111423564Y-143580302D01*
X111322302Y-143681564D01*
X111242741Y-143800636D01*
X111187938Y-143932942D01*
X111160000Y-144073397D01*
X111160000Y-144216603D01*
X111187938Y-144357058D01*
X111242741Y-144489364D01*
X111322302Y-144608436D01*
X111423564Y-144709698D01*
X111542636Y-144789259D01*
X111674942Y-144844062D01*
X111815397Y-144872000D01*
X111958603Y-144872000D01*
X112099058Y-144844062D01*
X112231364Y-144789259D01*
X112350436Y-144709698D01*
X112438134Y-144622000D01*
X115720423Y-144622000D01*
X116718468Y-145620046D01*
X116622636Y-145659741D01*
X116503564Y-145739302D01*
X116415866Y-145827000D01*
X113200134Y-145827000D01*
X113112436Y-145739302D01*
X112993364Y-145659741D01*
X112861058Y-145604938D01*
X112720603Y-145577000D01*
X112577397Y-145577000D01*
X112436942Y-145604938D01*
X112304636Y-145659741D01*
X112185564Y-145739302D01*
X112097866Y-145827000D01*
X109243412Y-145827000D01*
X109219999Y-145824694D01*
X109196586Y-145827000D01*
X109196577Y-145827000D01*
X109189000Y-145827746D01*
X109189000Y-144328412D01*
X109191306Y-144304997D01*
X109189000Y-144281582D01*
X109189000Y-144281575D01*
X109182097Y-144211490D01*
X109154822Y-144121575D01*
X109110529Y-144038709D01*
X109050921Y-143966077D01*
X109032729Y-143951147D01*
X108364001Y-143282419D01*
X108416209Y-143230211D01*
X108442035Y-143209016D01*
X108526637Y-143105930D01*
X108589501Y-142988319D01*
X108628213Y-142860704D01*
X108638009Y-142761241D01*
X108638009Y-142761232D01*
X108641283Y-142727990D01*
X108638009Y-142694748D01*
X108638009Y-142258219D01*
X108752195Y-142144033D01*
X108778026Y-142122834D01*
X108862627Y-142019748D01*
X108925491Y-141902137D01*
X108964203Y-141774522D01*
X108973999Y-141675059D01*
X108977274Y-141641807D01*
X108973999Y-141608555D01*
X108973999Y-140187621D01*
X109786610Y-139375010D01*
X115364545Y-139375010D01*
X115397790Y-139378284D01*
X115431035Y-139375010D01*
X115431042Y-139375010D01*
X115530505Y-139365214D01*
X115658120Y-139326502D01*
X115775731Y-139263638D01*
X115878817Y-139179037D01*
X115900016Y-139153206D01*
X121132582Y-133920640D01*
X121231227Y-133901018D01*
X121381731Y-133838677D01*
X121517181Y-133748172D01*
X121632372Y-133632981D01*
X121722877Y-133497531D01*
X121785218Y-133347027D01*
X121817000Y-133187252D01*
X121817000Y-133024348D01*
X121785218Y-132864573D01*
X121722877Y-132714069D01*
X121632372Y-132578619D01*
X121517181Y-132463428D01*
X121381731Y-132372923D01*
X121231227Y-132310582D01*
X121071452Y-132278800D01*
X120908548Y-132278800D01*
X120748773Y-132310582D01*
X120598269Y-132372923D01*
X120462819Y-132463428D01*
X120347628Y-132578619D01*
X120257123Y-132714069D01*
X120194782Y-132864573D01*
X120175160Y-132963218D01*
X115117368Y-138021010D01*
X109539429Y-138021010D01*
X109506187Y-138017736D01*
X109472945Y-138021010D01*
X109472936Y-138021010D01*
X109373473Y-138030806D01*
X109245858Y-138069518D01*
X109128247Y-138132382D01*
X109025161Y-138216983D01*
X109003964Y-138242812D01*
X107841799Y-139404977D01*
X107815972Y-139426173D01*
X107794777Y-139451999D01*
X107794775Y-139452001D01*
X107781340Y-139468372D01*
X107731371Y-139529259D01*
X107668507Y-139646870D01*
X107629795Y-139774485D01*
X107619999Y-139873948D01*
X107619999Y-139873954D01*
X107616725Y-139907199D01*
X107619999Y-139940444D01*
X107620000Y-141332148D01*
X107616645Y-141333538D01*
X107497573Y-141413099D01*
X107396311Y-141514361D01*
X107316750Y-141633433D01*
X107261947Y-141765739D01*
X107234009Y-141906194D01*
X107234009Y-142049400D01*
X107261947Y-142189855D01*
X107284009Y-142243117D01*
X107284009Y-142447567D01*
X107045806Y-142685770D01*
X107045800Y-142685775D01*
X102479576Y-147252000D01*
X101466357Y-147252000D01*
X101382731Y-147196123D01*
X101232227Y-147133782D01*
X101072452Y-147102000D01*
X100909548Y-147102000D01*
X100749773Y-147133782D01*
X100599269Y-147196123D01*
X100463819Y-147286628D01*
X100348628Y-147401819D01*
X100258123Y-147537269D01*
X100195782Y-147687773D01*
X100164000Y-147847548D01*
X100164000Y-147991423D01*
X99625001Y-147452424D01*
X99625001Y-143885576D01*
X99783899Y-143726679D01*
X99788782Y-143751227D01*
X99851123Y-143901731D01*
X99941628Y-144037181D01*
X100056819Y-144152372D01*
X100192269Y-144242877D01*
X100342773Y-144305218D01*
X100502548Y-144337000D01*
X100665452Y-144337000D01*
X100825227Y-144305218D01*
X100975731Y-144242877D01*
X101059357Y-144187000D01*
X101185755Y-144187000D01*
X101219000Y-144190274D01*
X101252245Y-144187000D01*
X101252252Y-144187000D01*
X101351715Y-144177204D01*
X101479330Y-144138492D01*
X101596941Y-144075628D01*
X101700027Y-143991027D01*
X101721226Y-143965196D01*
X102563201Y-143123222D01*
X102589027Y-143102027D01*
X102627388Y-143055285D01*
X102673628Y-142998941D01*
X102736492Y-142881330D01*
X102775204Y-142753715D01*
X102788275Y-142621000D01*
X102785000Y-142587748D01*
X102785000Y-140229820D01*
X103027421Y-139987399D01*
X103774358Y-139987399D01*
X103807603Y-139990673D01*
X103840848Y-139987399D01*
X103840855Y-139987399D01*
X103940318Y-139977603D01*
X104067933Y-139938891D01*
X104185544Y-139876027D01*
X104288630Y-139791426D01*
X104309829Y-139765595D01*
X105958199Y-138117225D01*
X105984025Y-138096030D01*
X106005783Y-138069519D01*
X106068627Y-137992944D01*
X106131491Y-137875333D01*
X106170203Y-137747718D01*
X106170203Y-137747717D01*
X106179999Y-137648255D01*
X106179999Y-137648249D01*
X106183273Y-137615004D01*
X106179999Y-137581759D01*
X106179999Y-136994000D01*
X106461928Y-136994000D01*
X106474188Y-137118482D01*
X106510498Y-137238180D01*
X106569463Y-137348494D01*
X106648815Y-137445185D01*
X106745506Y-137524537D01*
X106855820Y-137583502D01*
X106975518Y-137619812D01*
X107100000Y-137632072D01*
X107664250Y-137629000D01*
X107823000Y-137470250D01*
X107823000Y-136271000D01*
X106623750Y-136271000D01*
X106465000Y-136429750D01*
X106461928Y-136994000D01*
X106179999Y-136994000D01*
X106179999Y-135294000D01*
X106461928Y-135294000D01*
X106465000Y-135858250D01*
X106623750Y-136017000D01*
X107823000Y-136017000D01*
X107823000Y-134817750D01*
X108077000Y-134817750D01*
X108077000Y-136017000D01*
X108097000Y-136017000D01*
X108097000Y-136271000D01*
X108077000Y-136271000D01*
X108077000Y-137470250D01*
X108235750Y-137629000D01*
X108800000Y-137632072D01*
X108924482Y-137619812D01*
X109044180Y-137583502D01*
X109154494Y-137524537D01*
X109251185Y-137445185D01*
X109330537Y-137348494D01*
X109389502Y-137238180D01*
X109425812Y-137118482D01*
X109438072Y-136994000D01*
X109436340Y-136675890D01*
X109446956Y-136701519D01*
X109575764Y-136894294D01*
X109739706Y-137058236D01*
X109932481Y-137187044D01*
X110146682Y-137275769D01*
X110374076Y-137321000D01*
X110605924Y-137321000D01*
X110833318Y-137275769D01*
X111047519Y-137187044D01*
X111240294Y-137058236D01*
X111404236Y-136894294D01*
X111533044Y-136701519D01*
X111621769Y-136487318D01*
X111667000Y-136259924D01*
X111667000Y-136028076D01*
X111853000Y-136028076D01*
X111853000Y-136259924D01*
X111898231Y-136487318D01*
X111986956Y-136701519D01*
X112115764Y-136894294D01*
X112279706Y-137058236D01*
X112472481Y-137187044D01*
X112686682Y-137275769D01*
X112914076Y-137321000D01*
X113145924Y-137321000D01*
X113373318Y-137275769D01*
X113587519Y-137187044D01*
X113780294Y-137058236D01*
X113944236Y-136894294D01*
X114073044Y-136701519D01*
X114161769Y-136487318D01*
X114207000Y-136259924D01*
X114207000Y-136028076D01*
X114161769Y-135800682D01*
X114073044Y-135586481D01*
X113944236Y-135393706D01*
X113780294Y-135229764D01*
X113587519Y-135100956D01*
X113373318Y-135012231D01*
X113145924Y-134967000D01*
X112914076Y-134967000D01*
X112686682Y-135012231D01*
X112472481Y-135100956D01*
X112279706Y-135229764D01*
X112115764Y-135393706D01*
X111986956Y-135586481D01*
X111898231Y-135800682D01*
X111853000Y-136028076D01*
X111667000Y-136028076D01*
X111621769Y-135800682D01*
X111533044Y-135586481D01*
X111404236Y-135393706D01*
X111240294Y-135229764D01*
X111047519Y-135100956D01*
X110833318Y-135012231D01*
X110605924Y-134967000D01*
X110374076Y-134967000D01*
X110146682Y-135012231D01*
X109932481Y-135100956D01*
X109739706Y-135229764D01*
X109575764Y-135393706D01*
X109446956Y-135586481D01*
X109436340Y-135612110D01*
X109438072Y-135294000D01*
X109425812Y-135169518D01*
X109389502Y-135049820D01*
X109330537Y-134939506D01*
X109251185Y-134842815D01*
X109154494Y-134763463D01*
X109044180Y-134704498D01*
X108924482Y-134668188D01*
X108800000Y-134655928D01*
X108235750Y-134659000D01*
X108077000Y-134817750D01*
X107823000Y-134817750D01*
X107664250Y-134659000D01*
X107100000Y-134655928D01*
X106975518Y-134668188D01*
X106855820Y-134704498D01*
X106745506Y-134763463D01*
X106648815Y-134842815D01*
X106569463Y-134939506D01*
X106510498Y-135049820D01*
X106474188Y-135169518D01*
X106461928Y-135294000D01*
X106179999Y-135294000D01*
X106179999Y-130666706D01*
X111147200Y-130666706D01*
X111147200Y-130902494D01*
X111193200Y-131133752D01*
X111283432Y-131351592D01*
X111414429Y-131547643D01*
X111581157Y-131714371D01*
X111777208Y-131845368D01*
X111995048Y-131935600D01*
X112226306Y-131981600D01*
X112462094Y-131981600D01*
X112693352Y-131935600D01*
X112911192Y-131845368D01*
X113107243Y-131714371D01*
X113273971Y-131547643D01*
X113404968Y-131351592D01*
X113495200Y-131133752D01*
X113541200Y-130902494D01*
X113541200Y-130666706D01*
X113495200Y-130435448D01*
X113404968Y-130217608D01*
X113273971Y-130021557D01*
X113107243Y-129854829D01*
X112911192Y-129723832D01*
X112693352Y-129633600D01*
X112462094Y-129587600D01*
X112226306Y-129587600D01*
X111995048Y-129633600D01*
X111777208Y-129723832D01*
X111581157Y-129854829D01*
X111414429Y-130021557D01*
X111283432Y-130217608D01*
X111193200Y-130435448D01*
X111147200Y-130666706D01*
X106179999Y-130666706D01*
X106179999Y-128983554D01*
X106195603Y-128932115D01*
X106208673Y-128799400D01*
X106195603Y-128666687D01*
X106179999Y-128615248D01*
X106179999Y-128126706D01*
X111147200Y-128126706D01*
X111147200Y-128362494D01*
X111193200Y-128593752D01*
X111283432Y-128811592D01*
X111414429Y-129007643D01*
X111581157Y-129174371D01*
X111777208Y-129305368D01*
X111995048Y-129395600D01*
X112226306Y-129441600D01*
X112462094Y-129441600D01*
X112693352Y-129395600D01*
X112911192Y-129305368D01*
X113107243Y-129174371D01*
X113273971Y-129007643D01*
X113404968Y-128811592D01*
X113495200Y-128593752D01*
X113541200Y-128362494D01*
X113541200Y-128126706D01*
X113495200Y-127895448D01*
X113404968Y-127677608D01*
X113273971Y-127481557D01*
X113107243Y-127314829D01*
X112911192Y-127183832D01*
X112693352Y-127093600D01*
X112462094Y-127047600D01*
X112226306Y-127047600D01*
X111995048Y-127093600D01*
X111777208Y-127183832D01*
X111581157Y-127314829D01*
X111414429Y-127481557D01*
X111283432Y-127677608D01*
X111193200Y-127895448D01*
X111147200Y-128126706D01*
X106179999Y-128126706D01*
X106179999Y-126381600D01*
X111356937Y-126381600D01*
X111414429Y-126467643D01*
X111581157Y-126634371D01*
X111777208Y-126765368D01*
X111995048Y-126855600D01*
X112226306Y-126901600D01*
X112462094Y-126901600D01*
X112693352Y-126855600D01*
X112911192Y-126765368D01*
X113107243Y-126634371D01*
X113273971Y-126467643D01*
X113331463Y-126381600D01*
X114375178Y-126381600D01*
X116025160Y-128031582D01*
X116044782Y-128130227D01*
X116107123Y-128280731D01*
X116197628Y-128416181D01*
X116312819Y-128531372D01*
X116448269Y-128621877D01*
X116598773Y-128684218D01*
X116758548Y-128716000D01*
X116921452Y-128716000D01*
X117081227Y-128684218D01*
X117231731Y-128621877D01*
X117367181Y-128531372D01*
X117482372Y-128416181D01*
X117572877Y-128280731D01*
X117635218Y-128130227D01*
X117667000Y-127970452D01*
X117667000Y-127807548D01*
X117635218Y-127647773D01*
X117572877Y-127497269D01*
X117482372Y-127361819D01*
X117367181Y-127246628D01*
X117231731Y-127156123D01*
X117081227Y-127093782D01*
X116982582Y-127074160D01*
X115157826Y-125249404D01*
X115136627Y-125223573D01*
X115033541Y-125138972D01*
X114915930Y-125076108D01*
X114788315Y-125037396D01*
X114688852Y-125027600D01*
X114688845Y-125027600D01*
X114655600Y-125024326D01*
X114622355Y-125027600D01*
X113331463Y-125027600D01*
X113273971Y-124941557D01*
X113107243Y-124774829D01*
X112952293Y-124671295D01*
X113214200Y-124672672D01*
X113338682Y-124660412D01*
X113458380Y-124624102D01*
X113568694Y-124565137D01*
X113665385Y-124485785D01*
X113744737Y-124389094D01*
X113803702Y-124278780D01*
X113840012Y-124159082D01*
X113852272Y-124034600D01*
X113849200Y-123450350D01*
X113690450Y-123291600D01*
X112471200Y-123291600D01*
X112471200Y-123311600D01*
X112217200Y-123311600D01*
X112217200Y-123291600D01*
X110997950Y-123291600D01*
X110839200Y-123450350D01*
X110836128Y-124034600D01*
X110848388Y-124159082D01*
X110884698Y-124278780D01*
X110943663Y-124389094D01*
X111023015Y-124485785D01*
X111119706Y-124565137D01*
X111230020Y-124624102D01*
X111349718Y-124660412D01*
X111474200Y-124672672D01*
X111736107Y-124671295D01*
X111581157Y-124774829D01*
X111414429Y-124941557D01*
X111356937Y-125027600D01*
X105544852Y-125027600D01*
X105511600Y-125024325D01*
X105478348Y-125027600D01*
X75935326Y-125027600D01*
X75902084Y-125024326D01*
X75868842Y-125027600D01*
X75868833Y-125027600D01*
X75769370Y-125037396D01*
X75641755Y-125076108D01*
X75524144Y-125138972D01*
X75421058Y-125223573D01*
X75399859Y-125249404D01*
X64998958Y-135650305D01*
X64884227Y-135602782D01*
X64724452Y-135571000D01*
X64561548Y-135571000D01*
X64401773Y-135602782D01*
X64251269Y-135665123D01*
X64115819Y-135755628D01*
X64000628Y-135870819D01*
X63910123Y-136006269D01*
X63847782Y-136156773D01*
X63816000Y-136316548D01*
X60816000Y-136316548D01*
X60816000Y-122294600D01*
X110836128Y-122294600D01*
X110839200Y-122878850D01*
X110997950Y-123037600D01*
X112217200Y-123037600D01*
X112217200Y-121818350D01*
X112058450Y-121659600D01*
X111474200Y-121656528D01*
X111349718Y-121668788D01*
X111230020Y-121705098D01*
X111119706Y-121764063D01*
X111023015Y-121843415D01*
X110943663Y-121940106D01*
X110884698Y-122050420D01*
X110848388Y-122170118D01*
X110836128Y-122294600D01*
X60816000Y-122294600D01*
X60816000Y-120441548D01*
X105345000Y-120441548D01*
X105345000Y-120604452D01*
X105376782Y-120764227D01*
X105439123Y-120914731D01*
X105529628Y-121050181D01*
X105644819Y-121165372D01*
X105780269Y-121255877D01*
X105930773Y-121318218D01*
X106090548Y-121350000D01*
X106253452Y-121350000D01*
X106413227Y-121318218D01*
X106563731Y-121255877D01*
X106699181Y-121165372D01*
X106814372Y-121050181D01*
X106814493Y-121050000D01*
X112107396Y-121050000D01*
X112716541Y-121659145D01*
X112629950Y-121659600D01*
X112471200Y-121818350D01*
X112471200Y-123037600D01*
X113690450Y-123037600D01*
X113849200Y-122878850D01*
X113849655Y-122792260D01*
X125569827Y-134512433D01*
X125505123Y-134609269D01*
X125442782Y-134759773D01*
X125411000Y-134919548D01*
X125411000Y-135082452D01*
X125442782Y-135242227D01*
X125505123Y-135392731D01*
X125595628Y-135528181D01*
X125710819Y-135643372D01*
X125846269Y-135733877D01*
X125996773Y-135796218D01*
X126156548Y-135828000D01*
X126319452Y-135828000D01*
X126479227Y-135796218D01*
X126629731Y-135733877D01*
X126765181Y-135643372D01*
X126880372Y-135528181D01*
X126970877Y-135392731D01*
X127033218Y-135242227D01*
X127065000Y-135082452D01*
X127065000Y-134919548D01*
X127033218Y-134759773D01*
X126970877Y-134609269D01*
X126880372Y-134473819D01*
X126765181Y-134358628D01*
X126759631Y-134354919D01*
X126757374Y-134332005D01*
X126727239Y-134232666D01*
X126727239Y-134232665D01*
X126678304Y-134141113D01*
X126612448Y-134060867D01*
X126592345Y-134044369D01*
X115945855Y-123397880D01*
X128165337Y-123397880D01*
X128236329Y-123615994D01*
X128379931Y-123891823D01*
X128574585Y-124134337D01*
X128812811Y-124334216D01*
X129051554Y-124465183D01*
X128994109Y-124495888D01*
X128799280Y-124655780D01*
X128639388Y-124850609D01*
X128520577Y-125072888D01*
X128447414Y-125314074D01*
X128422710Y-125564900D01*
X128447414Y-125815726D01*
X128520577Y-126056912D01*
X128639388Y-126279191D01*
X128799280Y-126474020D01*
X128994109Y-126633912D01*
X129216388Y-126752723D01*
X129457574Y-126825886D01*
X129645551Y-126844400D01*
X129866249Y-126844400D01*
X130054226Y-126825886D01*
X130295412Y-126752723D01*
X130517691Y-126633912D01*
X130712520Y-126474020D01*
X130872412Y-126279191D01*
X130991223Y-126056912D01*
X131064386Y-125815726D01*
X131089090Y-125564900D01*
X131064386Y-125314074D01*
X130991223Y-125072888D01*
X130872412Y-124850609D01*
X130712520Y-124655780D01*
X130517691Y-124495888D01*
X130460246Y-124465183D01*
X130698989Y-124334216D01*
X130937215Y-124134337D01*
X131131869Y-123891823D01*
X131275471Y-123615994D01*
X131346463Y-123397880D01*
X131226494Y-123151900D01*
X129882900Y-123151900D01*
X129882900Y-123171900D01*
X129628900Y-123171900D01*
X129628900Y-123151900D01*
X128285306Y-123151900D01*
X128165337Y-123397880D01*
X115945855Y-123397880D01*
X115199895Y-122651920D01*
X128165337Y-122651920D01*
X128285306Y-122897900D01*
X129628900Y-122897900D01*
X129628900Y-122877900D01*
X129882900Y-122877900D01*
X129882900Y-122897900D01*
X131226494Y-122897900D01*
X131346463Y-122651920D01*
X131275471Y-122433806D01*
X131131869Y-122157977D01*
X130937215Y-121915463D01*
X130758724Y-121765704D01*
X130820003Y-121759668D01*
X130881643Y-121740970D01*
X130938450Y-121710606D01*
X130988243Y-121669743D01*
X131029106Y-121619950D01*
X131059470Y-121563143D01*
X131078168Y-121501503D01*
X131084482Y-121437400D01*
X131084482Y-119532400D01*
X131078168Y-119468297D01*
X131059470Y-119406657D01*
X131029106Y-119349850D01*
X130988243Y-119300057D01*
X130938450Y-119259194D01*
X130881643Y-119228830D01*
X130820003Y-119210132D01*
X130755900Y-119203818D01*
X128755900Y-119203818D01*
X128691797Y-119210132D01*
X128630157Y-119228830D01*
X128573350Y-119259194D01*
X128523557Y-119300057D01*
X128482694Y-119349850D01*
X128452330Y-119406657D01*
X128433632Y-119468297D01*
X128427318Y-119532400D01*
X128427318Y-121437400D01*
X128433632Y-121501503D01*
X128452330Y-121563143D01*
X128482694Y-121619950D01*
X128523557Y-121669743D01*
X128573350Y-121710606D01*
X128630157Y-121740970D01*
X128691797Y-121759668D01*
X128753076Y-121765704D01*
X128574585Y-121915463D01*
X128379931Y-122157977D01*
X128236329Y-122433806D01*
X128165337Y-122651920D01*
X115199895Y-122651920D01*
X112716640Y-120168666D01*
X112700133Y-120148552D01*
X112619887Y-120082696D01*
X112528335Y-120033761D01*
X112428995Y-120003626D01*
X112351566Y-119996000D01*
X112325685Y-119993451D01*
X112299804Y-119996000D01*
X106814493Y-119996000D01*
X106814372Y-119995819D01*
X106699181Y-119880628D01*
X106563731Y-119790123D01*
X106413227Y-119727782D01*
X106253452Y-119696000D01*
X106090548Y-119696000D01*
X105930773Y-119727782D01*
X105780269Y-119790123D01*
X105644819Y-119880628D01*
X105529628Y-119995819D01*
X105439123Y-120131269D01*
X105376782Y-120281773D01*
X105345000Y-120441548D01*
X60816000Y-120441548D01*
X60816000Y-116683902D01*
X78683000Y-116683902D01*
X78683000Y-116945298D01*
X78733996Y-117201672D01*
X78834028Y-117443170D01*
X78979252Y-117660513D01*
X79164087Y-117845348D01*
X79381430Y-117990572D01*
X79622928Y-118090604D01*
X79879302Y-118141600D01*
X80140698Y-118141600D01*
X80397072Y-118090604D01*
X80638570Y-117990572D01*
X80855913Y-117845348D01*
X81040748Y-117660513D01*
X81185972Y-117443170D01*
X81286004Y-117201672D01*
X81337000Y-116945298D01*
X81337000Y-116683902D01*
X124555400Y-116683902D01*
X124555400Y-116945298D01*
X124606396Y-117201672D01*
X124706428Y-117443170D01*
X124851652Y-117660513D01*
X125036487Y-117845348D01*
X125253830Y-117990572D01*
X125495328Y-118090604D01*
X125751702Y-118141600D01*
X126013098Y-118141600D01*
X126269472Y-118090604D01*
X126510970Y-117990572D01*
X126728313Y-117845348D01*
X126913148Y-117660513D01*
X127058372Y-117443170D01*
X127158404Y-117201672D01*
X127209400Y-116945298D01*
X127209400Y-116683902D01*
X127158404Y-116427528D01*
X127058372Y-116186030D01*
X126913148Y-115968687D01*
X126728313Y-115783852D01*
X126510970Y-115638628D01*
X126269472Y-115538596D01*
X126013098Y-115487600D01*
X125751702Y-115487600D01*
X125495328Y-115538596D01*
X125253830Y-115638628D01*
X125036487Y-115783852D01*
X124851652Y-115968687D01*
X124706428Y-116186030D01*
X124606396Y-116427528D01*
X124555400Y-116683902D01*
X81337000Y-116683902D01*
X81286004Y-116427528D01*
X81185972Y-116186030D01*
X81040748Y-115968687D01*
X80855913Y-115783852D01*
X80638570Y-115638628D01*
X80397072Y-115538596D01*
X80140698Y-115487600D01*
X79879302Y-115487600D01*
X79622928Y-115538596D01*
X79381430Y-115638628D01*
X79164087Y-115783852D01*
X78979252Y-115968687D01*
X78834028Y-116186030D01*
X78733996Y-116427528D01*
X78683000Y-116683902D01*
X60816000Y-116683902D01*
X60816000Y-111698799D01*
X92832218Y-111698799D01*
X92832218Y-112938801D01*
X92843335Y-113051677D01*
X92876260Y-113160214D01*
X92929726Y-113260243D01*
X93001680Y-113347920D01*
X93089357Y-113419874D01*
X93189386Y-113473340D01*
X93297923Y-113506265D01*
X93410799Y-113517382D01*
X94650801Y-113517382D01*
X94763677Y-113506265D01*
X94872214Y-113473340D01*
X94972243Y-113419874D01*
X95043406Y-113361472D01*
X95707733Y-113361472D01*
X95787788Y-113612589D01*
X96055239Y-113740487D01*
X96342503Y-113813750D01*
X96638540Y-113829564D01*
X96931974Y-113787320D01*
X97211528Y-113688641D01*
X97353812Y-113612589D01*
X97433867Y-113361472D01*
X96570800Y-112498405D01*
X95707733Y-113361472D01*
X95043406Y-113361472D01*
X95059920Y-113347920D01*
X95131874Y-113260243D01*
X95185340Y-113160214D01*
X95218265Y-113051677D01*
X95223236Y-113001205D01*
X95277011Y-113101812D01*
X95528128Y-113181867D01*
X96391195Y-112318800D01*
X96750405Y-112318800D01*
X97613472Y-113181867D01*
X97864589Y-113101812D01*
X97992487Y-112834361D01*
X98006298Y-112780208D01*
X98050032Y-112885792D01*
X98181029Y-113081843D01*
X98347757Y-113248571D01*
X98543808Y-113379568D01*
X98761648Y-113469800D01*
X98992906Y-113515800D01*
X99228694Y-113515800D01*
X99459952Y-113469800D01*
X99677792Y-113379568D01*
X99873843Y-113248571D01*
X100040571Y-113081843D01*
X100171568Y-112885792D01*
X100261800Y-112667952D01*
X100307800Y-112436694D01*
X100307800Y-112200906D01*
X100453800Y-112200906D01*
X100453800Y-112436694D01*
X100499800Y-112667952D01*
X100590032Y-112885792D01*
X100721029Y-113081843D01*
X100887757Y-113248571D01*
X101083808Y-113379568D01*
X101301648Y-113469800D01*
X101532906Y-113515800D01*
X101768694Y-113515800D01*
X101999952Y-113469800D01*
X102217792Y-113379568D01*
X102244874Y-113361472D01*
X103327733Y-113361472D01*
X103407788Y-113612589D01*
X103675239Y-113740487D01*
X103962503Y-113813750D01*
X104258540Y-113829564D01*
X104551974Y-113787320D01*
X104831528Y-113688641D01*
X104973812Y-113612589D01*
X105053867Y-113361472D01*
X104881195Y-113188800D01*
X108905728Y-113188800D01*
X108917988Y-113313282D01*
X108954298Y-113432980D01*
X109013263Y-113543294D01*
X109092615Y-113639985D01*
X109189306Y-113719337D01*
X109299620Y-113778302D01*
X109419318Y-113814612D01*
X109543800Y-113826872D01*
X110128050Y-113823800D01*
X110286800Y-113665050D01*
X110286800Y-112445800D01*
X109067550Y-112445800D01*
X108908800Y-112604550D01*
X108905728Y-113188800D01*
X104881195Y-113188800D01*
X104190800Y-112498405D01*
X103327733Y-113361472D01*
X102244874Y-113361472D01*
X102413843Y-113248571D01*
X102580571Y-113081843D01*
X102711568Y-112885792D01*
X102756576Y-112777133D01*
X102820959Y-112959528D01*
X102897011Y-113101812D01*
X103148128Y-113181867D01*
X104011195Y-112318800D01*
X104370405Y-112318800D01*
X105233472Y-113181867D01*
X105484589Y-113101812D01*
X105612487Y-112834361D01*
X105685750Y-112547097D01*
X105701564Y-112251060D01*
X105659320Y-111957626D01*
X105560641Y-111678072D01*
X105484589Y-111535788D01*
X105233472Y-111455733D01*
X104370405Y-112318800D01*
X104011195Y-112318800D01*
X103148128Y-111455733D01*
X102897011Y-111535788D01*
X102769113Y-111803239D01*
X102755302Y-111857392D01*
X102711568Y-111751808D01*
X102580571Y-111555757D01*
X102413843Y-111389029D01*
X102244875Y-111276128D01*
X103327733Y-111276128D01*
X104190800Y-112139195D01*
X104881195Y-111448800D01*
X108905728Y-111448800D01*
X108908800Y-112033050D01*
X109067550Y-112191800D01*
X110286800Y-112191800D01*
X110286800Y-110972550D01*
X110540800Y-110972550D01*
X110540800Y-112191800D01*
X110560800Y-112191800D01*
X110560800Y-112445800D01*
X110540800Y-112445800D01*
X110540800Y-113665050D01*
X110699550Y-113823800D01*
X111283800Y-113826872D01*
X111408282Y-113814612D01*
X111527980Y-113778302D01*
X111638294Y-113719337D01*
X111734985Y-113639985D01*
X111814337Y-113543294D01*
X111873302Y-113432980D01*
X111909612Y-113313282D01*
X111921872Y-113188800D01*
X111920495Y-112926893D01*
X112024029Y-113081843D01*
X112190757Y-113248571D01*
X112386808Y-113379568D01*
X112604648Y-113469800D01*
X112835906Y-113515800D01*
X113071694Y-113515800D01*
X113302952Y-113469800D01*
X113520792Y-113379568D01*
X113716843Y-113248571D01*
X113883571Y-113081843D01*
X114014568Y-112885792D01*
X114104800Y-112667952D01*
X114150800Y-112436694D01*
X114150800Y-112200906D01*
X114104800Y-111969648D01*
X114014568Y-111751808D01*
X113883571Y-111555757D01*
X113716843Y-111389029D01*
X113520792Y-111258032D01*
X113302952Y-111167800D01*
X113071694Y-111121800D01*
X112835906Y-111121800D01*
X112604648Y-111167800D01*
X112386808Y-111258032D01*
X112190757Y-111389029D01*
X112024029Y-111555757D01*
X111920495Y-111710707D01*
X111921872Y-111448800D01*
X111909612Y-111324318D01*
X111873302Y-111204620D01*
X111814337Y-111094306D01*
X111734985Y-110997615D01*
X111638294Y-110918263D01*
X111527980Y-110859298D01*
X111408282Y-110822988D01*
X111283800Y-110810728D01*
X110699550Y-110813800D01*
X110540800Y-110972550D01*
X110286800Y-110972550D01*
X110128050Y-110813800D01*
X109543800Y-110810728D01*
X109419318Y-110822988D01*
X109299620Y-110859298D01*
X109189306Y-110918263D01*
X109092615Y-110997615D01*
X109013263Y-111094306D01*
X108954298Y-111204620D01*
X108917988Y-111324318D01*
X108905728Y-111448800D01*
X104881195Y-111448800D01*
X105053867Y-111276128D01*
X104973812Y-111025011D01*
X104706361Y-110897113D01*
X104419097Y-110823850D01*
X104123060Y-110808036D01*
X103829626Y-110850280D01*
X103550072Y-110948959D01*
X103407788Y-111025011D01*
X103327733Y-111276128D01*
X102244875Y-111276128D01*
X102217792Y-111258032D01*
X101999952Y-111167800D01*
X101768694Y-111121800D01*
X101532906Y-111121800D01*
X101301648Y-111167800D01*
X101083808Y-111258032D01*
X100887757Y-111389029D01*
X100721029Y-111555757D01*
X100590032Y-111751808D01*
X100499800Y-111969648D01*
X100453800Y-112200906D01*
X100307800Y-112200906D01*
X100261800Y-111969648D01*
X100171568Y-111751808D01*
X100040571Y-111555757D01*
X99873843Y-111389029D01*
X99677792Y-111258032D01*
X99459952Y-111167800D01*
X99228694Y-111121800D01*
X98992906Y-111121800D01*
X98761648Y-111167800D01*
X98543808Y-111258032D01*
X98347757Y-111389029D01*
X98181029Y-111555757D01*
X98050032Y-111751808D01*
X98005024Y-111860467D01*
X97940641Y-111678072D01*
X97864589Y-111535788D01*
X97613472Y-111455733D01*
X96750405Y-112318800D01*
X96391195Y-112318800D01*
X95528128Y-111455733D01*
X95277011Y-111535788D01*
X95224203Y-111646216D01*
X95218265Y-111585923D01*
X95185340Y-111477386D01*
X95131874Y-111377357D01*
X95059920Y-111289680D01*
X95043407Y-111276128D01*
X95707733Y-111276128D01*
X96570800Y-112139195D01*
X97433867Y-111276128D01*
X97353812Y-111025011D01*
X97086361Y-110897113D01*
X96799097Y-110823850D01*
X96503060Y-110808036D01*
X96209626Y-110850280D01*
X95930072Y-110948959D01*
X95787788Y-111025011D01*
X95707733Y-111276128D01*
X95043407Y-111276128D01*
X94972243Y-111217726D01*
X94872214Y-111164260D01*
X94763677Y-111131335D01*
X94650801Y-111120218D01*
X93410799Y-111120218D01*
X93297923Y-111131335D01*
X93189386Y-111164260D01*
X93089357Y-111217726D01*
X93001680Y-111289680D01*
X92929726Y-111377357D01*
X92876260Y-111477386D01*
X92843335Y-111585923D01*
X92832218Y-111698799D01*
X60816000Y-111698799D01*
X60816000Y-109696959D01*
X61419960Y-109093000D01*
X128512000Y-109093000D01*
X128512000Y-109126538D01*
G37*
%TD.AperFunction*%
%TA.AperFunction,Conductor*%
G36*
X106216564Y-149916698D02*
G01*
X106335636Y-149996259D01*
X106467942Y-150051062D01*
X106608397Y-150079000D01*
X106751603Y-150079000D01*
X106892058Y-150051062D01*
X107024364Y-149996259D01*
X107143436Y-149916698D01*
X107219000Y-149841134D01*
X107219000Y-150324866D01*
X107131302Y-150412564D01*
X107051741Y-150531636D01*
X106996938Y-150663942D01*
X106969000Y-150804397D01*
X106969000Y-150947603D01*
X106996938Y-151088058D01*
X107022181Y-151149001D01*
X102614459Y-151149001D01*
X101890459Y-150425001D01*
X103532582Y-150425001D01*
X103555997Y-150427307D01*
X103579412Y-150425001D01*
X103579420Y-150425001D01*
X103649505Y-150418098D01*
X103739420Y-150390823D01*
X103822286Y-150346530D01*
X103894918Y-150286922D01*
X103909852Y-150268725D01*
X104349578Y-149829000D01*
X106128866Y-149829000D01*
X106216564Y-149916698D01*
G37*
%TD.AperFunction*%
%TA.AperFunction,Conductor*%
G36*
X107051741Y-144743364D02*
G01*
X107131302Y-144862436D01*
X107219001Y-144950135D01*
X107219000Y-148862866D01*
X107143436Y-148787302D01*
X107024364Y-148707741D01*
X106892058Y-148652938D01*
X106751603Y-148625000D01*
X106608397Y-148625000D01*
X106467942Y-148652938D01*
X106335636Y-148707741D01*
X106216564Y-148787302D01*
X106128866Y-148875000D01*
X104175413Y-148875000D01*
X104151998Y-148872694D01*
X104128583Y-148875000D01*
X104128575Y-148875000D01*
X104058490Y-148881903D01*
X103968575Y-148909178D01*
X103885709Y-148953471D01*
X103813077Y-149013079D01*
X103798147Y-149031271D01*
X103358418Y-149471001D01*
X101643579Y-149471001D01*
X100928578Y-148756000D01*
X101072452Y-148756000D01*
X101232227Y-148724218D01*
X101382731Y-148661877D01*
X101466357Y-148606000D01*
X102726753Y-148606000D01*
X102759998Y-148609274D01*
X102793243Y-148606000D01*
X102793250Y-148606000D01*
X102892713Y-148596204D01*
X103020328Y-148557492D01*
X103137939Y-148494628D01*
X103241025Y-148410027D01*
X103262224Y-148384196D01*
X107008192Y-144638228D01*
X107051741Y-144743364D01*
G37*
%TD.AperFunction*%
%TD*%
M02*
